<svg width="13" height="14" viewBox="0 0 13 14" fill="none" xmlns="http://www.w3.org/2000/svg">
    <path d="M7.07618 4.66033C7.35219 4.39318 7.36889 3.94074 7.11422 3.65028L4.39529 0.552582C4.13875 0.26034 3.65387 0.26034 3.39739 0.552582L0.680557 3.6485C0.425774 3.9389 0.44259 4.3913 0.718604 4.65855C0.849563 4.7883 1.01489 4.8508 1.17937 4.8508C1.3625 4.8508 1.54484 4.7736 1.67817 4.62108L3.21763 2.86581V12.9514C3.21763 13.3443 3.52337 13.6657 3.89705 13.6657C4.27073 13.6657 4.57647 13.3454 4.57647 12.9508V2.86581L6.11564 4.62016C6.36844 4.91032 6.79874 4.93115 7.07618 4.66033ZM12.5115 9.33858C12.2347 9.06866 11.8047 9.08818 11.5519 9.37858L10.0118 11.1331V1.04808C10.0118 0.653468 9.70893 0.333252 9.33242 0.333252C8.95591 0.333252 8.653 0.653468 8.653 1.04808V11.1337L7.11383 9.37935C6.98024 9.22683 6.79789 9.14964 6.61502 9.14964C6.45048 9.14964 6.28493 9.21195 6.15414 9.33936C5.87813 9.60651 5.86143 10.0589 6.1161 10.3494L8.8083 13.4474C9.06484 13.7396 9.54972 13.7396 9.8062 13.4474L12.4984 10.3494C12.8031 10.0588 12.7861 9.60642 12.5115 9.33858Z" fill="#22366A"/>
</svg>
