<svg width="16" height="14" viewBox="0 0 16 14" fill="none" xmlns="http://www.w3.org/2000/svg">
    <path d="M9.44985 0.562984L15.7357 6.39621C15.9036 6.55593 16 6.7712 16 7.00036C16 7.22953 15.904 7.44619 15.7344 7.60382L9.4485 13.437C9.07485 13.7537 8.56412 13.7418 8.23554 13.4086C7.90853 13.0788 7.92082 12.5493 8.26456 12.2302L13.0035 7.83368L0.857519 7.83368C0.384294 7.83368 0 7.46042 0 7.03161C0 6.6028 0.384294 6.16705 0.857519 6.16705L13.0042 6.16705L8.26483 1.77129C7.92107 1.45338 7.90878 0.923741 8.23581 0.592844C8.56412 0.257434 9.07485 0.247018 9.44985 0.562984Z" fill="#0C0C0C"/>
</svg>
