<svg width="10" height="16" viewBox="0 0 10 16" fill="none" xmlns="http://www.w3.org/2000/svg">
<path d="M0.5 3.375C0.5 1.51094 2.01094 0 3.875 0C5.7375 0 7.25 1.51094 7.25 3.375V10.75C7.25 11.9937 6.24375 13 5 13C3.75625 13 2.75 11.9937 2.75 10.75V4.75C2.75 4.33437 3.08437 4 3.5 4C3.91563 4 4.25 4.33437 4.25 4.75V10.75C4.25 11.1656 4.58437 11.5 5 11.5C5.41563 11.5 5.75 11.1656 5.75 10.75V3.375C5.75 2.33938 4.90938 1.5 3.875 1.5C2.84063 1.5 2 2.33938 2 3.375V11.5C2 13.1562 3.31562 14.5 5 14.5C6.65625 14.5 8 13.1562 8 11.5V4.75C8 4.33437 8.33437 4 8.75 4C9.16562 4 9.5 4.33437 9.5 4.75V11.5C9.5 13.9844 7.48438 16 5 16C2.51562 16 0.5 13.9844 0.5 11.5V3.375Z" fill="#405792"/>
</svg>
