<svg width="328" height="180" viewBox="0 0 328 180" fill="none" xmlns="http://www.w3.org/2000/svg">
<g clip-path="url(#clip0_2401_18559)">
<rect width="328" height="180" rx="8" fill="#26A69A" fill-opacity="0.4"/>
<path d="M22.2751 175.028L55.9548 174.88L89.6344 174.824L157 174.726L224.366 174.824L258.045 174.88L291.725 175.028L258.045 175.182L224.366 175.237L157 175.336L89.6344 175.237L55.9548 175.182L22.2751 175.028Z" fill="#263238"/>
<path d="M88.052 128.785L89.4713 137.139L99.086 188.105H100.637L93.6475 137.139L92.6113 128.785H88.052Z" fill="#DBDBDB"/>
<path d="M92.6113 128.785H88.052L89.4713 137.139H93.6475L92.6113 128.785Z" fill="#A6A6A6"/>
<path d="M57.8704 188.105H59.4215L69.0299 137.139L70.4492 128.785H65.8899L64.86 137.139L57.8704 188.105Z" fill="#DBDBDB"/>
<path d="M65.8898 128.785L64.8599 137.139H69.0298L70.4491 128.785H65.8898Z" fill="#A6A6A6"/>
<path d="M29.0388 188.105H30.59L40.1984 137.139L41.6177 128.785H37.0647L36.0285 137.139L29.0388 188.105Z" fill="#DBDBDB"/>
<path d="M36.0286 137.139H40.1985L41.6178 128.785H37.0648L36.0286 137.139Z" fill="#A6A6A6"/>
<path d="M31.4944 132.706H101.931V125.424H75.5611L66.7001 74.8035H34.1822L31.4944 132.706Z" fill="#DBDBDB"/>
<path d="M31.4944 132.706H35.3377L37.8372 74.8035H34.1822L31.4944 132.706Z" fill="#A6A6A6"/>
<path d="M104.581 197.033C103.18 197.206 64.954 188.451 63.7106 187.267C63.5599 187.137 65.3685 179.93 65.3685 179.93C65.9965 176.964 75.9189 152.757 75.9189 152.757L100.913 158.812L90.3252 181.249C90.3252 181.249 95.0855 184.412 99.18 187.415C100.987 188.667 102.716 190.026 104.355 191.484C105.586 192.939 105.975 196.873 104.581 197.033Z" fill="#EB9481"/>
<path d="M104.575 197.033C103.18 197.206 64.954 188.451 63.7106 187.267C63.5599 187.137 65.3685 179.93 65.3685 179.93C65.5695 178.955 66.7752 175.681 68.3138 171.723L92.2281 177.198L90.3441 181.249C90.3441 181.249 95.1106 184.418 99.2051 187.415C101.017 188.664 102.747 190.023 104.386 191.484C105.586 192.945 105.975 196.873 104.575 197.033Z" fill="#EBEBEB"/>
<path d="M104.688 197.138C103.243 197.286 64.703 188.808 63.447 187.569C62.9635 187.113 66.3798 174.923 66.3986 174.849L91.0602 180.201L90.9597 180.614C90.9597 180.614 103.35 189.943 104.587 191.441C105.824 192.939 106.132 196.996 104.688 197.138Z" fill="#455A64"/>
<path d="M92.9442 180.491C90.495 179.461 87.2922 179.159 84.9183 180.491C84.8304 180.54 84.9183 180.669 84.9937 180.663C87.6133 180.425 90.2515 180.464 92.8625 180.78C92.8941 180.775 92.9235 180.761 92.9472 180.74C92.9709 180.718 92.988 180.691 92.9966 180.661C93.0051 180.63 93.0047 180.598 92.9955 180.568C92.9862 180.538 92.9684 180.511 92.9442 180.491V180.491Z" fill="#263238"/>
<path d="M97.5161 175.755C96.819 174.183 94.8094 174.38 93.5408 175.022C91.3859 176.168 89.5755 177.85 88.2907 179.899C88.2843 179.908 88.2801 179.918 88.2785 179.929C88.277 179.939 88.2781 179.95 88.2818 179.961C88.2855 179.971 88.2916 179.98 88.2998 179.988C88.3079 179.995 88.3177 180.001 88.3284 180.004C88.297 180.195 88.4226 180.435 88.6613 180.404C90.9472 180.102 93.4278 180.059 95.5693 179.072C96.7939 178.505 98.1692 177.247 97.5161 175.755ZM92.0273 179.251C90.9095 179.424 89.7854 179.547 88.6738 179.763C89.6705 178.783 90.7186 177.855 91.8138 176.982C92.3495 176.567 92.9117 176.186 93.4969 175.842C94.4137 175.33 97.7547 174.553 96.6745 177.204C96.0842 178.666 93.365 179.042 92.0273 179.251Z" fill="#263238"/>
<path d="M81.9414 177.815C83.8254 179.159 86.2809 179.664 88.4726 180.355C88.5225 180.366 88.5743 180.365 88.6238 180.352C88.6733 180.34 88.7191 180.316 88.7576 180.283C88.796 180.25 88.8261 180.209 88.8453 180.163C88.8646 180.116 88.8724 180.066 88.8683 180.016C88.8794 180.016 88.8903 180.013 88.9 180.007C88.9097 180.002 88.918 179.995 88.9242 179.986C88.9304 179.977 88.9342 179.966 88.9354 179.955C88.9366 179.945 88.9351 179.934 88.9311 179.923C88.0491 177.678 86.5806 175.701 84.6732 174.189C83.5491 173.326 81.6086 172.777 80.6289 174.189C79.6492 175.601 80.8299 177.056 81.9414 177.815ZM81.2004 175.774C80.6289 172.975 83.7689 174.337 84.5728 175.003C85.0936 175.448 85.5825 175.928 86.036 176.44C86.9464 177.494 87.8016 178.593 88.5982 179.732C87.5432 179.319 86.463 178.998 85.3892 178.629C84.0955 178.172 81.5144 177.315 81.2004 175.774V175.774Z" fill="#263238"/>
<path d="M92.2785 180.404L65.6136 174.547C65.6136 174.547 87.5936 124.462 85.6593 121.928C84.6859 120.658 59.9867 120.288 52.1304 113.753C41.9254 105.268 48.7706 92.2958 48.7706 92.2958L76.3524 91.4942C76.3524 91.4942 76.0195 97.1544 77.0997 98.0052C77.8093 98.5725 110.673 101.285 114.284 112.186C118.692 125.492 92.2785 180.404 92.2785 180.404Z" fill="#263238"/>
<path d="M93.0384 175.669C92.335 175.379 85.4522 173.462 83.9073 173.079C80.805 172.296 77.6964 171.532 74.5752 170.81C72.9487 170.434 69.4633 169.62 69.256 169.639C69.2375 169.644 69.2211 169.655 69.2094 169.67C69.1977 169.685 69.1914 169.703 69.1914 169.722C69.1914 169.741 69.1977 169.759 69.2094 169.774C69.2211 169.789 69.2375 169.8 69.256 169.805C72.2956 170.736 75.3728 171.55 78.4437 172.37C81.5146 173.19 92.0776 175.724 92.9944 175.829C93.0698 175.823 93.1389 175.712 93.0384 175.669Z" fill="#37474F"/>
<path d="M90.3756 119.715C89.7467 119.336 89.0283 119.123 88.2907 119.098L76.3587 117.131C72.6346 116.515 68.8918 115.972 65.1803 115.282C62.1094 114.702 58.9882 113.919 56.3317 112.285C53.7041 110.669 51.7629 108.171 50.8682 105.256C50.0264 102.359 49.7872 99.3245 50.1648 96.3344C50.2401 95.6068 50.372 94.8792 50.5102 94.164C50.5102 94.1526 50.5056 94.1416 50.4973 94.1335C50.4891 94.1254 50.4779 94.1208 50.4662 94.1208C50.4546 94.1208 50.4434 94.1254 50.4351 94.1335C50.4269 94.1416 50.4223 94.1526 50.4223 94.164C49.4175 99.7132 49.3233 106.144 53.5623 110.565C55.6284 112.723 58.4607 113.987 61.3557 114.807C64.665 115.633 68.0199 116.271 71.4038 116.718L83.3358 118.679C85.2198 118.987 87.198 119.234 89.1008 119.622C89.4825 119.674 89.8416 119.83 90.137 120.072C90.2752 120.268 90.3629 120.494 90.3924 120.73C90.422 120.966 90.3925 121.206 90.3066 121.429C90.1119 122.354 89.8607 123.279 89.5906 124.167C87.4178 131.442 72.7477 166.186 72.3144 166.988C72.2704 167.068 72.4086 167.136 72.4525 167.055C76.1075 160.668 86.7332 133.834 89.151 126.947C89.7874 125.196 90.3097 123.406 90.7148 121.589C90.878 120.911 90.9597 120.171 90.3756 119.715Z" fill="#37474F"/>
<path d="M156.642 197.434C155.304 197.878 117.047 197.348 115.59 196.435C115.025 195.905 114.572 191.102 114.227 185.127L107.646 159.502L132.257 159.305L139.466 184.751C139.466 184.751 144.779 186.921 149.401 189.067C151.429 189.939 153.4 190.931 155.304 192.039C156.793 193.229 157.98 197.002 156.642 197.434Z" fill="#EB9481"/>
<path d="M145.746 178.086C144.723 176.692 142.801 177.303 141.702 178.203C139.847 179.774 138.445 181.796 137.639 184.067C137.635 184.077 137.633 184.088 137.634 184.099C137.636 184.11 137.639 184.12 137.646 184.129C137.652 184.138 137.66 184.146 137.67 184.151C137.68 184.156 137.69 184.159 137.702 184.159C137.699 184.209 137.708 184.26 137.729 184.305C137.75 184.351 137.781 184.392 137.821 184.423C137.861 184.455 137.908 184.476 137.958 184.486C138.009 184.496 138.061 184.494 138.11 184.48C140.276 183.709 142.694 183.142 144.553 181.736C145.639 180.916 146.713 179.405 145.746 178.086ZM141.149 182.649C140.094 183.056 139.027 183.407 138.009 183.851C138.807 182.71 139.548 181.539 140.458 180.478C140.889 179.96 141.354 179.472 141.853 179.017C142.638 178.32 145.727 176.859 145.256 179.671C144.968 181.224 142.412 182.162 141.149 182.649V182.649Z" fill="#263238"/>
<path d="M130.982 183.364C133.142 184.276 135.623 184.246 137.89 184.474C138.129 184.474 138.248 184.252 138.21 184.061C138.218 184.054 138.225 184.046 138.229 184.037C138.233 184.028 138.236 184.018 138.236 184.008C138.236 183.998 138.233 183.988 138.229 183.979C138.225 183.97 138.218 183.962 138.21 183.956C136.861 181.948 134.996 180.325 132.803 179.251C131.516 178.635 129.5 178.511 128.859 180.108C128.219 181.705 129.726 182.834 130.982 183.364ZM129.814 181.514C128.646 178.9 132.012 179.572 132.954 180.059C133.552 180.38 134.127 180.741 134.675 181.138C135.824 181.952 136.835 182.901 137.896 183.82C136.772 183.641 135.648 183.555 134.524 183.413C133.168 183.259 130.455 182.969 129.814 181.526V181.514Z" fill="#263238"/>
<path d="M141.878 183.839H113.159C113.159 183.839 100.863 135.955 98.7153 133.224C95.814 129.592 55.2263 129.673 46.5223 117.81C38.7037 107.161 45.3039 92.0861 45.3039 92.0861L75.988 91.1859C75.2958 94.4183 74.3424 97.5913 73.1369 100.675C73.1369 100.675 110.189 107.383 120.576 118.482C127.559 126.022 141.878 183.839 141.878 183.839Z" fill="#263238"/>
<path d="M78.5 98.6095C77.6074 98.8033 76.7349 99.0778 75.8938 99.4295C75.0146 99.7563 74.1417 100.132 73.2939 100.539C71.6258 101.352 70.0032 102.251 68.4332 103.234C68.3829 103.265 68.4332 103.332 68.4834 103.308C70.1413 102.457 71.862 101.699 73.5828 100.971L76.0948 99.9228C76.9514 99.6033 77.7899 99.239 78.6068 98.8314C78.7072 98.7513 78.6507 98.5848 78.5 98.6095Z" fill="#37474F"/>
<path d="M76.6853 91.1674C76.3336 92.5424 76.0196 93.9297 75.6239 95.2923C75.4355 95.9089 75.2534 96.5563 74.9959 97.142C74.795 97.6538 74.481 98.2395 73.8781 98.3752C73.181 98.5047 72.9863 97.9189 73.0429 97.3578C73.0994 96.7967 73.2689 96.0938 73.3945 95.4773C73.539 94.762 73.6897 94.0468 73.8216 93.3316C73.8844 92.974 73.9535 92.6164 74.0163 92.2587C74.0163 92.1663 74.1042 91.4819 74.1544 91.2846C74.1544 91.2846 74.1544 91.3154 74.1921 91.3154C74.2021 91.3154 74.2117 91.3115 74.2187 91.3045C74.2258 91.2976 74.2298 91.2882 74.2298 91.2784C74.2298 91.2229 74.2298 91.2167 74.2298 91.1736C74.2205 91.1675 74.2096 91.1642 74.1984 91.1642C74.1872 91.1642 74.1763 91.1675 74.167 91.1736C74.0288 91.2414 74.0225 91.4202 73.9786 91.5558C73.8655 91.9011 73.7525 92.2526 73.6457 92.604C73.4511 93.2576 73.2627 93.9173 73.0931 94.5771C72.9235 95.2368 72.7603 95.9027 72.5907 96.5686C72.4167 97.0593 72.3692 97.5846 72.4525 98.0977C72.5151 98.3416 72.6567 98.5589 72.8561 98.7169C73.0555 98.8748 73.3018 98.9648 73.5578 98.9732C73.5578 99.0226 73.5013 99.0657 73.4825 99.1089C73.4197 99.2445 73.3757 99.3925 73.3255 99.5282C73.2752 99.6638 73.225 99.8118 73.181 99.9598C73.1623 100.028 73.1497 100.099 73.1433 100.169C73.1433 100.25 73.1433 100.33 73.1433 100.41C73.1406 100.436 73.1471 100.463 73.1616 100.485C73.1761 100.507 73.1979 100.524 73.2234 100.532C73.2488 100.541 73.2765 100.541 73.3019 100.532C73.3272 100.523 73.3488 100.506 73.3631 100.484C73.4008 100.416 73.4511 100.361 73.495 100.293C73.5349 100.22 73.5685 100.143 73.5955 100.065C73.6395 99.9228 73.6834 99.7871 73.7148 99.6453C73.7462 99.5035 73.7965 99.3678 73.8216 99.226C73.8281 99.1419 73.8281 99.0574 73.8216 98.9732C74.1154 98.9501 74.3964 98.8453 74.6317 98.6711C75.0266 98.3476 75.3187 97.9196 75.4732 97.438C75.6805 96.8646 75.8437 96.2726 76.0133 95.6869C76.4387 94.2368 76.737 92.7537 76.9051 91.2537C76.949 91.0626 76.7229 91.0071 76.6853 91.1674Z" fill="#37474F"/>
<path d="M138.907 178.807C138.142 178.72 137.373 178.672 136.603 178.665C135.799 178.629 134.989 178.598 134.178 178.573C132.59 178.53 130.994 178.499 129.406 178.493C126.203 178.493 122.994 178.493 119.791 178.53C118.12 178.561 114.535 178.604 114.34 178.665C114.318 178.665 114.298 178.674 114.282 178.689C114.267 178.704 114.258 178.724 114.258 178.746C114.258 178.767 114.267 178.787 114.282 178.802C114.298 178.817 114.318 178.826 114.34 178.826C117.518 178.992 120.702 179.042 123.892 179.103C127.082 179.165 130.253 179.208 133.431 179.153C134.317 179.153 135.196 179.109 136.075 179.085C137.006 179.092 137.937 179.053 138.863 178.968C138.976 178.955 139.014 178.82 138.907 178.807Z" fill="#37474F"/>
<path d="M102.038 133.619C101.772 132.753 101.367 131.935 100.838 131.195C100.198 130.568 99.375 130.152 98.4832 130.005C90.8278 127.946 82.9276 127.021 75.1404 125.578C71.3005 124.901 67.5065 123.993 63.7799 122.859C59.9956 121.757 56.3794 120.16 53.0285 118.112C51.3911 117.081 50.0351 115.674 49.0784 114.012C48.1835 112.412 47.5478 110.686 47.1944 108.894C46.3528 104.808 46.3528 100.599 47.1944 96.5131C47.4019 95.4947 47.6661 94.4882 47.9857 93.4981C47.9857 93.4364 47.904 93.4118 47.8852 93.4981C46.4445 97.4358 45.8543 101.625 46.1519 105.799C46.4345 109.43 47.3263 113.247 49.7127 116.12C50.9448 117.52 52.4366 118.677 54.1087 119.53C55.8581 120.475 57.6661 121.311 59.522 122.033C63.1446 123.414 66.8744 124.507 70.6753 125.301C78.4437 126.99 86.3753 127.841 94.1374 129.537C95.0919 129.746 96.0214 129.968 97.0011 130.209C97.9819 130.364 98.9327 130.666 99.8208 131.103C100.738 131.664 101.077 132.786 101.41 133.723C101.805 134.759 114.29 176.267 114.598 177.284C114.61 177.317 114.634 177.345 114.666 177.36C114.698 177.376 114.735 177.379 114.769 177.369C114.803 177.358 114.832 177.336 114.849 177.305C114.866 177.274 114.871 177.238 114.861 177.204C113.825 172.944 102.848 135.653 102.038 133.619Z" fill="#37474F"/>
<path d="M99.7704 134.722C99.4753 133.816 99.2241 132.873 98.3637 132.293C97.5034 131.713 85.2134 130.129 83.8318 129.919C83.769 129.919 83.7439 130.005 83.8318 130.018C85.0187 130.209 96.3918 132.207 97.384 132.54C97.8157 132.66 98.2006 132.905 98.4893 133.242C98.786 133.707 98.9985 134.218 99.1173 134.753C99.469 135.832 99.8144 136.911 100.166 137.99C100.863 140.16 101.567 142.306 102.232 144.501C102.986 146.967 103.846 149.557 104.499 152.054C104.55 152.245 104.826 152.153 104.788 151.968C103.922 147.282 100.135 135.851 99.7704 134.722Z" fill="#37474F"/>
<path d="M73.3129 100.749C78.9871 101.418 84.5954 102.546 90.0805 104.122C95.6075 105.642 101.014 107.557 106.258 109.85C109.197 111.144 112.048 112.593 114.868 114.116C114.924 114.147 114.868 114.227 114.817 114.196C109.728 111.615 104.47 109.366 99.0797 107.463C93.7313 105.548 88.2574 103.988 82.6952 102.796C79.5552 102.13 76.4152 101.612 73.2752 101.094C73.0429 101.082 73.0994 100.724 73.3129 100.749Z" fill="#37474F"/>
<path d="M72.3205 65.7029C75.2282 72.0598 86.6138 92.5362 93.5909 93.7447C98.169 94.5339 116.45 92.0738 119.433 87.6838C120.733 85.7785 117.882 72.886 115.458 73.5025C113.034 74.1191 98.4014 76.5854 96.5739 76.1538C94.7464 75.7222 80.585 60.9553 75.36 57.3483C66.3859 51.1394 70.7505 62.2747 72.3205 65.7029Z" fill="#EB9481"/>
<path d="M109.9 72.812L111.074 92.2526C111.074 92.2526 96.6305 95.4218 90.3505 93.307C82.6826 90.742 71.3912 67.5033 69.84 63.6805C67.328 57.41 67.956 53.6057 71.5545 54.5182C72.9423 54.8635 74.7698 55.9302 77.0118 57.8539C79.3605 59.8578 92.8374 72.8737 97.1078 75.3276C99.4125 76.7026 109.9 72.812 109.9 72.812Z" fill="#FFEB3B"/>
<path opacity="0.6" d="M109.9 72.812L111.074 92.2526C111.074 92.2526 96.6305 95.4218 90.3505 93.307C82.6826 90.742 71.3912 67.5033 69.84 63.6805C67.328 57.41 67.956 53.6057 71.5545 54.5182C72.9423 54.8635 74.7698 55.9302 77.0118 57.8539C79.3605 59.8578 92.8374 72.8737 97.1078 75.3276C99.4125 76.7026 109.9 72.812 109.9 72.812Z" fill="black"/>
<path d="M107.332 91.5744C107.068 88.7073 106.434 76.9307 106.471 74.3781C106.471 74.2055 106.591 74.1623 106.609 74.3473C107.608 82.9177 107.332 88.732 107.445 91.5559C107.445 91.6299 107.338 91.6484 107.332 91.5744Z" fill="#263238"/>
<path opacity="0.6" d="M104.92 93.3255C100.21 93.9975 93.9175 94.5216 90.2939 93.3255C82.6323 90.7605 71.3409 67.5218 69.7897 63.699C67.2777 57.4285 67.9057 53.6242 71.5042 54.5429C71.6167 54.568 71.7278 54.5989 71.837 54.6354L104.92 93.3255Z" fill="black"/>
<path d="M81.9479 97.9313C81.0812 98.7637 43.8471 102.568 43.6399 102.321C43.15 101.662 50.1083 67.3553 64.9919 55.5356C67.6169 53.4516 72.0003 54.3025 73.9848 55.5788C74.9771 56.1953 77.7528 61.1279 78.5064 65.5118C79.26 69.8956 82.4942 97.4072 81.9479 97.9313Z" fill="#EBEBEB"/>
<path d="M66.0092 54.6785C66.0092 54.6785 70.0723 75.4078 70.2042 76.2586C70.3361 77.1095 69.7458 100.182 69.7458 100.182L42.1138 103.536C42.1138 103.536 45.2538 92.0738 45.4045 91.525C45.5552 90.9763 51.427 71.9611 57.7196 63.4339C63.4909 55.5911 66.0092 54.6785 66.0092 54.6785Z" fill="#FFEB3B"/>
<path opacity="0.6" d="M66.0092 54.6785C66.0092 54.6785 70.0723 75.4078 70.2042 76.2586C70.3361 77.1095 69.7458 100.182 69.7458 100.182L42.1138 103.536C42.1138 103.536 45.2538 92.0738 45.4045 91.525C45.5552 90.9763 51.427 71.9611 57.7196 63.4339C63.4909 55.5911 66.0092 54.6785 66.0092 54.6785Z" fill="black"/>
<path d="M74.6001 55.887C74.6001 55.887 77.3884 74.2733 77.4701 75.4324C77.5517 76.5916 79.6618 98.9548 79.6618 98.9548L83.0718 97.7216C83.0718 97.7216 81.1878 83.1643 80.9429 81.9003C80.698 80.6363 79.1343 67.1025 78.5377 64.5684C77.5894 60.5237 74.6001 55.887 74.6001 55.887Z" fill="#FFEB3B"/>
<path opacity="0.6" d="M74.6001 55.887C74.6001 55.887 77.3884 74.2733 77.4701 75.4324C77.5517 76.5916 79.6618 98.9548 79.6618 98.9548L83.0718 97.7216C83.0718 97.7216 81.1878 83.1643 80.9429 81.9003C80.698 80.6363 79.1343 67.1025 78.5377 64.5684C77.5894 60.5237 74.6001 55.887 74.6001 55.887Z" fill="black"/>
<path d="M108.412 91.932L85.4646 94.2318L93.1764 64.2539L116.117 61.9603L108.412 91.932Z" fill="#EBEBEB"/>
<path d="M117.103 67.2505C118.397 69.6551 121.499 72.59 121.838 74.5877C121.939 75.076 121.876 75.5831 121.659 76.0333C121.441 76.4834 121.081 76.8523 120.633 77.0849C120.633 77.0849 122.711 78.0035 122.705 79.8656C122.705 80.8213 121.141 81.6598 121.141 81.6598C121.603 81.8923 121.99 82.2459 122.259 82.6812C122.529 83.1166 122.67 83.6167 122.667 84.1261C122.579 85.4394 121.028 86.0807 121.028 86.0807C121.028 86.0807 122.234 87.5728 121.706 88.8861C120.639 91.5559 109.096 92.0183 107.143 87.9181C106.233 86.0067 109.027 86.0683 109.027 86.0683C109.027 86.0683 104.977 85.051 104.82 82.7142C104.663 80.3774 108.324 80.6487 108.324 80.6487C108.324 80.6487 104.411 79.6313 104.499 77.1958C104.587 74.6617 108.204 75.5434 108.204 75.5434C108.204 75.5434 105.567 73.9403 106.069 72.0906C106.892 69.0077 111.91 72.6332 114.422 71.9426L115.646 67.7807L117.103 67.2505Z" fill="#EB9481"/>
<path d="M119.565 70.7218C118.548 68.3356 121.48 65.2219 120.821 62.805C119.954 59.531 116.306 62.9221 115.659 67.7376L115.835 71.5727L119.565 70.7218Z" fill="#EB9481"/>
<path d="M120.802 86.2102C120.81 86.2102 120.818 86.2134 120.824 86.2192C120.83 86.225 120.834 86.2328 120.834 86.241C120.834 86.2492 120.83 86.257 120.824 86.2628C120.818 86.2686 120.81 86.2718 120.802 86.2718C116.894 87.3905 112.732 87.313 108.87 86.0498C108.751 86.0067 108.77 85.797 108.908 85.8155C112.832 86.5169 116.839 86.6498 120.802 86.2102V86.2102Z" fill="#263238"/>
<path d="M121.204 81.6784C121.248 81.6784 121.261 81.7462 121.204 81.7585C117.323 82.8314 112.299 82.7327 108.217 80.7288C108.079 80.661 108.022 80.4575 108.217 80.5254C111.018 81.6599 117.499 82.1408 121.204 81.6784Z" fill="#263238"/>
<path d="M108.016 75.2783C112.01 77.0479 116.18 77.3931 120.507 77.128C120.564 77.128 120.564 77.202 120.507 77.2143C118.422 77.9049 115.646 77.7878 113.492 77.5103C111.488 77.2955 109.576 76.5685 107.947 75.4016C107.859 75.3646 107.903 75.2351 108.016 75.2783Z" fill="#263238"/>
<path d="M57.5249 62.3734C46.4282 74.674 33.9938 95.354 39.4637 99.6823C44.4877 103.635 62.4924 99.6207 73.809 95.1382C75.963 94.2811 70.9579 75.4078 68.5652 76.0552C64.4329 77.1773 57.8892 79.9088 57.6254 79.9889C56.9974 80.1616 59.9867 72.8243 63.6479 63.921C67.7362 53.9941 63.874 55.3321 57.5249 62.3734Z" fill="#EB9481"/>
<path d="M92.7054 75.5188C92.6625 75.9931 92.5 76.4495 92.2325 76.8467C91.9649 77.2439 91.6008 77.5695 91.1731 77.7939C91.9327 78.3692 92.4636 79.1871 92.674 80.1061C92.9692 81.74 90.4885 82.9115 90.4885 82.9115C91.1512 83.6679 91.5669 84.6023 91.6818 85.5936C91.8011 87.1844 89.4712 88.7135 89.4712 88.7135C89.6889 89.7387 89.524 90.8066 89.0065 91.7223C87.5181 94.1085 73.162 95.9397 71.2215 96.1062L67.7612 76.4313C67.7612 76.4313 79.9758 70.4382 83.2414 70.8205C85.9921 71.1472 92.944 72.6209 92.7054 75.5188Z" fill="#EB9481"/>
<path d="M91.1291 77.7323C88.2905 76.6964 85.207 76.3326 82.2303 76.012C82.2192 76.0158 82.2096 76.0229 82.2028 76.0323C82.196 76.0417 82.1924 76.0529 82.1924 76.0644C82.1924 76.076 82.196 76.0872 82.2028 76.0966C82.2096 76.106 82.2192 76.1131 82.2303 76.1168C85.2008 76.4005 88.1586 77.4671 91.1102 77.8679C91.1286 77.8704 91.1471 77.8656 91.1619 77.8546C91.1766 77.8436 91.1863 77.8273 91.1887 77.8093C91.1912 77.7914 91.1864 77.7731 91.1752 77.7587C91.164 77.7442 91.1474 77.7347 91.1291 77.7323Z" fill="#263238"/>
<path d="M90.4321 82.6834C89.7645 82.5075 89.076 82.4204 88.3848 82.4244C87.6563 82.3813 86.9216 82.3504 86.1931 82.3319C84.7299 82.2949 83.2666 82.2888 81.7971 82.3319C81.728 82.3319 81.7155 82.4306 81.7971 82.4306C83.2541 82.4676 84.7173 82.5292 86.1931 82.634C86.9216 82.6834 87.6501 82.7389 88.3785 82.8005C89.0622 82.9011 89.755 82.9279 90.4447 82.8807C90.465 82.8722 90.4821 82.8577 90.4937 82.8393C90.5054 82.8208 90.5109 82.7993 90.5095 82.7777C90.5081 82.756 90.4999 82.7353 90.4861 82.7184C90.4722 82.7016 90.4533 82.6893 90.4321 82.6834V82.6834Z" fill="#263238"/>
<path d="M89.4084 88.7135C88.7934 88.5598 88.1557 88.5139 87.5244 88.5778H85.5211C84.1835 88.5778 82.8521 88.5347 81.5207 88.4669C81.4517 88.4669 81.4454 88.5655 81.5207 88.5717C82.8772 88.6457 84.2274 88.7381 85.5839 88.7998L87.5747 88.8861C88.1801 88.9629 88.7946 88.9337 89.3896 88.7998C89.3896 88.7998 89.4335 88.7196 89.4084 88.7135Z" fill="#263238"/>
<path d="M62.9947 56.9413C54.9249 61.8308 34.1569 90.6125 37.9752 98.5293C41.7934 106.446 67.8366 97.7278 67.8366 97.7278L65.5318 76.2278C65.5318 76.2278 58.6866 80.0074 58.4605 79.6683C58.2344 79.3292 62.2285 69.5071 63.8488 65.4871C65.469 61.467 67.2902 54.3579 62.9947 56.9413Z" fill="#FFEB3B"/>
<path opacity="0.6" d="M62.9947 56.9413C54.9249 61.8308 34.1569 90.6125 37.9752 98.5293C41.7934 106.446 67.8366 97.7278 67.8366 97.7278L65.5318 76.2278C65.5318 76.2278 58.6866 80.0074 58.4605 79.6683C58.2344 79.3292 62.2285 69.5071 63.8488 65.4871C65.469 61.467 67.2902 54.3579 62.9947 56.9413Z" fill="black"/>
<path d="M64.5397 96.5131C64.0561 93.6707 62.5175 81.9805 62.3542 79.4278C62.3542 79.2552 62.4547 79.2059 62.4924 79.3847C64.144 87.8626 64.3262 93.6769 64.6527 96.4885C64.6841 96.5563 64.5522 96.5809 64.5397 96.5131Z" fill="#263238"/>
<path d="M65.3748 76.2463C64.6164 76.5241 63.8797 76.8559 63.1705 77.239C62.5425 77.5596 61.9145 77.8556 61.2488 78.2008C59.861 78.9099 58.4856 79.6498 57.1229 80.3959C55.7601 81.1419 54.3974 81.9065 53.0534 82.6895C51.7095 83.4726 50.4158 84.3296 49.0719 85.1127C49.0091 85.1496 49.0719 85.236 49.1347 85.199C50.4975 84.4406 51.9168 83.7685 53.2984 83.041L57.3678 80.8706C58.718 80.1616 60.0808 79.4587 61.431 78.7434L63.4154 77.6829C64.1414 77.3313 64.8422 76.9317 65.513 76.4868C65.5294 76.463 65.5387 76.4353 65.5399 76.4066C65.5411 76.3779 65.5341 76.3495 65.5198 76.3245C65.5054 76.2995 65.4842 76.279 65.4586 76.2651C65.433 76.2513 65.404 76.2448 65.3748 76.2463V76.2463Z" fill="#263238"/>
<path d="M63.0765 70.0744C62.6557 70.5985 62.2412 71.1288 61.8205 71.6775C61.7451 71.7823 61.6823 71.8871 61.6069 71.9858C61.7137 71.7083 61.8205 71.4247 61.9335 71.1411C62.3494 70.1667 62.71 69.1704 63.0137 68.1569C63.0137 68.1137 62.9571 68.089 62.932 68.1569C62.4221 69.1397 61.9651 70.1482 61.563 71.1781C61.1359 72.1708 60.7026 73.1573 60.307 74.1561C59.9113 75.155 59.478 76.1477 59.0887 77.1527C58.6684 78.1299 58.32 79.1354 58.0462 80.1616C58.0457 80.1732 58.049 80.1847 58.0556 80.1944C58.0622 80.2042 58.0717 80.2116 58.0828 80.2157C58.0939 80.2198 58.1061 80.2203 58.1176 80.2173C58.129 80.2142 58.1392 80.2076 58.1467 80.1986C58.7003 79.2269 59.1769 78.2147 59.5722 77.1712C59.993 76.1785 60.3886 75.1673 60.8282 74.1685C60.9978 73.7492 61.1611 73.3299 61.3181 72.9353C61.3934 72.8428 61.4625 72.7442 61.5316 72.6517C61.7263 72.3927 61.9084 72.1214 62.0905 71.844C62.4547 71.2829 62.8001 70.7033 63.1393 70.1237C63.1204 70.0744 63.089 70.0559 63.0765 70.0744Z" fill="#263238"/>
<path d="M67.8868 97.253C67.8868 97.1112 67.7926 97.0804 67.7675 97.253C67.7424 97.4257 67.7675 97.4935 67.7298 97.5798C66.8443 97.8141 63.6039 98.7821 62.8126 99.0164C61.1484 99.4974 59.4779 99.9228 57.7886 100.293C56.0993 100.663 54.3848 100.977 52.6704 101.242C50.9559 101.507 49.2352 101.779 47.5082 101.89C47.4391 101.89 47.4454 101.994 47.5082 101.994C49.2666 101.902 51.0187 101.853 52.7709 101.655C54.523 101.458 56.1935 101.181 57.8828 100.835C59.5721 100.49 61.3117 100.046 62.9947 99.5467C63.8362 99.2939 64.6715 99.0164 65.5067 98.7328C66.3156 98.5013 67.0984 98.1893 67.8429 97.8018C67.8713 97.7857 67.8946 97.7622 67.9101 97.7339C67.9256 97.7056 67.9328 97.6736 67.9308 97.6415L67.8868 97.253Z" fill="#263238"/>
<path d="M72.848 61.393C70.7002 61.8493 67.083 58.5876 65.6762 55.9672C65.582 55.7884 66.4612 48.6793 66.4801 47.2488C66.4801 46.959 75.5673 49.5733 75.5673 49.5733C75.0164 51.3483 74.6895 53.183 74.5938 55.0361C74.5938 55.2458 74.9204 60.9429 72.848 61.393Z" fill="#EB9481"/>
<path d="M75.5737 49.5733C75.5737 49.6165 75.5046 49.7891 75.4293 50.0666C75.2974 50.5475 75.0902 51.2997 74.9206 52.2123C74.7334 53.141 74.6262 54.0836 74.6003 55.03C74.6003 55.0978 74.6003 55.1657 74.6003 55.2273V55.2581C74.6003 55.3753 74.6003 55.5294 74.6003 55.7144C74.3045 55.7493 74.0063 55.7617 73.7086 55.7514C68.7474 55.5603 67.1774 49.5487 66.7566 47.2427L66.9136 47.2735C67.1522 47.3105 67.4662 47.3845 67.8493 47.4708L68.1382 47.5448C68.7662 47.6928 69.4633 47.8839 70.2169 48.075L70.9642 48.2785L72.553 48.7163L73.181 48.8951C73.4071 48.9506 73.6269 49.0184 73.809 49.0739L74.1042 49.1541L74.2486 49.1972L74.9959 49.413L75.3602 49.5117L75.5109 49.561L75.5737 49.5733Z" fill="#263238"/>
<path d="M65.94 36.5759C64.684 39.6588 65.5883 48.9074 67.7047 51.1579C70.7756 54.3887 76.189 55.1225 79.0903 51.4169C81.8975 47.8284 80.497 35.762 78.0981 33.6965C74.575 30.6568 67.824 32.0318 65.94 36.5759Z" fill="#EB9481"/>
<path d="M74.5877 42.6862C74.5877 42.6862 74.5375 42.7231 74.5438 42.7478C74.638 43.3644 74.6443 44.0981 74.0979 44.3694C74.0979 44.3694 74.0979 44.4126 74.0979 44.4064C74.795 44.2276 74.7824 43.2596 74.5877 42.6862Z" fill="#263238"/>
<path d="M73.9407 42.1004C72.9108 42.1436 73.0741 44.1659 74.0287 44.1289C74.9832 44.092 74.8011 42.0634 73.9407 42.1004Z" fill="#263238"/>
<path d="M78.2865 42.495C78.2865 42.495 78.3368 42.495 78.3368 42.5443C78.3682 43.1609 78.5126 43.8885 79.1092 44.0488V44.0858C78.3933 44.0426 78.2112 43.0931 78.2865 42.495Z" fill="#263238"/>
<path d="M78.8016 41.7983C79.819 41.638 80.0576 43.648 79.1219 43.796C78.1862 43.944 77.9475 41.9278 78.8016 41.7983Z" fill="#263238"/>
<path d="M73.0491 41.2433C73.3254 41.1509 73.564 41.0214 73.8278 40.9042C74.116 40.8198 74.3692 40.647 74.55 40.411C74.5898 40.3251 74.6004 40.2289 74.58 40.1367C74.5596 40.0445 74.5095 39.9612 74.4369 39.8992C74.2707 39.802 74.0809 39.7507 73.8874 39.7507C73.694 39.7507 73.5042 39.802 73.3379 39.8992C72.9698 40.0368 72.6658 40.3023 72.4839 40.6453C72.4536 40.7246 72.4464 40.8106 72.4631 40.8936C72.4798 40.9767 72.5197 41.0536 72.5784 41.1156C72.6371 41.1777 72.7121 41.2225 72.7953 41.2451C72.8784 41.2676 72.9663 41.267 73.0491 41.2433V41.2433Z" fill="#A6A6A6"/>
<path d="M79.5112 40.7193C79.2302 40.6854 78.9513 40.636 78.676 40.5713C78.3756 40.5612 78.0867 40.4551 77.8533 40.2692C77.7966 40.1932 77.7661 40.1014 77.7661 40.0072C77.7661 39.913 77.7966 39.8212 77.8533 39.7451C77.9889 39.6099 78.1585 39.5125 78.345 39.4627C78.5314 39.4128 78.728 39.4124 78.9146 39.4615C79.3081 39.5021 79.6714 39.6871 79.932 39.9794C79.9874 40.051 80.0203 40.137 80.0267 40.2267C80.0331 40.3164 80.0127 40.406 79.9681 40.4845C79.9234 40.563 79.8564 40.627 79.7753 40.6688C79.6941 40.7105 79.6024 40.728 79.5112 40.7193V40.7193Z" fill="#A6A6A6"/>
<path d="M74.4746 48.5437C74.6379 48.6793 74.8075 48.8643 75.0398 48.8704C75.2768 48.8457 75.5057 48.7721 75.7118 48.6546C75.7118 48.6546 75.7558 48.6546 75.7118 48.6855C75.6305 48.8151 75.5155 48.9211 75.3786 48.9926C75.2418 49.0641 75.088 49.0986 74.9331 49.0924C74.8001 49.0687 74.6773 49.0068 74.58 48.9147C74.4828 48.8225 74.4155 48.7041 74.3867 48.5745C74.4056 48.5375 74.4495 48.5252 74.4746 48.5437Z" fill="#263238"/>
<path d="M74.9897 46.6137C75.1713 46.8488 75.4008 47.0442 75.6635 47.1875C75.9262 47.3308 76.2164 47.4189 76.5157 47.4461C76.776 47.483 77.0404 47.483 77.3007 47.4461C77.352 47.4419 77.4027 47.4316 77.4514 47.4153C77.4973 47.4203 77.5437 47.4203 77.5896 47.4153C77.6222 47.4059 77.6508 47.3865 77.6712 47.3598C77.6916 47.3331 77.7026 47.3006 77.7026 47.2673C77.7061 47.2469 77.7061 47.226 77.7026 47.2056V47.2056V47.1501C77.7026 46.6692 77.5707 45.917 77.5707 45.917C77.7591 45.991 78.7074 46.3178 78.6697 46.0711C78.4335 43.9015 77.9727 41.7613 77.2944 39.6834C77.2944 39.6687 77.2885 39.6546 77.2779 39.6442C77.2673 39.6338 77.2529 39.6279 77.2379 39.6279C77.2229 39.6279 77.2085 39.6338 77.1979 39.6442C77.1873 39.6546 77.1814 39.6687 77.1814 39.6834C77.3886 41.6935 77.9538 43.648 78.1925 45.658C77.8555 45.5339 77.5025 45.4571 77.1437 45.4299C77.0746 45.4299 77.3761 46.8357 77.3698 47.0577C76.9703 47.1281 76.5604 47.1191 76.1645 47.0312C75.7687 46.9433 75.3948 46.7783 75.065 46.5459C74.9959 46.5212 74.9457 46.5706 74.9897 46.6137Z" fill="#263238"/>
<path d="M76.9928 47.1995C76.7505 47.565 76.4178 47.8641 76.0257 48.0689C75.8066 48.1704 75.5616 48.2048 75.3223 48.1675C74.8074 48.0751 74.7571 47.6188 74.8136 47.218C74.8502 47.0063 74.9113 46.7995 74.9958 46.6014C75.5783 47.0071 76.2788 47.2169 76.9928 47.1995V47.1995Z" fill="#263238"/>
<path d="M76.0257 48.0689C75.8066 48.1704 75.5616 48.2047 75.3223 48.1675C74.8074 48.075 74.7571 47.6188 74.8136 47.218C75.0838 47.2049 75.3505 47.2818 75.5706 47.4363C75.7906 47.5907 75.951 47.8136 76.0257 48.0689V48.0689Z" fill="#FF9ABB"/>
<g opacity="0.2">
<path d="M75.7683 38.3825C76.1173 38.4102 76.4681 38.4102 76.8171 38.3825C77.1688 38.3825 77.5142 38.2653 77.8721 38.2468C78.5443 38.2426 79.2119 38.3553 79.844 38.5798C79.9006 38.5798 79.8943 38.6353 79.844 38.6168C79.1689 38.407 78.4563 38.3398 77.7528 38.4195C77.1851 38.5342 76.6036 38.5695 76.0258 38.5243C74.7205 38.3033 73.3775 38.4932 72.1887 39.0669C72.1887 39.0669 72.1887 39.0669 72.1887 39.0669C73.2867 38.4961 74.5324 38.2579 75.7683 38.3825V38.3825Z" fill="black"/>
<path d="M75.7119 37.4638C76.0416 37.4957 76.3731 37.506 76.7041 37.4946C77.037 37.4946 77.3321 37.3775 77.7027 37.359C78.3448 37.3578 78.9823 37.4663 79.5867 37.6796C79.6369 37.6796 79.6306 37.7289 79.5867 37.7166C78.9461 37.5172 78.2695 37.4541 77.6022 37.5316C77.0628 37.6364 76.5112 37.6675 75.9631 37.6241C74.7278 37.4148 73.4567 37.5961 72.3333 38.142C72.3333 38.142 72.3333 38.142 72.3333 38.142C73.3675 37.5961 74.5423 37.3602 75.7119 37.4638V37.4638Z" fill="black"/>
</g>
<path d="M79.5489 37.4021C76.321 39.628 71.8245 36.3663 71.8245 36.3663C71.5536 37.0655 71.0602 37.6604 70.4176 38.0625C69.775 38.4646 69.0175 38.6525 68.2575 38.5983C68.2575 38.5983 67.6797 44.0118 66.2228 44.0118C64.0122 44.0118 63.246 36.6622 63.9306 35.2071C64.6151 33.752 66.4865 33.3574 66.4865 33.3574C66.682 32.4771 67.212 31.7031 67.9686 31.1932C69.4695 30.0402 74.7008 31.5138 74.7008 31.5138C74.9938 30.8276 75.4453 30.2176 76.0196 29.7319C76.1576 29.6112 76.319 29.5191 76.4942 29.4613C76.6695 29.4035 76.8548 29.3811 77.0391 29.3955C77.2233 29.4099 77.4027 29.4608 77.5664 29.5451C77.7301 29.6294 77.8747 29.7454 77.9915 29.8861C77.7196 30.2884 77.5436 30.7457 77.4765 31.224C77.2316 32.8086 78.5504 32.7963 78.519 31.3597C78.5285 30.8223 78.3414 30.2994 77.9915 29.8861C78.6195 28.9427 79.6934 28.6529 80.3402 29.1215C81.5208 30.0279 82.2682 35.5586 79.5489 37.4021Z" fill="#A6A6A6"/>
<path d="M73.3128 46.5274C72.7583 46.5035 72.2218 46.3271 71.7644 46.0185C71.307 45.7099 70.947 45.2814 70.7254 44.7817C70.5039 44.2821 70.4296 43.7314 70.5112 43.1924C70.5927 42.6534 70.8268 42.1477 71.1867 41.7328C71.5466 41.318 72.018 41.0107 72.547 40.846C73.0761 40.6812 73.6416 40.6656 74.1793 40.8009C74.7169 40.9363 75.2051 41.2171 75.5881 41.6114C75.9712 42.0058 76.2338 42.4978 76.3461 43.0315V43.0315C76.4399 43.4655 76.431 43.9149 76.3199 44.345C76.2089 44.7751 75.9987 45.1745 75.7057 45.5123C75.4126 45.85 75.0444 46.1172 74.6296 46.2932C74.2147 46.4693 73.7642 46.5494 73.3128 46.5274V46.5274ZM73.5578 41.1016C73.3472 41.0942 73.1364 41.1107 72.9298 41.1509C72.2893 41.2802 71.7231 41.6445 71.3467 42.1694C70.9703 42.6944 70.812 43.3406 70.9041 43.9762C70.9962 44.6118 71.3317 45.189 71.8423 45.5901C72.3529 45.9912 73 46.186 73.6519 46.1348C74.3037 46.0836 74.9111 45.7902 75.3502 45.3145C75.7893 44.8388 76.0271 44.2166 76.0151 43.5747C76.0031 42.9328 75.7422 42.3196 75.2856 41.8601C74.829 41.4005 74.211 41.1292 73.5578 41.1016V41.1016Z" fill="#455A64"/>
<path d="M80.089 46.0157C78.9586 45.9602 77.9852 44.7825 77.8721 43.2657C77.8051 42.5431 77.9721 41.8181 78.3494 41.1941C78.4947 40.9187 78.7095 40.6846 78.9733 40.5141C79.2371 40.3435 79.5411 40.2423 79.8561 40.22C80.1711 40.1977 80.4867 40.2552 80.7727 40.3869C81.0586 40.5185 81.3054 40.72 81.4894 40.9721C81.9523 41.5363 82.2245 42.2281 82.2681 42.9513C82.3812 44.5544 81.4894 45.9232 80.2774 46.0342L80.089 46.0157ZM80.0387 40.596C79.9887 40.59 79.9381 40.59 79.888 40.596C79.636 40.624 79.3947 40.7116 79.1848 40.8512C78.9748 40.9908 78.8024 41.1782 78.6822 41.3975C78.3526 41.9572 78.2078 42.6034 78.2678 43.2472C78.3682 44.6345 79.26 45.7135 80.2585 45.6334C81.257 45.5532 81.9792 44.4002 81.8788 42.9945C81.8439 42.3509 81.6045 41.7342 81.1942 41.2311C81.058 41.0513 80.8847 40.9018 80.6856 40.7923C80.4864 40.6829 80.266 40.616 80.0387 40.596V40.596Z" fill="#455A64"/>
<path d="M76.2707 43.3767L75.9944 43.0931C76.4151 42.6923 77.4199 42.1251 78.1924 42.828L77.9286 43.1177C77.2441 42.4827 76.3084 43.3397 76.2707 43.3767Z" fill="#455A64"/>
<path d="M63.1579 45.0477L62.7937 44.8997C62.8691 44.7332 63.5285 43.2658 64.4014 43.05C65.2743 42.8342 70.5495 42.976 70.7756 42.976V43.3644C69.2433 43.3336 65.1236 43.2781 64.4956 43.4261C63.8676 43.5741 63.3338 44.6469 63.1579 45.0477Z" fill="#455A64"/>
<path d="M67.3846 44.1844C67.3846 44.1844 65.5006 41.1016 64.0562 41.7181C62.6118 42.3347 63.9369 46.7555 65.5069 47.4461C65.7018 47.5482 65.9157 47.6106 66.1358 47.6294C66.3559 47.6483 66.5776 47.6233 66.7876 47.5559C66.9976 47.4886 67.1916 47.3802 67.3578 47.2373C67.5241 47.0945 67.6592 46.9201 67.7551 46.7247L67.3846 44.1844Z" fill="#EB9481"/>
<path d="M64.458 42.9944C64.458 42.9944 64.458 43.0253 64.458 43.0314C65.557 43.5494 66.0845 44.616 66.4299 45.7012C66.3709 45.5866 66.2874 45.4859 66.1851 45.4058C66.0828 45.3257 65.9642 45.2683 65.8373 45.2372C65.7104 45.2062 65.5781 45.2024 65.4496 45.2261C65.321 45.2498 65.1991 45.3004 65.0923 45.3744C65.0923 45.3744 65.0923 45.4422 65.0923 45.4361C65.2947 45.3865 65.5077 45.3996 65.7022 45.4735C65.8967 45.5475 66.0632 45.6787 66.1787 45.8492C66.3679 46.1363 66.5257 46.4422 66.6497 46.7617C66.6937 46.8665 66.8821 46.8234 66.8507 46.7062C66.9763 45.2758 65.9903 43.2596 64.458 42.9944Z" fill="#263238"/>
<path d="M74.6441 55.7884L72.465 61.1402L65.7265 54.3579L63.8425 56.5221C63.8425 56.5221 70.4365 67.232 70.4805 66.7449L72.7162 62.1576L75.9441 65.3514L75.6803 57.336L74.6441 55.7884Z" fill="#EBEBEB"/>
<path d="M75.9881 61.393C75.9002 60.0674 75.8499 58.7356 75.6992 57.4161C75.6992 57.3729 75.6238 57.3483 75.6113 57.4161C75.3412 58.6924 75.7055 63.7483 75.6992 64.963C75.5673 64.8212 72.7099 62.1514 72.6848 62.1946C72.2012 62.9221 70.5559 66.2639 70.4428 66.5661C69.4004 64.8643 65.4188 58.6862 64.1628 57.077C64.1252 57.0277 64.0498 57.077 64.0812 57.1201C64.9981 58.9205 70.2858 67.2443 70.3612 67.2196C71.2335 65.6456 72.0217 64.028 72.7225 62.3734C73.206 62.9899 76.0886 65.9742 76.0948 65.7769C76.1389 64.3147 76.1032 62.8514 75.9881 61.393V61.393Z" fill="#263238"/>
<path d="M205.017 100.755H160.881V197.712H205.017V100.755Z" fill="#FFEB3B"/>
<path opacity="0.3" d="M205.017 100.755H160.881V197.712H205.017V100.755Z" fill="black"/>
<path d="M80.2459 100.755H36.1101V197.712H80.2459V100.755Z" fill="#FFEB3B"/>
<path d="M205.017 100.755H80.2458V114.221H205.017V100.755Z" fill="#FFEB3B"/>
<path opacity="0.2" d="M205.017 100.755H80.2458V114.221H205.017V100.755Z" fill="black"/>
<path opacity="0.1" d="M80.5286 107.488L96.0904 107.371L111.646 107.334L142.77 107.254L173.893 107.334L189.455 107.371L205.017 107.488L189.455 107.599L173.893 107.642L142.77 107.716L111.646 107.642L96.0904 107.599L80.5286 107.488Z" fill="black"/>
<path d="M86.1804 100.755H80.2458V197.712H86.1804V100.755Z" fill="#FFEB3B"/>
<path opacity="0.2" d="M86.1804 100.755H80.2458V197.712H86.1804V100.755Z" fill="black"/>
<path d="M205.017 100.755H199.083V197.712H205.017V100.755Z" fill="#FFEB3B"/>
<path opacity="0.2" d="M205.017 100.755H199.083V197.712H205.017V100.755Z" fill="black"/>
<path d="M138.888 99.1646H102.766V100.755H138.888V99.1646Z" fill="#455A64"/>
<path d="M138.888 99.1646H120.708V100.755H138.888V99.1646Z" fill="#263238"/>
<path d="M122.667 100.755H157.867L162.47 77.2823H127.27L122.667 100.755Z" fill="#455A64"/>
<path d="M140.427 89.0158C140.397 89.2835 140.425 89.5545 140.509 89.8106C140.594 90.0668 140.734 90.3023 140.919 90.5013C141.103 90.7003 141.329 90.8583 141.581 90.9647C141.833 91.0711 142.106 91.1235 142.38 91.1183C142.963 91.1091 143.523 90.8899 143.952 90.5022C144.382 90.1146 144.651 89.5857 144.71 89.0158C144.739 88.7483 144.71 88.4777 144.625 88.222C144.54 87.9662 144.401 87.7312 144.216 87.5324C144.031 87.3336 143.806 87.1756 143.554 87.0689C143.303 86.9621 143.031 86.9091 142.757 86.9133C142.174 86.9225 141.614 87.1417 141.184 87.5293C140.755 87.9169 140.485 88.4459 140.427 89.0158V89.0158Z" fill="#263238"/>
<path d="M229 128.785L227.581 137.139L217.966 188.105H216.421L223.411 137.139L224.441 128.785H229Z" fill="#DBDBDB"/>
<path d="M224.441 128.785H229L227.581 137.139H223.411L224.441 128.785Z" fill="#A6A6A6"/>
<path d="M259.182 188.105H257.637L248.022 137.139L246.603 128.785H251.162L252.192 137.139L259.182 188.105Z" fill="#DBDBDB"/>
<path d="M251.162 128.785L252.192 137.139H248.022L246.603 128.785H251.162Z" fill="#A6A6A6"/>
<path d="M288.013 188.105H286.469L276.854 137.139L275.435 128.785H279.994L281.024 137.139L288.013 188.105Z" fill="#DBDBDB"/>
<path d="M281.024 137.139H276.854L275.435 128.785H279.994L281.024 137.139Z" fill="#A6A6A6"/>
<path d="M285.558 132.706H215.128V125.424H241.491L250.352 74.8036H282.87L285.558 132.706Z" fill="#DBDBDB"/>
<path d="M285.558 132.706H281.721L279.215 74.8036H282.87L285.558 132.706Z" fill="#A6A6A6"/>
<path d="M172.411 181.015C173.711 181.761 213.759 189.986 215.486 189.351C216.145 189.11 217.703 183.456 219.392 176.569C219.756 175.077 220.12 173.542 220.485 171.976C222.858 161.827 225.138 151.012 225.138 151.012L198.366 145.463L194.448 166.575L193.587 171.211C193.587 171.211 176.82 174.8 174.999 175.694C173.177 176.588 171.105 180.269 172.411 181.015Z" fill="#D3766A"/>
<path d="M218.739 179.196C217.313 184.844 216.057 189.141 215.486 189.351C213.759 189.968 173.705 181.761 172.405 181.015C171.105 180.269 173.184 176.576 174.992 175.675C176.116 175.127 182.93 173.548 187.985 172.42C183.589 173.456 175.331 176.397 192.381 177.605C206.455 178.61 215.749 179.066 218.739 179.196Z" fill="#263238"/>
<path d="M271.924 121.78C263.76 130.69 236.417 123.63 234.784 127.2C233.34 130.326 252.016 180.528 252.016 180.528L222.136 183.691C222.136 183.691 196.338 128.248 205.557 112.23C210.537 103.598 232.486 107.026 245.749 105.447C249.743 104.973 251.621 96.8832 251.621 96.8832H275.284C275.284 96.8832 281.25 111.601 271.924 121.78Z" fill="#37474F"/>
<path d="M213.884 107.266L239.004 126.115C247.338 125.942 265.575 128.779 271.968 121.799C281.281 111.619 275.309 96.8955 275.309 96.8955H251.621C251.621 96.8955 249.737 104.985 245.749 105.46C236.455 106.551 222.884 105.188 213.884 107.266Z" fill="#263238"/>
<path d="M221.012 177.149C221.835 176.896 229.584 176.045 231.292 175.866C234.715 175.503 245.479 174.51 247.432 174.516C247.442 174.52 247.45 174.526 247.456 174.534C247.462 174.542 247.465 174.552 247.465 174.562C247.465 174.572 247.462 174.582 247.456 174.59C247.45 174.599 247.442 174.605 247.432 174.609C245.736 174.954 238.86 175.743 237.152 175.916C233.729 176.261 221.967 177.383 221.012 177.291C220.997 177.286 220.983 177.277 220.973 177.264C220.964 177.251 220.958 177.236 220.958 177.22C220.958 177.204 220.964 177.188 220.973 177.176C220.983 177.163 220.997 177.153 221.012 177.149Z" fill="#263238"/>
<path d="M231.179 124.259C233.101 123.322 247.664 123.784 258.114 122.822C261.518 122.514 264.934 121.799 267.534 119.61C269.803 117.605 271.422 114.989 272.188 112.088C273.193 108.58 273.092 104.923 272.916 101.335C272.879 100.453 272.816 99.5653 272.759 98.6836C272.759 98.6343 272.847 98.6219 272.854 98.6836C273.645 105.114 274.254 112.298 269.996 117.871C268.108 120.324 265.419 122.066 262.378 122.804C256.098 124.432 232.379 124.037 231.544 124.654C230.545 125.406 245.868 171.193 246.17 172.068C246.226 172.229 245.931 172.34 245.862 172.179C244.349 168.634 229.503 125.079 231.179 124.259Z" fill="#263238"/>
<path d="M204.508 113.777C205.915 110.269 209.13 108.08 213.859 107.242C213.934 107.242 213.928 107.346 213.859 107.365C209.733 108.549 206.788 110.177 205.161 113.599C204.408 115.195 204.012 117.434 203.817 120.443C202.838 135.431 216.164 169.466 216.434 170.058C216.437 170.064 216.439 170.069 216.439 170.075C216.44 170.081 216.439 170.087 216.437 170.093C216.436 170.099 216.433 170.104 216.429 170.109C216.425 170.113 216.42 170.117 216.415 170.12C216.41 170.123 216.404 170.125 216.398 170.125C216.392 170.126 216.386 170.125 216.38 170.123C216.374 170.122 216.368 170.119 216.364 170.115C216.359 170.111 216.355 170.107 216.352 170.101C214.468 167 198.693 128.273 204.508 113.777Z" fill="#263238"/>
<path d="M193.707 165.212L216.315 169.935C216.315 169.935 198.467 117.631 206.851 110.879C209.174 109.03 214.242 108.358 220.265 110.91C229.251 114.721 239.657 122.496 249.467 125.338C258.654 128.002 269.563 125.554 273.331 121.497C281.218 112.976 275.284 96.8709 275.284 96.8709L242.741 95.6686C242.741 95.6686 243.231 96.057 241.673 97.4135C241.673 97.4135 222.551 93.153 214.236 98.141C199.252 107.131 193.707 165.212 193.707 165.212Z" fill="#37474F"/>
<path d="M261.248 98.7514C261.248 98.7367 261.254 98.7226 261.265 98.7122C261.275 98.7018 261.289 98.6959 261.304 98.6959C261.319 98.6959 261.334 98.7018 261.344 98.7122C261.355 98.7226 261.361 98.7367 261.361 98.7514C261.336 99.9517 261.43 101.152 261.644 102.334C261.897 103.455 262.465 104.484 263.283 105.306C265.066 107.081 267.622 107.686 269.965 108.388C270.084 108.425 270.065 108.641 269.927 108.617C267.333 108.228 264.601 107.581 262.705 105.669C261.831 104.79 261.247 103.673 261.028 102.463C260.789 101.227 260.865 99.9521 261.248 98.7514V98.7514Z" fill="#263238"/>
<path d="M207.422 109.881C210.901 107.741 216.34 109.369 218.946 110.349C218.958 110.353 218.967 110.362 218.972 110.373C218.978 110.384 218.978 110.396 218.974 110.408C218.97 110.419 218.961 110.429 218.95 110.434C218.939 110.439 218.926 110.44 218.915 110.436C216.522 109.591 210.562 108.308 207.378 110.522C200.018 115.646 209.89 150.661 216.327 169.935C216.428 170.237 216.189 170.157 216.051 169.867C214.983 167.586 206.631 143.231 204.483 127.12C204.15 124.648 202.411 112.976 207.422 109.881Z" fill="#263238"/>
<path d="M196.281 159.305C196.966 159.305 202.831 160.538 204.119 160.84C206.706 161.414 212.697 162.937 214.091 163.461C214.129 163.461 214.091 163.547 214.091 163.547C212.748 163.424 209.626 162.746 208.339 162.456C205.758 161.839 196.916 159.78 196.269 159.441C196.187 159.41 196.219 159.305 196.281 159.305Z" fill="#263238"/>
<path d="M208.534 108.974C210.87 107.741 213.658 107.513 216.258 107.827C219 108.235 221.662 109.052 224.152 110.251C229.446 112.631 234.483 115.528 239.783 117.896C245.083 120.264 250.679 122.083 256.488 122.255C261.449 122.409 267.735 121.552 270.932 117.169C275.849 110.386 272.985 98.7637 272.929 98.0115C272.929 97.956 273.004 97.956 273.017 98.0115C276.835 112.328 271.924 117.89 268.621 120.208C265.996 122.058 262.215 122.533 259.716 122.736C253.938 123.217 248.148 121.83 242.797 119.733C237.309 117.588 232.159 114.702 226.903 112.057C221.879 109.529 216.227 106.915 210.487 108.358C209.834 108.517 209.194 108.723 208.571 108.974C208.571 108.974 208.496 108.993 208.534 108.974Z" fill="#263238"/>
<path d="M242.873 58.9947C242.785 66.1778 242.823 73.5644 243.859 80.6858C244.669 86.235 247.256 90.7113 253.21 91.8273C258.736 92.857 266.523 92.4439 270.988 88.6704C273.073 86.9194 273.72 84.5456 273.456 81.9251C273.098 78.2873 269.261 58.4336 268.106 52.237C267.409 48.4636 266.718 44.6409 265.343 41.0277C262.454 33.4377 258.579 33.672 258.039 33.5363C257.562 33.265 254.522 32.0936 250.352 33.598C249.261 33.9905 248.266 34.604 247.432 35.3985C246.598 36.1931 245.943 37.1509 245.51 38.21C242.741 44.4929 242.954 52.2679 242.873 58.9947Z" fill="#263238"/>
<path d="M259.295 34.5537C264.055 36.4897 265.387 41.447 266.718 45.8802C268.564 52.0459 270.31 58.2486 271.742 64.5315C272.433 67.5466 273.054 70.5801 273.582 73.6322C274.084 76.5486 274.838 79.6561 274.744 82.628C274.624 87.5606 270.159 89.9714 265.763 90.8593C265.741 90.8645 265.719 90.8655 265.697 90.8622C265.674 90.8588 265.653 90.8512 265.634 90.8398C265.614 90.8283 265.598 90.8132 265.584 90.7954C265.571 90.7776 265.561 90.7574 265.556 90.736C265.551 90.7145 265.55 90.6922 265.553 90.6704C265.557 90.6485 265.564 90.6276 265.576 90.6087C265.588 90.5898 265.603 90.5733 265.621 90.5603C265.639 90.5472 265.66 90.5377 265.682 90.5325C268.194 89.9159 270.706 89.139 272.521 87.2215C274.819 84.7552 274.405 81.6723 273.984 78.6573C273.268 73.4657 272.251 68.3235 271.051 63.2429C269.852 58.1623 268.457 53.0694 266.988 48.032C265.588 43.2412 264.445 36.8967 259.27 34.6462C259.264 34.6445 259.258 34.6417 259.253 34.6379C259.248 34.6341 259.243 34.6293 259.24 34.6239C259.237 34.6185 259.235 34.6125 259.234 34.6062C259.233 34.6 259.234 34.5937 259.235 34.5876C259.237 34.5815 259.24 34.5758 259.244 34.5708C259.248 34.5658 259.252 34.5616 259.258 34.5585C259.264 34.5554 259.27 34.5533 259.276 34.5525C259.282 34.5517 259.289 34.5521 259.295 34.5537V34.5537Z" fill="#263238"/>
<path d="M243.601 43.5372C244.317 39.7514 246.113 36.015 250.107 34.7571C244.983 36.6069 243.965 42.23 243.482 46.9098C242.971 51.8424 242.649 56.7853 242.515 61.7384C242.377 66.5046 242.345 71.3015 242.653 76.0553C242.979 81.1914 244.141 85.9637 247.426 90.07C247.437 90.0876 247.441 90.1083 247.438 90.1287C247.434 90.149 247.424 90.1675 247.408 90.1809C247.392 90.1943 247.372 90.2016 247.351 90.2017C247.33 90.2017 247.31 90.1944 247.294 90.181C244.097 86.8885 242.898 82.2087 242.439 77.8002C241.963 71.9586 241.879 66.0926 242.188 60.2402C242.408 54.7218 242.565 48.9877 243.601 43.5372Z" fill="#263238"/>
<path d="M254.704 66.0113C247.507 74.705 237.654 82.9178 233.528 82.7821C230.2 82.6773 210.292 70.9377 208.873 69.1558C207.661 67.6206 217.037 55.7638 218.977 56.5777C222.237 57.9465 233.817 67.3554 234.803 67.2075C235.789 67.0595 243.903 63.5943 251.979 59.8641C259.703 56.2941 259.709 59.975 254.704 66.0113Z" fill="#D3766A"/>
<path d="M211.077 70.7836C209.482 69.8957 202.517 65.2344 200.872 63.4772C199.227 61.72 194.875 56.4298 196.099 55.061C197.324 53.6922 198.724 55.1473 198.724 55.1473C198.724 55.1473 197.249 52.6193 198.605 51.3492C199.961 50.079 202.072 52.4159 202.072 52.4159C202.072 52.4159 200.746 49.7091 202.191 48.5438C203.635 47.3784 205.331 50.0667 205.331 50.0667C205.331 50.0667 204.006 47.6497 205.607 47.175C207.541 46.6139 209.476 51.343 211.429 53.1249C211.875 53.5257 221.037 60.678 221.037 60.678L211.077 70.7836Z" fill="#D3766A"/>
<path d="M205.205 49.8386C206.637 53.3161 207.874 54.5985 210.926 56.7565C210.983 56.7997 210.926 56.8922 210.87 56.8552C207.686 55.0055 205.896 53.6244 205.029 49.9002C204.985 49.7153 205.136 49.6783 205.205 49.8386Z" fill="#263238"/>
<path d="M201.958 52.1384C203.767 55.622 205.098 57.0216 208.125 59.5373C208.169 59.5742 208.125 59.6482 208.069 59.6174C204.891 57.4162 203.133 55.9981 201.789 52.2802C201.732 52.089 201.877 51.978 201.958 52.1384Z" fill="#263238"/>
<path d="M198.881 55.2706C200.878 58.5199 202.272 60.1169 205.525 62.1639C205.534 62.168 205.541 62.1738 205.548 62.1809C205.554 62.188 205.558 62.1962 205.561 62.2051C205.564 62.214 205.565 62.2233 205.563 62.2325C205.562 62.2417 205.559 62.2506 205.555 62.2586C205.55 62.2667 205.543 62.2737 205.536 62.2792C205.528 62.2847 205.52 62.2886 205.51 62.2907C205.501 62.2928 205.492 62.2931 205.482 62.2914C205.473 62.2897 205.464 62.2862 205.456 62.2811C201.933 60.5115 200.181 58.5384 198.787 55.3384C198.693 55.1226 198.756 55.0671 198.881 55.2706Z" fill="#263238"/>
<path d="M224.095 60.6595C224.095 60.6595 222.557 56.2078 221.439 54.4012C220.321 52.5947 213.639 47.36 212.402 48.7103C210.813 50.4613 214.066 54.2286 215.906 55.8687C215.906 55.8687 212.214 59.9073 213.953 63.1073C215.693 66.3073 224.095 60.6595 224.095 60.6595Z" fill="#D3766A"/>
<path d="M212.126 49.333C211.843 51.9534 214.399 53.9573 216.063 55.6776C216.089 55.7023 216.109 55.7327 216.12 55.7663C216.132 55.7999 216.135 55.8357 216.129 55.8707C216.124 55.9057 216.11 55.9389 216.088 55.9675C216.067 55.9961 216.039 56.0193 216.007 56.0352C214.575 57.8294 213.087 60.7643 213.809 63.0641C213.815 63.078 213.815 63.0936 213.809 63.1075C213.803 63.1214 213.792 63.1324 213.777 63.1381C213.763 63.1438 213.747 63.1438 213.733 63.138C213.719 63.1322 213.708 63.1212 213.702 63.1073C212.59 60.7458 213.815 57.7369 215.511 55.8687C213.771 54.1299 211.303 52.0151 212.101 49.3268C212.107 49.3145 212.126 49.3145 212.126 49.333Z" fill="#263238"/>
<path d="M225.684 60.2833L213.313 75.3216C213.313 75.3216 229.748 83.9906 234.037 83.2014C238.326 82.4122 243.614 78.7621 254.265 66.7759C262.699 57.2868 256.029 57.2066 250.767 59.7962C246.471 61.9111 235.563 66.745 234.696 66.3689C233.829 65.9928 225.684 60.2833 225.684 60.2833Z" fill="#FFEB3B"/>
<path d="M213.313 75.3216C213.313 75.3216 228.178 83.1644 233.308 83.2569C233.548 83.2576 233.787 83.2411 234.024 83.2075C238.301 82.4122 243.601 78.7621 254.258 66.7758C257.989 62.577 258.761 60.2217 258.026 59.118C257.072 57.7369 253.706 58.3473 250.767 59.7962C246.477 61.9111 235.563 66.745 234.696 66.3689C233.829 65.9928 225.703 60.2833 225.703 60.2833L213.313 75.3216Z" fill="#FFEB3B"/>
<path d="M228.316 63.2244C226.639 65.555 224.855 67.8117 223.022 70.0067C222.123 71.098 221.225 72.1832 220.283 73.2375C219.341 74.2919 218.261 75.3709 217.288 76.4746C217.244 76.5239 217.162 76.4746 217.206 76.4129C218.136 75.2846 218.99 74.0884 219.894 72.9416C220.798 71.7948 221.671 70.7589 222.569 69.6676C224.397 67.4541 226.243 65.2406 228.146 63.0826C228.155 63.0716 228.167 63.0626 228.18 63.0561C228.193 63.0496 228.207 63.0456 228.222 63.0445C228.236 63.0433 228.251 63.045 228.265 63.0494C228.279 63.0539 228.292 63.0609 228.303 63.0702C228.314 63.0795 228.323 63.0909 228.33 63.1037C228.337 63.1165 228.341 63.1304 228.342 63.1447C228.343 63.1591 228.341 63.1735 228.337 63.1871C228.332 63.2008 228.325 63.2134 228.316 63.2244V63.2244Z" fill="#263238"/>
<path d="M243.143 87.5113L242.747 95.6685C242.747 95.6685 252.531 96.7229 276.728 96.7229C276.728 96.7229 271.622 71.3693 263.433 61.9296C259.339 57.2066 254.302 57.3546 250.974 60.419C250.132 61.1404 242.333 74.0021 241.152 78.7559C240.072 82.9424 243.143 87.5113 243.143 87.5113Z" fill="#FFEB3B"/>
<path d="M252.582 63.0579L250.572 69.1558C249.906 71.2111 249.278 73.2663 248.688 75.3216C248.135 77.3809 247.432 79.4526 247.859 81.4873C248.223 83.5653 249.016 85.5482 250.189 87.314L250.239 87.3941V87.4804C250.164 88.9109 250.038 90.3413 249.944 91.7965C249.85 93.2516 249.705 94.6574 249.561 96.1125C249.561 94.6738 249.561 93.2351 249.561 91.7965C249.599 90.3598 249.605 88.9232 249.668 87.4804L249.712 87.6469C248.466 85.8205 247.612 83.7648 247.2 81.6045C247.015 80.5074 247.045 79.3858 247.288 78.2996C247.514 77.2391 247.802 76.1971 248.11 75.1613C248.738 73.0958 249.454 71.0672 250.189 69.0449C250.924 67.0225 251.746 65.0433 252.582 63.0579Z" fill="#263238"/>
<path d="M247.89 71.1289C247.877 71.197 247.877 71.267 247.891 71.3349C247.905 71.4029 247.933 71.4674 247.973 71.5248C248.012 71.5821 248.063 71.6312 248.123 71.669C248.182 71.7069 248.248 71.7329 248.317 71.7455C248.384 71.7514 248.45 71.7442 248.514 71.7243C248.577 71.7044 248.635 71.6722 248.686 71.6296C248.736 71.587 248.777 71.535 248.807 71.4765C248.836 71.418 248.854 71.3544 248.858 71.2892C248.882 71.1521 248.851 71.0112 248.771 70.8962C248.691 70.7811 248.569 70.701 248.43 70.6726C248.364 70.6668 248.298 70.674 248.234 70.6939C248.171 70.7138 248.112 70.746 248.062 70.7885C248.012 70.8311 247.971 70.8831 247.941 70.9416C247.912 71.0001 247.894 71.0638 247.89 71.1289Z" fill="#263238"/>
<path d="M245.962 77.0973C245.94 77.2342 245.972 77.3744 246.051 77.489C246.13 77.6037 246.251 77.6841 246.389 77.7139C246.456 77.7207 246.524 77.7141 246.588 77.6946C246.652 77.6751 246.711 77.643 246.762 77.6004C246.813 77.5578 246.855 77.5054 246.885 77.4465C246.915 77.3876 246.932 77.3233 246.936 77.2576C246.962 77.1203 246.931 76.9786 246.851 76.8632C246.771 76.7478 246.648 76.6679 246.509 76.641C246.442 76.6351 246.375 76.6423 246.312 76.6622C246.248 76.682 246.189 76.7141 246.138 76.7566C246.087 76.7991 246.045 76.8511 246.015 76.9096C245.985 76.9681 245.967 77.0319 245.962 77.0973V77.0973Z" fill="#263238"/>
<path d="M245.962 83.0966C245.937 83.2339 245.967 83.3756 246.047 83.491C246.127 83.6065 246.25 83.6863 246.389 83.7132C246.456 83.72 246.523 83.7134 246.587 83.6939C246.651 83.6744 246.711 83.6424 246.762 83.5997C246.813 83.5571 246.855 83.5047 246.885 83.4458C246.914 83.3869 246.932 83.3226 246.936 83.2569C246.949 83.1889 246.949 83.1188 246.935 83.0509C246.921 82.9829 246.893 82.9184 246.853 82.8611C246.814 82.8037 246.763 82.7547 246.704 82.7168C246.644 82.6789 246.578 82.6529 246.509 82.6404C246.442 82.6327 246.374 82.6386 246.31 82.6577C246.245 82.6769 246.186 82.7089 246.134 82.7517C246.083 82.7945 246.041 82.8472 246.012 82.9066C245.982 82.9659 245.965 83.0306 245.962 83.0966V83.0966Z" fill="#263238"/>
<path d="M247.89 87.9737C247.876 88.0418 247.875 88.1121 247.889 88.1804C247.903 88.2487 247.931 88.3135 247.97 88.3711C248.01 88.4286 248.062 88.4777 248.121 88.5154C248.181 88.553 248.248 88.5785 248.317 88.5903C248.384 88.5971 248.451 88.5905 248.514 88.5709C248.578 88.5513 248.637 88.5192 248.688 88.4765C248.738 88.4338 248.779 88.3813 248.809 88.3225C248.838 88.2636 248.854 88.1994 248.857 88.134C248.871 88.066 248.871 87.9959 248.857 87.928C248.843 87.86 248.815 87.7955 248.775 87.7381C248.735 87.6808 248.684 87.6318 248.625 87.5939C248.566 87.556 248.5 87.53 248.43 87.5174C248.364 87.5115 248.298 87.5188 248.234 87.5387C248.171 87.5586 248.112 87.5908 248.062 87.6333C248.012 87.6759 247.97 87.7279 247.941 87.7864C247.911 87.8449 247.894 87.9086 247.89 87.9737Z" fill="#263238"/>
<path d="M247.482 93.4057C247.469 93.4738 247.469 93.5438 247.483 93.6117C247.497 93.6797 247.525 93.7442 247.565 93.8016C247.604 93.8589 247.655 93.908 247.714 93.9459C247.774 93.9837 247.84 94.0097 247.909 94.0223C247.975 94.0282 248.042 94.021 248.105 94.0011C248.169 93.9812 248.227 93.949 248.278 93.9064C248.328 93.8639 248.369 93.8118 248.399 93.7533C248.428 93.6949 248.445 93.6312 248.449 93.566C248.463 93.498 248.463 93.4279 248.449 93.36C248.434 93.292 248.407 93.2275 248.367 93.1702C248.327 93.1128 248.276 93.0638 248.217 93.0259C248.158 92.988 248.092 92.962 248.022 92.9495C247.956 92.9417 247.888 92.9477 247.824 92.9669C247.76 92.9861 247.701 93.0182 247.65 93.0611C247.599 93.104 247.558 93.1567 247.529 93.2161C247.5 93.2754 247.484 93.34 247.482 93.4057V93.4057Z" fill="#263238"/>
<path d="M246.132 68.0768C245.309 69.4395 244.543 70.8329 243.79 72.2326C243.978 71.5728 244.198 70.9193 244.418 70.2718C244.418 70.2225 244.355 70.1917 244.33 70.241C243.947 71.0217 243.681 71.8523 243.538 72.7073C243.293 73.1636 243.049 73.6137 242.81 74.0699C242.345 74.9886 241.868 75.9197 241.497 76.8507C241.126 77.8101 240.914 78.8218 240.869 79.8472C240.869 79.8966 240.957 79.9089 240.964 79.8472C241.139 78.8106 241.469 77.8051 241.943 76.863C242.364 75.9197 242.835 75.0133 243.293 74.0699C244.279 72.0907 245.253 70.1054 246.176 68.1015L246.132 68.0768Z" fill="#263238"/>
<path d="M264.017 63.2305C269.318 72.2387 278.675 90.7606 275.541 95.909C272.408 101.057 254.78 104.301 248.751 105.373C246.76 105.719 239.595 91.8088 241.566 90.9702C244.914 89.5151 260.827 86.6542 261.336 85.6245C261.65 84.9586 258.535 72.8183 258.165 65.6845C257.687 56.4051 262.372 60.4313 264.017 63.2305Z" fill="#D3766A"/>
<path d="M243.306 90.3907C243.306 90.3907 237.026 91.2477 232.982 91.9938C230.715 92.413 226.89 93.4674 225.37 94.5217C223.091 96.1002 214.588 104.128 216.528 106.193C218.28 108.043 224.692 100.256 224.692 100.256C224.692 100.256 217.514 107.575 220.045 109.443C222.576 111.311 228.63 101.551 228.63 101.551C228.63 101.551 221.427 109.227 224.347 110.75C226.557 111.903 232.548 103.351 232.548 103.351C232.548 103.351 226.4 109.998 228.623 111.274C231.073 112.692 237.108 105.145 237.108 105.145C243.306 107.464 247.231 106.076 249.9 104.769C250.572 104.455 243.306 90.3907 243.306 90.3907Z" fill="#D3766A"/>
<path d="M227.009 97.5676C226.136 98.4 225.245 99.2324 224.447 100.139C223.65 101.045 222.883 101.988 222.18 102.944C221.227 104.195 220.424 105.55 219.787 106.983C221.106 104.516 223.913 101.249 224.711 100.342C225.508 99.4358 226.256 98.4925 227.047 97.5985C227.066 97.5738 227.034 97.5491 227.009 97.5676Z" fill="#263238"/>
<path d="M230.388 100.336C229.314 101.446 228.209 102.506 227.192 103.659C226.174 104.812 225.308 105.984 224.378 107.192C224.303 107.291 224.378 107.297 224.453 107.192C225.439 106.015 226.438 105.004 227.436 103.838C228.435 102.673 229.377 101.471 230.413 100.348C230.432 100.342 230.401 100.318 230.388 100.336Z" fill="#263238"/>
<path d="M233.716 102.198C232.033 103.858 230.526 105.682 229.22 107.642C229.157 107.741 229.251 107.741 229.327 107.642C230.784 105.793 231.92 104.356 233.773 102.26C233.804 102.229 233.754 102.167 233.716 102.198Z" fill="#263238"/>
<path d="M242.741 90.1194L255.451 105.534C255.451 105.534 273.852 101.39 276.471 95.2308C279.089 89.0712 270.191 71.7517 265.311 64.5809C260.431 57.4101 257.298 57.5889 257.869 65.814C258.384 73.1698 261.16 85.0018 260.871 85.4026C260.582 85.8034 242.741 90.1194 242.741 90.1194Z" fill="#FFEB3B"/>
<path d="M247.545 89.8111C249.523 91.8951 251.407 94.0778 253.241 96.2851C254.139 97.3703 255.037 98.4616 255.897 99.5776C256.758 100.694 257.612 101.958 258.51 103.117C258.554 103.172 258.472 103.234 258.435 103.185C257.499 102.062 256.481 100.996 255.527 99.8921C254.572 98.7884 253.706 97.7341 252.808 96.6551C250.968 94.4416 249.14 92.2157 247.382 89.9468C247.363 89.9255 247.354 89.898 247.357 89.8702C247.359 89.8425 247.373 89.8168 247.394 89.7988C247.416 89.7808 247.444 89.772 247.472 89.7743C247.501 89.7766 247.527 89.7898 247.545 89.8111Z" fill="#263238"/>
<path d="M242.703 90.1194C244.122 90.0084 260.997 85.7602 261.016 85.754C261.034 85.7479 260.199 80.4947 260.017 79.502C259.659 77.4796 259.257 75.4573 258.811 73.4472C258.811 73.4041 258.717 73.4041 258.723 73.4472C258.824 74.6804 258.962 75.9135 259.125 77.1097C258.937 76.5856 258.736 76.0553 258.497 75.5436C258.497 75.4942 258.403 75.5436 258.416 75.5436C258.698 76.5794 259.044 77.6029 259.339 78.6264C259.383 78.8916 259.408 79.1629 259.452 79.4342C259.621 80.4515 259.804 81.4689 260.005 82.4739C260.099 82.9733 260.488 84.9032 260.582 85.4211C258.34 85.8527 243.978 89.4967 242.672 89.9899C242.634 90.0146 242.653 90.1194 242.703 90.1194Z" fill="#263238"/>
<path d="M276.446 95.3171C276.221 95.8008 275.922 96.2478 275.56 96.6427C275.51 96.6859 275.56 96.6982 275.635 96.6427C276.049 96.306 276.342 95.8478 276.471 95.3356C276.471 95.3171 276.458 95.2863 276.446 95.3171Z" fill="#263238"/>
<path d="M258.378 59.5805C258.277 60.197 255.59 64.4329 252.726 64.5131C251.79 64.5131 251.42 59.5126 251.42 59.5126L251.307 59.1489L249.724 54.0375L255.634 49.6598L256.494 49.074C256.494 49.074 256.833 50.4983 257.241 52.2802C257.241 52.3604 257.279 52.4405 257.298 52.533C257.317 52.6255 257.348 52.7242 257.367 52.8228L257.555 53.6244C257.599 53.834 257.643 54.0313 257.681 54.2409C257.719 54.4506 257.769 54.6725 257.813 54.8575C258.11 56.4174 258.299 57.9954 258.378 59.5805Z" fill="#D3766A"/>
<path d="M257.222 52.2864C256.799 53.7852 256.05 55.1758 255.025 56.3618C254 57.5478 252.725 58.5009 251.288 59.155L249.705 54.0436L255.615 49.6659L256.475 49.0802C256.475 49.0802 256.814 50.5045 257.222 52.2864Z" fill="#263238"/>
<path d="M242.037 45.4917C240.844 54.7897 246.383 56.5346 248.424 56.7874C250.277 57.0155 256.62 57.5519 258.786 48.4266C260.953 39.3013 256.902 35.8177 252.707 35.0778C248.512 34.3379 243.224 36.1876 242.037 45.4917Z" fill="#D3766A"/>
<path d="M243.978 43.0378C244.204 43.0378 244.417 43.0008 244.644 42.9823C244.878 42.9935 245.11 42.9285 245.303 42.7973C245.356 42.7447 245.39 42.6761 245.399 42.6023C245.409 42.5286 245.392 42.454 245.353 42.3903C245.258 42.2753 245.134 42.1876 244.992 42.1366C244.85 42.0856 244.698 42.0731 244.549 42.1006C244.241 42.1078 243.946 42.2263 243.72 42.4335C243.672 42.4838 243.639 42.547 243.626 42.6153C243.613 42.6836 243.621 42.7541 243.648 42.8182C243.675 42.8823 243.721 42.9372 243.78 42.9762C243.838 43.0152 243.907 43.0366 243.978 43.0378Z" fill="#263238"/>
<path d="M250.258 43.8763C250.044 43.8204 249.834 43.7503 249.63 43.6667C249.389 43.6278 249.167 43.5106 249.002 43.3337C248.964 43.2694 248.948 43.1944 248.959 43.1207C248.969 43.0469 249.004 42.9786 249.058 42.9268C249.178 42.8367 249.32 42.7805 249.469 42.7642C249.619 42.7479 249.77 42.7721 249.906 42.8343C250.205 42.9102 250.464 43.0955 250.628 43.3522C250.66 43.4104 250.675 43.4761 250.672 43.542C250.668 43.608 250.646 43.6717 250.607 43.726C250.569 43.7803 250.516 43.8231 250.454 43.8496C250.393 43.8761 250.325 43.8854 250.258 43.8763Z" fill="#263238"/>
<path d="M248.531 46.0651C248.531 46.0651 248.575 46.1021 248.575 46.1268C248.456 46.7434 248.437 47.5017 248.989 47.7977C248.989 47.7977 248.989 47.8409 248.989 47.8347C248.28 47.6312 248.317 46.6447 248.531 46.0651Z" fill="#263238"/>
<path d="M249.209 45.4855C250.258 45.5534 250.038 47.6189 249.059 47.5511C248.079 47.4833 248.324 45.4239 249.209 45.4855Z" fill="#263238"/>
<path d="M249.611 45.6336C249.781 45.7692 249.938 45.9973 250.157 46.0405C250.377 46.0837 250.622 45.8987 250.817 45.7075H250.848C250.811 46.1083 250.61 46.4968 250.176 46.5091C249.743 46.5214 249.548 46.1391 249.473 45.7322C249.46 45.6829 249.542 45.5842 249.611 45.6336Z" fill="#263238"/>
<path d="M244.92 45.5225C244.92 45.5225 244.864 45.5225 244.864 45.5718C244.82 46.1884 244.663 46.9406 244.047 47.0948V47.1318C244.807 47.101 245.008 46.1329 244.92 45.5225Z" fill="#263238"/>
<path d="M244.43 44.795C243.394 44.6162 243.099 46.6447 244.066 46.8358C245.033 47.027 245.303 44.9491 244.43 44.795Z" fill="#263238"/>
<path d="M243.978 44.8752C243.796 44.9615 243.601 45.1341 243.406 45.1218C243.212 45.1095 243.036 44.8567 242.923 44.6285C242.923 44.6285 242.892 44.6285 242.885 44.6285C242.816 45.017 242.885 45.4424 243.268 45.5719C243.651 45.7014 243.896 45.3869 244.06 45.0108C244.091 44.9553 244.047 44.8382 243.978 44.8752Z" fill="#263238"/>
<path d="M247.916 51.1581C247.746 51.2999 247.583 51.4972 247.344 51.5033C247.101 51.4859 246.866 51.4165 246.653 51.2999C246.653 51.2999 246.609 51.2999 246.622 51.3307C246.706 51.463 246.825 51.5702 246.967 51.6409C247.109 51.7115 247.267 51.7428 247.426 51.7315C247.561 51.7049 247.684 51.6398 247.782 51.5444C247.879 51.4489 247.945 51.3274 247.972 51.1951C247.973 51.1882 247.972 51.1811 247.969 51.1748C247.966 51.1684 247.962 51.163 247.956 51.1591C247.95 51.1552 247.943 51.1531 247.936 51.1529C247.929 51.1527 247.922 51.1545 247.916 51.1581V51.1581Z" fill="#263238"/>
<path d="M245.479 48.5376C245.354 48.9947 245.254 49.4577 245.178 49.9249C245.178 49.9681 245.278 49.9989 245.435 50.0297C245.819 50.1448 246.229 50.1545 246.618 50.0578C247.008 49.961 247.363 49.7616 247.646 49.481C247.683 49.4378 247.646 49.3885 247.583 49.407C246.954 49.731 246.236 49.8457 245.535 49.7338C245.535 49.6043 246.013 48.143 245.944 48.1307C245.584 48.1215 245.225 48.1588 244.876 48.2416C245.335 46.2748 246.132 44.4004 246.547 42.4335C246.547 42.3657 246.459 42.3287 246.434 42.3903C245.534 44.3722 244.84 46.4378 244.361 48.5561C244.292 48.8089 245.284 48.5931 245.479 48.5376Z" fill="#263238"/>
<path d="M245.548 49.9187C245.763 50.3019 246.074 50.6245 246.452 50.8559C246.66 50.9773 246.902 51.0292 247.143 51.0039C247.67 50.9546 247.771 50.4983 247.721 50.0914C247.7 49.8817 247.656 49.6749 247.589 49.4748C246.974 49.8333 246.259 49.9889 245.548 49.9187Z" fill="#263238"/>
<path d="M246.452 50.8559C246.66 50.9773 246.903 51.0292 247.143 51.0039C247.671 50.9545 247.771 50.4983 247.721 50.0913C247.453 50.061 247.182 50.1199 246.952 50.2585C246.722 50.3971 246.546 50.6075 246.452 50.8559Z" fill="#FF9ABB"/>
<path d="M258.485 47.921C256.701 48.1862 256.155 44.1846 256.155 44.1846C256.155 44.1846 248.525 43.0871 247.74 37.0262C246.839 39.5219 244.992 41.5802 242.584 42.7727C242.584 42.7727 242.697 36.1075 248.041 34.6894C248.041 34.6894 254.66 32.1552 258.535 37.2728C262.41 42.3904 259.678 47.7484 258.485 47.921Z" fill="#263238"/>
<path d="M247.702 36.5822C247.632 37.5206 247.769 38.4629 248.104 39.3445C248.426 40.2451 248.935 41.0702 249.599 41.7676C249.763 41.9413 249.937 42.106 250.12 42.2609L250.39 42.4952C250.484 42.5692 250.585 42.637 250.685 42.7048C250.886 42.8343 251.081 42.9761 251.282 43.0994L251.91 43.4262L252.23 43.5803L252.569 43.6975L253.241 43.9318C253.706 44.0489 254.17 44.1414 254.635 44.2277C254.196 44.0489 253.743 43.9195 253.316 43.7406L252.688 43.4509L252.374 43.309L252.073 43.1364L251.476 42.785C251.288 42.6616 251.106 42.5198 250.924 42.3842L250.647 42.1807L250.396 41.9526C250.222 41.8054 250.058 41.6467 249.906 41.4778C249.279 40.817 248.772 40.0559 248.405 39.2273C248.218 38.8103 248.065 38.3794 247.947 37.9387C247.825 37.4945 247.743 37.0406 247.702 36.5822V36.5822Z" fill="#263238"/>
<path d="M257.191 48.106C257.191 48.106 259.383 45.2636 260.708 46.0405C262.033 46.8174 260.3 50.9731 258.686 51.5218C258.484 51.6024 258.268 51.642 258.05 51.6382C257.833 51.6343 257.618 51.5872 257.42 51.4996C257.221 51.4119 257.043 51.2857 256.896 51.1284C256.749 50.9711 256.635 50.7862 256.563 50.5847L257.191 48.106Z" fill="#D3766A"/>
<path d="M260.18 47.2305C260.18 47.2305 260.212 47.2613 260.18 47.2675C259.05 47.6682 258.428 48.6609 257.976 49.6968C258.044 49.5896 258.135 49.4983 258.243 49.4292C258.351 49.3601 258.472 49.3149 258.6 49.2967C258.727 49.2785 258.857 49.2878 258.98 49.3239C259.103 49.3599 259.217 49.422 259.314 49.5056C259.345 49.5056 259.314 49.5673 259.282 49.5611C259.089 49.4947 258.879 49.4881 258.681 49.5421C258.484 49.5961 258.308 49.7082 258.177 49.8632C257.961 50.1236 257.776 50.407 257.624 50.7079C257.568 50.8066 257.386 50.7449 257.43 50.634C257.48 49.2158 258.654 47.3106 260.18 47.2305Z" fill="#263238"/>
<path d="M251.231 58.9885L252.657 63.3045L258.309 58.3719L259.697 60.1723C259.697 60.1723 253.925 68.2433 253.919 67.861L252.412 64.1308L249.705 66.4737L250.333 60.1847L251.231 58.9885Z" fill="#FFEB3B"/>
<path d="M249.856 63.3231C249.994 62.2872 250.107 61.239 250.296 60.2402C250.296 60.2032 250.365 60.1909 250.371 60.2402C250.515 61.2575 249.95 65.2098 249.887 66.1655C250 66.0668 252.399 64.1184 252.399 64.1493C252.745 64.7658 253.85 67.4664 253.919 67.7069C254.836 66.4244 258.679 61.387 259.734 60.1847C259.766 60.1847 259.822 60.1847 259.797 60.2279C258.975 61.5905 254.001 68.2433 253.938 68.2433C253.341 66.9587 252.815 65.6435 252.362 64.3034C251.474 65.1974 250.525 66.0316 249.523 66.8005C249.569 65.6362 249.68 64.4753 249.856 63.3231V63.3231Z" fill="#263238"/>
</g>
<defs>
<clipPath id="clip0_2401_18559">
<rect width="328" height="180" fill="white"/>
</clipPath>
</defs>
</svg>
