<svg width="328" height="180" viewBox="0 0 328 180" fill="none" xmlns="http://www.w3.org/2000/svg">
<g clip-path="url(#clip0_2401_16596)">
<rect width="328" height="180" rx="8" fill="#26A69A" fill-opacity="0.4"/>
<path d="M287.686 45.2828H268.577V67.8806H287.686V45.2828Z" fill="white"/>
<path d="M278.818 46.8173C278.827 46.9127 278.816 47.0088 278.785 47.0996C278.755 47.1904 278.706 47.2738 278.641 47.3445C278.577 47.4153 278.498 47.4718 278.41 47.5105C278.322 47.5492 278.227 47.5691 278.131 47.5691C278.035 47.5691 277.941 47.5492 277.853 47.5105C277.765 47.4718 277.686 47.4153 277.622 47.3445C277.557 47.2738 277.508 47.1904 277.477 47.0996C277.447 47.0088 277.436 46.9127 277.445 46.8173C277.46 46.6464 277.54 46.4876 277.667 46.3719C277.794 46.2563 277.959 46.1921 278.131 46.1921C278.303 46.1921 278.469 46.2563 278.596 46.3719C278.723 46.4876 278.803 46.6464 278.818 46.8173V46.8173Z" fill="#455A64"/>
<path d="M272.213 49.8106C274.142 49.6589 276.077 49.653 278.006 49.6297C279.935 49.6064 281.87 49.6589 283.805 49.8106C281.87 49.9564 279.941 49.9681 278.006 49.9856C276.071 50.0031 274.142 49.9564 272.213 49.8106Z" fill="#EBEBEB"/>
<path d="M272.213 51.596C274.306 51.3547 276.421 51.3547 278.514 51.596C276.421 51.8372 274.306 51.8372 272.213 51.596V51.596Z" fill="#EBEBEB"/>
<path d="M272.213 55.1668C273.89 55.0267 275.568 54.9976 277.252 54.9859C278.935 54.9742 280.607 55.0267 282.285 55.1668C280.607 55.3068 278.929 55.3418 277.252 55.3476C275.574 55.3535 273.89 55.3068 272.213 55.1668Z" fill="#EBEBEB"/>
<path d="M272.213 56.9522C273.668 56.8122 275.136 56.783 276.591 56.7713C278.047 56.7597 279.514 56.8122 280.964 56.9522C279.508 57.0923 278.041 57.1273 276.591 57.1331C275.141 57.1389 273.668 57.0923 272.213 56.9522Z" fill="#EBEBEB"/>
<path d="M272.213 58.7376C274.077 58.5918 275.948 58.5801 277.813 58.5626C279.678 58.5451 281.548 58.5626 283.413 58.7376C281.548 58.8893 279.683 58.8952 277.813 58.9185C275.942 58.9419 274.077 58.8893 272.213 58.7376Z" fill="#EBEBEB"/>
<path d="M272.213 60.523C274.619 60.2895 277.043 60.2895 279.45 60.523C277.043 60.764 274.619 60.764 272.213 60.523V60.523Z" fill="#EBEBEB"/>
<path d="M272.213 62.3085C274.142 62.1626 276.077 62.151 278.006 62.1335C279.935 62.116 281.87 62.1335 283.805 62.3085C281.87 62.4602 279.941 62.4719 278.006 62.4894C276.071 62.5069 274.142 62.4719 272.213 62.3085Z" fill="#EBEBEB"/>
<path d="M272.213 64.0998C274.142 63.9481 276.077 63.9364 278.006 63.9189C279.935 63.9014 281.87 63.9189 283.805 64.0998C281.87 64.2456 279.941 64.2573 278.006 64.2748C276.071 64.2923 274.142 64.2223 272.213 64.0998Z" fill="#EBEBEB"/>
<path d="M313.203 59.3737H290.592V86.1141H313.203V59.3737Z" fill="white"/>
<path d="M302.587 62.9794C302.596 63.0748 302.584 63.1709 302.554 63.2617C302.523 63.3525 302.474 63.4359 302.41 63.5067C302.345 63.5774 302.266 63.6339 302.179 63.6726C302.091 63.7113 301.996 63.7312 301.9 63.7312C301.804 63.7312 301.709 63.7113 301.621 63.6726C301.534 63.6339 301.455 63.5774 301.39 63.5067C301.326 63.4359 301.276 63.3525 301.246 63.2617C301.215 63.1709 301.204 63.0748 301.213 62.9794C301.229 62.8085 301.308 62.6497 301.435 62.534C301.562 62.4184 301.728 62.3542 301.9 62.3542C302.072 62.3542 302.238 62.4184 302.365 62.534C302.492 62.6497 302.571 62.8085 302.587 62.9794V62.9794Z" fill="#455A64"/>
<path d="M293.754 66.0427C295.418 65.8093 297.106 65.8093 298.77 66.0427C297.106 66.2839 295.417 66.2839 293.754 66.0427V66.0427Z" fill="#EBEBEB"/>
<path d="M293.754 68.0615C295.912 67.8203 298.09 67.8203 300.248 68.0615C299.172 68.1886 298.088 68.249 297.004 68.2424C295.918 68.2459 294.833 68.1855 293.754 68.0615V68.0615Z" fill="#EBEBEB"/>
<path d="M293.754 70.057C294.752 69.9299 295.758 69.8695 296.764 69.8761C297.769 69.8666 298.773 69.927 299.769 70.057C298.773 70.1821 297.769 70.2406 296.764 70.232C295.758 70.2377 294.753 70.1792 293.754 70.057V70.057Z" fill="#EBEBEB"/>
<path d="M293.754 72.0932C294.753 71.9691 295.758 71.9086 296.764 71.9124C297.769 71.9057 298.773 71.9661 299.769 72.0932C297.771 72.3344 295.752 72.3344 293.754 72.0932V72.0932Z" fill="#EBEBEB"/>
<path d="M293.754 74.1412C295.488 73.9 297.246 73.9 298.98 74.1412C297.246 74.3746 295.488 74.3746 293.754 74.1412V74.1412Z" fill="#EBEBEB"/>
<path d="M293.754 76.125C295.979 75.8917 298.222 75.8917 300.447 76.125C298.223 76.3663 295.978 76.3663 293.754 76.125V76.125Z" fill="#EBEBEB"/>
<path d="M293.754 78.1438C295.587 77.9026 297.445 77.9026 299.278 78.1438C297.445 78.385 295.587 78.385 293.754 78.1438Z" fill="#EBEBEB"/>
<path d="M293.754 80.1569C296.055 79.9235 298.374 79.9235 300.675 80.1569C299.526 80.2871 298.371 80.3475 297.215 80.3378C296.058 80.3443 294.903 80.2839 293.754 80.1569V80.1569Z" fill="#EBEBEB"/>
<path d="M293.754 82.1756C296.055 81.9345 298.374 81.9345 300.675 82.1756C299.526 82.3029 298.371 82.3633 297.215 82.3565C296.059 82.3601 294.903 82.2997 293.754 82.1756V82.1756Z" fill="#EBEBEB"/>
<path d="M303.639 66.0427C305.823 65.8093 308.026 65.8093 310.209 66.0427C308.026 66.2839 305.822 66.2839 303.639 66.0427Z" fill="#EBEBEB"/>
<path d="M303.639 68.0615C305.069 67.8203 306.529 67.8203 307.959 68.0615C307.245 68.1883 306.521 68.2488 305.796 68.2423C305.073 68.2459 304.351 68.1854 303.639 68.0615V68.0615Z" fill="#EBEBEB"/>
<path d="M303.639 70.057C304.663 69.9299 305.694 69.8695 306.725 69.8761C307.759 69.8664 308.792 69.9268 309.818 70.057C308.792 70.1823 307.759 70.2408 306.725 70.2321C305.694 70.2377 304.663 70.1793 303.639 70.057V70.057Z" fill="#EBEBEB"/>
<path d="M303.639 72.0932C304.636 71.9691 305.639 71.9086 306.644 71.9124C307.65 71.9057 308.656 71.9661 309.654 72.0932C307.656 72.3344 305.637 72.3344 303.639 72.0932V72.0932Z" fill="#EBEBEB"/>
<path d="M303.639 74.1412C305.822 73.9 308.026 73.9 310.209 74.1412C308.026 74.3746 305.823 74.3746 303.639 74.1412Z" fill="#EBEBEB"/>
<path d="M303.639 76.1251C305.373 75.8917 307.131 75.8917 308.865 76.1251C307.131 76.3662 305.373 76.3662 303.639 76.1251V76.1251Z" fill="#EBEBEB"/>
<path d="M303.639 78.1439C305.691 77.9028 307.765 77.9028 309.818 78.1439C307.765 78.3851 305.691 78.3851 303.639 78.1439V78.1439Z" fill="#EBEBEB"/>
<path d="M303.639 80.1568C305.224 79.9232 306.835 79.9232 308.421 80.1568C307.631 80.2864 306.831 80.3469 306.03 80.3377C305.229 80.3444 304.429 80.2839 303.639 80.1568Z" fill="#EBEBEB"/>
<path d="M303.639 82.1756C305.157 81.9345 306.704 81.9345 308.222 82.1756C307.465 82.3027 306.698 82.3632 305.93 82.3565C305.163 82.3603 304.396 82.2998 303.639 82.1756V82.1756Z" fill="#EBEBEB"/>
<path d="M297.425 39.0688H285.927V50.5457H297.425V39.0688Z" fill="#FFEB3B"/>
<path d="M292.363 40.2358C292.363 40.3719 292.322 40.505 292.247 40.6183C292.171 40.7315 292.063 40.8197 291.937 40.8718C291.811 40.924 291.672 40.9376 291.538 40.911C291.405 40.8845 291.282 40.8189 291.185 40.7226C291.089 40.6263 291.023 40.5036 290.996 40.3701C290.97 40.2365 290.983 40.0981 291.036 39.9723C291.088 39.8465 291.176 39.739 291.29 39.6633C291.403 39.5876 291.537 39.5473 291.673 39.5473C291.764 39.5465 291.854 39.5638 291.938 39.5981C292.022 39.6324 292.098 39.6831 292.162 39.7472C292.227 39.8113 292.277 39.8875 292.312 39.9714C292.346 40.0553 292.364 40.1451 292.363 40.2358V40.2358Z" fill="#455A64"/>
<path d="M254.843 23H19.9347V137.395H254.843V23Z" fill="#455A64"/>
<path d="M249.909 28.0762H24.8684V132.319H249.909V28.0762Z" fill="#263238"/>
<path d="M263.232 137.395H11.5403V145.931H263.232V137.395Z" fill="#37474F"/>
<path d="M52.4541 134.81H27.1891V137.395H52.4541V134.81Z" fill="#FFEB3B"/>
<path d="M51.1447 129.215H28.4927V134.81H51.1447V129.215Z" fill="white"/>
<path d="M72.9492 135.54H56.6222V137.389H72.9492V135.54Z" fill="white"/>
<path d="M280.137 120.819C280.137 120.819 273.906 186.908 273.789 187.708C273.789 187.819 273.719 189.038 273.66 191.022C273.31 201.927 272.456 235.949 272.456 235.949H246.25C246.25 235.949 247.957 195.69 248.939 186.284C250.19 174.3 257.883 120.836 257.883 120.836L280.137 120.819Z" fill="#263238"/>
<path d="M270.638 189.942C271.445 176.219 272.659 162.527 274.28 148.866C275.198 141.17 276.303 133.503 277.402 125.831C277.402 125.767 277.519 125.767 277.507 125.831C275.484 139.49 274.046 153.254 272.83 166.995C271.614 180.735 270.732 194.482 270.165 208.252C269.849 216.059 269.609 223.865 269.352 231.666C269.345 231.699 269.328 231.729 269.301 231.75C269.275 231.772 269.243 231.783 269.209 231.783C269.175 231.783 269.143 231.772 269.116 231.75C269.09 231.729 269.072 231.699 269.066 231.666C269.416 217.751 269.82 203.835 270.638 189.942Z" fill="#37474F"/>
<path d="M261.227 120.819L273.204 206.898C273.374 200.48 273.543 194.546 273.654 191.022C273.713 189.038 273.76 187.813 273.783 187.708C273.906 186.908 280.137 120.819 280.137 120.819H261.227Z" fill="#37474F"/>
<path d="M309.126 227.798L283.463 235.179C283.463 235.179 271.117 192.031 270.164 181.768C269.217 171.604 268.3 150.844 267.896 135.767C267.896 135.767 263.629 133.247 262.548 131.876C261.466 130.504 260.496 125.539 258.362 120.79H289.607C297.072 135.266 291.454 141.707 291.454 144.864C291.454 160.104 293.763 180.333 294.494 183.332C296.032 189.616 309.126 227.798 309.126 227.798Z" fill="#263238"/>
<path d="M261.817 131.549C263.312 132.234 264.732 133.071 266.055 134.046C267.458 135.003 268.738 136.111 270.089 137.132C270.141 137.173 270.089 137.261 270.036 137.226C268.615 136.316 267.113 135.522 265.722 134.589C264.311 133.739 262.98 132.762 261.747 131.671C261.706 131.619 261.753 131.525 261.817 131.549Z" fill="#37474F"/>
<path d="M261.624 122.779C261.805 123.754 262.045 124.71 262.256 125.696C262.466 126.683 262.595 127.523 262.84 128.421C263.037 129.288 263.479 130.08 264.114 130.703C264.471 131.035 264.863 131.327 265.243 131.63C265.447 131.794 265.664 131.945 265.88 132.115C265.851 131.986 265.827 131.852 265.804 131.724C265.74 131.356 265.675 130.983 265.617 130.615C265.476 129.798 265.348 128.981 265.219 128.159C264.974 126.548 264.746 124.92 264.413 123.328C264.411 123.315 264.414 123.303 264.421 123.293C264.428 123.283 264.438 123.275 264.45 123.271C264.462 123.268 264.475 123.269 264.486 123.274C264.497 123.279 264.506 123.287 264.512 123.298C264.915 124.88 265.36 126.443 265.681 128.036C265.851 128.824 266.464 132.704 266.488 132.955C266.511 133.206 266.54 133.538 266.552 133.801C266.59 134.089 266.59 134.382 266.552 134.67C266.547 134.683 266.538 134.693 266.526 134.701C266.515 134.708 266.501 134.712 266.488 134.712C266.474 134.712 266.461 134.708 266.449 134.701C266.438 134.693 266.429 134.683 266.423 134.67V134.67C266.306 134.402 266.223 134.12 266.178 133.83C266.108 133.556 266.043 133.276 265.997 132.996C265.997 132.897 265.962 132.791 265.95 132.692C265.564 132.459 265.213 132.156 264.857 131.899C264.5 131.642 264.079 131.35 263.688 131.041C263.016 130.477 262.533 129.722 262.302 128.876C262.069 127.968 261.916 127.04 261.846 126.105C261.724 125.008 261.63 123.905 261.478 122.808C261.513 122.738 261.612 122.715 261.624 122.779Z" fill="#37474F"/>
<path d="M268.054 60.0911C263.185 64.2571 264.547 70.3368 262.507 73.6335C261.267 75.6464 257.216 77.7761 256.41 80.0983C255.083 83.9142 258.327 85.2854 257.579 87.3625C256.55 90.2799 252.61 90.0698 251.897 94.8776C251.184 99.6854 256.492 104.797 269.066 106.185C281.64 107.574 288.555 102.97 289.005 98.8919C289.455 94.8134 285.27 93.4598 284.989 90.4141C284.802 88.4653 287.386 87.1116 287.52 83.5291C287.655 79.9466 284.153 78.7797 283.651 75.7398C283.148 72.6999 284.761 65.3015 280.283 61.5323C275.806 57.7631 270.457 58.0373 268.054 60.0911Z" fill="#263238"/>
<path d="M268.621 60.202C267.261 61.1663 266.152 62.443 265.389 63.9245C264.599 65.4949 263.995 67.1513 263.588 68.8607C263.378 69.8791 263.051 70.8698 262.612 71.813C262.178 72.6006 261.606 73.3041 260.923 73.8902C259.566 75.1213 257.941 76.0549 256.72 77.4318C255.498 78.8088 254.662 80.4892 255.124 82.2747C255.375 83.2432 256.012 84.0251 256.41 84.9353C256.807 85.8455 256.942 86.8549 256.205 87.5667C255.574 88.1794 254.662 88.4536 253.949 88.9554C253.245 89.4348 252.625 90.0261 252.113 90.7058C251.592 91.3855 251.219 92.1663 251.018 92.9982C250.817 93.8301 250.791 94.6948 250.944 95.5369C251.687 99.4403 255.358 101.663 258.742 103.058C259.216 103.256 259.689 103.443 260.169 103.641C260.239 103.641 260.303 103.56 260.227 103.53C256.825 102.008 252.879 100.228 251.575 96.4296C251.279 95.602 251.177 94.7171 251.278 93.8438C251.38 92.9705 251.681 92.1323 252.16 91.3943C252.639 90.6614 253.247 90.0209 253.955 89.5038C254.639 89.0021 255.428 88.6928 256.123 88.2144C256.467 87.9935 256.747 87.6865 256.934 87.3241C257.122 86.9617 257.211 86.5565 257.193 86.1489C257.085 85.2541 256.764 84.3979 256.258 83.6516C255.731 82.8776 255.451 81.962 255.457 81.026C255.555 80.1135 255.903 79.2456 256.462 78.5171C257.521 77.0176 259.087 76.0373 260.496 74.9054C261.932 73.8509 263.002 72.3736 263.553 70.6811C263.816 69.7825 263.974 68.8607 264.202 67.9563C264.408 67.1172 264.658 66.2895 264.95 65.4765C265.507 63.8417 266.414 62.3482 267.61 61.1005C267.929 60.7837 268.277 60.4985 268.651 60.2486C268.703 60.2428 268.662 60.1728 268.621 60.202Z" fill="#263238"/>
<path d="M289.572 95.9045C289.422 95.238 289.126 94.6125 288.707 94.0724C288.269 93.5239 287.737 93.0513 287.252 92.5437C286.758 92.0861 286.401 91.5002 286.223 90.8516C286.146 90.052 286.353 89.2508 286.807 88.5878C287.235 87.8862 287.612 87.155 287.935 86.3998C288.361 85.2522 288.511 84.0213 288.374 82.8054C288.237 81.5896 287.816 80.4227 287.146 79.3981C286.72 78.698 286.234 78.027 285.802 77.3326C285.323 76.5726 284.948 75.7525 284.685 74.8937C284.101 73.0033 283.996 71.0078 283.516 69.094C283.031 67.1317 282.348 65.2237 281.476 63.3994C281.476 63.3527 281.388 63.3994 281.406 63.4402C282.182 65.0879 282.782 66.8129 283.195 68.5864C283.592 70.2668 283.75 71.9764 284.048 73.6743C284.176 74.5089 284.389 75.3282 284.685 76.119C284.987 76.849 285.35 77.5518 285.773 78.2195C286.626 79.6023 287.526 80.9677 287.737 82.6072C287.976 84.2193 287.691 85.8654 286.924 87.3041C286.264 88.5528 285.34 89.9298 285.919 91.3884C286.404 92.6254 287.591 93.3722 288.374 94.3933C288.788 94.9573 289.078 95.6025 289.224 96.2864C289.37 96.9703 289.369 97.6773 289.222 98.3609C288.549 101.862 285.018 103.612 281.716 103.793C281.694 103.793 281.673 103.802 281.658 103.817C281.642 103.832 281.634 103.853 281.634 103.875C281.634 103.896 281.642 103.917 281.658 103.932C281.673 103.948 281.694 103.956 281.716 103.956C284.592 103.921 287.713 102.661 289.064 99.9771C289.702 98.7199 289.882 97.2798 289.572 95.9045Z" fill="#263238"/>
<path d="M269.487 90.0173C265.71 95.2102 251.423 106.856 245.017 106.074C239.861 105.444 226.533 98.2326 223.762 95.3853C220.511 92.0536 228.041 81.5512 230.56 82.6248C233.711 83.9609 243.128 93.1856 246.244 93.1272C247.466 93.1272 255.749 89.9123 265.722 85.9739C269.586 84.451 271.749 86.9191 269.487 90.0173Z" fill="#EB9481"/>
<path d="M228.654 80.1334C226.591 79.404 224.276 78.3829 221.979 78.4413C219.681 78.4996 217.776 81.5162 217.776 82.3797C217.776 83.2433 218.641 88.652 220.938 88.652C223.236 88.652 221.85 84.4977 221.938 84.0251C222.025 83.5525 222.107 82.9399 222.522 82.9865C222.937 83.0332 230.537 86.6216 230.537 86.6216L228.654 80.1334Z" fill="#EB9481"/>
<path d="M228.508 80.4483C228.38 80.4483 222.224 78.0269 219.927 78.0678C217.63 78.1086 215.724 81.1368 215.724 82.0062C215.724 82.8756 216.589 88.2785 218.886 88.2785C221.184 88.2785 219.798 84.1242 219.886 83.6516C219.974 83.179 220.056 82.5663 220.471 82.6072C220.886 82.648 228.485 86.248 228.485 86.248L228.508 80.4483Z" fill="#EB9481"/>
<path d="M219.67 87.9869C219.911 87.5759 220.042 87.1096 220.049 86.6332C220.098 86.1438 220.071 85.6497 219.968 85.1687C219.84 84.757 219.746 84.3355 219.687 83.9084C219.69 83.4833 219.801 83.066 220.009 82.6948C220.184 82.3739 220.523 82.4847 220.815 82.5839C221.241 82.7544 221.657 82.9492 222.06 83.1674C222.499 83.3833 222.937 83.6108 223.37 83.8384C223.83 84.0514 224.275 84.2951 224.703 84.5677C224.709 84.5704 224.714 84.5749 224.718 84.5806C224.722 84.5863 224.724 84.593 224.724 84.5998C224.724 84.6066 224.722 84.6133 224.718 84.619C224.714 84.6247 224.709 84.6292 224.703 84.6319C224.305 84.4919 223.925 84.2877 223.534 84.1068L222.218 83.5233C221.809 83.3424 221.406 83.1382 220.991 82.9398C220.844 82.8757 220.552 82.7181 220.406 82.759C220.26 82.7998 220.143 83.2257 220.102 83.3424C220.006 83.7538 220.035 84.1842 220.184 84.5794C220.304 84.9908 220.384 85.4129 220.424 85.8397C220.464 86.2411 220.43 86.6464 220.324 87.0358C220.183 87.3859 219.998 87.7172 219.775 88.0219C219.71 88.0744 219.634 88.0277 219.67 87.9869Z" fill="#263238"/>
<path d="M235.792 86.464C235.792 86.464 229.426 80.6759 228.099 79.5265C225.439 77.1926 214.245 72.6532 212.684 72.4898C211.123 72.3265 210.562 75.518 218.162 78.8322C222.166 80.5826 222.879 82.8698 222.803 84.1417C222.727 85.4137 221.511 87.7768 219.372 87.7184C217.232 87.6601 215.864 84.5443 213.882 84.2176C211.901 83.8909 213.216 87.4617 214.601 89.5388C216.061 91.5328 218.058 93.0725 220.359 93.9791C222.213 94.6734 227.959 97.1356 227.959 97.1356L235.792 86.464Z" fill="#EB9481"/>
<path d="M216.723 86.213C217.53 86.8373 218.442 87.6425 219.5 87.6833C220.558 87.7242 221.312 87.0182 221.838 86.1255C222.403 85.2515 222.612 84.1956 222.423 83.1731C222.174 82.2515 221.665 81.421 220.956 80.7809C220.081 80.0005 219.096 79.3518 218.033 78.8554C217.986 78.8554 218.033 78.7621 218.08 78.7854C219.062 79.223 222.125 80.4775 222.756 83.1731C222.953 84.2144 222.744 85.2914 222.172 86.1838C221.698 87.0299 221.003 87.8525 219.974 87.9342C218.711 88.0334 217.635 87.0124 216.718 86.248C216.624 86.213 216.683 86.1838 216.723 86.213Z" fill="#263238"/>
<path d="M234.518 84.6435L230.291 103.53C230.291 103.53 240.644 106.757 245.841 106.722C251.038 106.687 263.729 97.5207 268.101 92.8646C272.474 88.2085 272.824 82.9456 264.459 85.8629C256.094 88.7803 246.513 92.5553 246.25 92.6079C245.987 92.6604 234.518 84.6435 234.518 84.6435Z" fill="#FFEB3B"/>
<path d="M236.055 95.2628C236.353 93.8916 237.482 88.4187 237.622 87.0533C237.622 87.0125 237.569 87.0125 237.558 87.0533C237.113 88.3778 235.862 93.8566 235.564 95.2219C234.98 97.9642 234.342 100.718 233.974 103.496C233.977 103.504 233.983 103.512 233.991 103.518C233.999 103.523 234.008 103.526 234.018 103.526C234.028 103.526 234.037 103.523 234.045 103.518C234.052 103.512 234.058 103.504 234.062 103.496C234.88 100.812 235.453 98.0226 236.055 95.2628Z" fill="#263238"/>
<path opacity="0.1" d="M268.101 92.8763C263.728 97.5441 251.043 106.693 245.841 106.734C243.824 106.676 241.818 106.428 239.849 105.993L271.012 86.394C271.538 87.911 270.352 90.4783 268.101 92.8763Z" fill="black"/>
<g opacity="0.1">
<path d="M260.624 99.2304L260.04 99.6622L253.329 89.9766L254.036 89.7082L260.624 99.2304Z" fill="black"/>
<path d="M258.929 100.397L258.345 100.812L251.33 90.7118L252.043 90.4434L258.929 100.397Z" fill="black"/>
</g>
<path d="M259.175 106.763L257.637 121.35C257.637 121.35 285.071 122.639 291.338 121.881C291.338 121.881 284.907 93.9966 277.308 85.443C277.138 85.2446 276.963 85.0579 276.788 84.8595C276.756 84.8198 276.72 84.7828 276.682 84.7486C273.175 81.2478 269.083 82.2981 266.575 85.0054C265.155 86.5516 257.941 95.7996 257.327 99.6913C256.772 103.128 259.175 106.763 259.175 106.763Z" fill="#FFEB3B"/>
<path d="M257.696 99.948C258.152 97.2115 259.59 94.9126 260.847 92.4912C260.847 92.4504 260.812 92.4212 260.782 92.4562C260.101 93.3921 259.475 94.3661 258.906 95.3736C259.052 94.9243 259.192 94.4692 259.327 94.0141C259.329 94.0041 259.329 93.9938 259.328 93.9837C259.326 93.9737 259.322 93.964 259.317 93.9553C259.312 93.9467 259.304 93.9391 259.296 93.9332C259.288 93.9273 259.278 93.923 259.268 93.9207C259.258 93.9184 259.248 93.9181 259.238 93.9198C259.228 93.9215 259.218 93.9252 259.209 93.9306C259.201 93.936 259.193 93.9431 259.187 93.9514C259.181 93.9597 259.177 93.9691 259.175 93.9791C258.947 94.6501 258.742 95.3327 258.555 96.0154C257.246 98.5768 256.509 101.413 257.515 104.184C257.845 105.169 258.454 106.039 259.268 106.687C259.277 106.693 259.288 106.695 259.298 106.694C259.309 106.692 259.318 106.688 259.326 106.68C259.333 106.673 259.338 106.663 259.339 106.653C259.34 106.642 259.338 106.632 259.333 106.623C258.595 105.693 258.067 104.616 257.785 103.464C257.502 102.312 257.472 101.113 257.696 99.948V99.948Z" fill="#263238"/>
<path d="M273.707 82.9574C273.502 83.4766 270.422 86.6099 267.967 86.1373C267.166 85.9856 267.82 81.5979 267.82 81.5979V81.2595L267.458 76.5917L273.304 73.9369L274.14 73.5927C274.14 73.5927 274.14 74.8821 274.14 76.51V76.7376C274.14 76.8309 274.14 76.9126 274.14 77.0001C274.14 77.2393 274.14 77.4844 274.14 77.7295C274.14 77.9745 274.14 78.097 274.14 78.3129C274.14 78.5288 274.14 78.698 274.14 78.8964C274.086 80.2581 273.941 81.6148 273.707 82.9574V82.9574Z" fill="#EB9481"/>
<path d="M274.122 76.4749C273.479 77.6846 272.58 78.7398 271.486 79.5671C270.393 80.3944 269.132 80.9739 267.791 81.2652L267.429 76.5974L273.275 73.9426L274.111 73.5984C274.111 73.5984 274.116 74.8645 274.122 76.4749Z" fill="#263238"/>
<path d="M262.279 68.4231C260.361 76.4516 264.968 78.5055 266.698 78.9256C268.276 79.299 273.713 80.3667 276.419 72.5774C279.126 64.7881 276.022 61.3631 272.462 60.3245C268.902 59.2859 264.19 60.3945 262.279 68.4231Z" fill="#EB9481"/>
<path d="M264.769 67.4661C264.965 67.4648 265.16 67.4512 265.354 67.4253C265.56 67.4449 265.767 67.3912 265.938 67.2736C265.985 67.2296 266.016 67.1711 266.025 67.1076C266.035 67.0441 266.023 66.9792 265.991 66.9235C265.91 66.8215 265.804 66.7428 265.683 66.6956C265.561 66.6484 265.43 66.6344 265.301 66.6551C265.035 66.6575 264.779 66.7572 264.582 66.9351C264.542 66.9772 264.514 67.0297 264.501 67.0867C264.489 67.1437 264.492 67.2031 264.512 67.2581C264.531 67.3132 264.565 67.3618 264.611 67.3985C264.656 67.4352 264.711 67.4586 264.769 67.4661V67.4661Z" fill="#263238"/>
<path d="M270.054 68.3414C269.87 68.2885 269.691 68.2242 269.516 68.1488C269.319 68.1066 269.14 68.0022 269.007 67.8513C268.974 67.7952 268.961 67.7297 268.969 67.6653C268.978 67.6008 269.008 67.541 269.054 67.4953C269.159 67.4187 269.283 67.3718 269.413 67.3595C269.542 67.3471 269.673 67.3699 269.791 67.4253C270.047 67.4977 270.266 67.6645 270.404 67.8921C270.434 67.9452 270.447 68.0058 270.443 68.0663C270.438 68.1269 270.416 68.1848 270.378 68.2327C270.341 68.2806 270.29 68.3165 270.232 68.3358C270.175 68.3551 270.112 68.3571 270.054 68.3414V68.3414Z" fill="#263238"/>
<path d="M268.674 70.2551C268.674 70.2551 268.715 70.2901 268.709 70.3076C268.598 70.8619 268.569 71.5096 269.042 71.778C268.434 71.6204 268.481 70.7569 268.674 70.2551Z" fill="#263238"/>
<path d="M269.264 69.7533C270.17 69.835 269.948 71.6321 269.107 71.5621C268.265 71.4921 268.528 69.6891 269.264 69.7533Z" fill="#263238"/>
<path d="M269.609 69.8934C269.749 70.0159 269.884 70.2143 270.071 70.2552C270.258 70.296 270.48 70.1385 270.656 69.9751C270.62 70.3193 270.439 70.6578 270.071 70.6636C269.703 70.6694 269.522 70.3369 269.486 69.9751C269.481 69.9343 269.551 69.8467 269.609 69.8934Z" fill="#263238"/>
<path d="M265.564 69.6542C265.564 69.6542 265.517 69.6542 265.517 69.7009C265.471 70.2844 265.319 70.8679 264.792 71.0196C264.792 71.0196 264.792 71.0546 264.792 71.0196C265.424 71.0371 265.605 70.191 265.564 69.6542Z" fill="#263238"/>
<path d="M265.131 69.0124C264.243 68.8432 263.962 70.6344 264.787 70.7919C265.611 70.9495 265.88 69.1582 265.131 69.0124Z" fill="#263238"/>
<path d="M264.74 69.0707C264.582 69.1465 264.418 69.2982 264.243 69.2807C264.068 69.2632 263.933 69.0474 263.834 68.8431C263.834 68.8431 263.834 68.8431 263.804 68.8431C263.74 69.1816 263.804 69.555 264.12 69.6717C264.436 69.7884 264.675 69.52 264.81 69.1932C264.833 69.1465 264.804 69.0415 264.74 69.0707Z" fill="#263238"/>
<path d="M265.985 72.2564C265.985 72.2564 265.757 73.0732 265.704 73.4642C265.704 73.4992 265.792 73.5284 265.927 73.5575C266.255 73.665 266.607 73.6799 266.943 73.6007C267.279 73.5214 267.587 73.351 267.832 73.1083C267.867 73.0732 267.832 73.0266 267.78 73.0441C267.238 73.3157 266.623 73.4058 266.026 73.3008C266.026 73.1899 266.464 71.918 266.4 71.9063C266.092 71.8922 265.783 71.9197 265.482 71.988C265.909 70.2726 266.605 68.6389 267.002 66.9293C267.002 66.8651 266.926 66.8359 266.903 66.8885C266.101 68.6149 265.474 70.4171 265.032 72.2681C264.974 72.4839 265.821 72.3031 265.985 72.2564Z" fill="#263238"/>
<path d="M265.997 73.2601C266.154 73.6232 266.402 73.9405 266.716 74.182C266.887 74.3019 267.091 74.3689 267.3 74.3745C267.774 74.3745 267.885 73.9661 267.885 73.5985C267.886 73.4022 267.865 73.2063 267.82 73.015C267.253 73.2851 266.615 73.3708 265.997 73.2601V73.2601Z" fill="#263238"/>
<path d="M266.716 74.182C266.887 74.3019 267.091 74.3689 267.3 74.3745C267.774 74.3745 267.885 73.9661 267.885 73.5985C267.653 73.5551 267.413 73.5886 267.202 73.694C266.991 73.7993 266.82 73.9707 266.716 74.182V74.182Z" fill="#FFA2BE"/>
<path d="M276.238 71.918C274.344 71.6671 274.789 68.6973 274.789 68.6973C274.789 68.6973 272.673 68.1955 273.035 64.7238C272.52 65.3583 271.865 65.8643 271.12 66.2015C270.375 66.5388 269.562 66.6981 268.744 66.6668C268.119 66.6668 270.404 65.3773 270.404 65.3773C270.404 65.3773 267.616 67.2503 263.162 65.7507C262.846 65.6399 263.939 60.4003 267.768 59.2742C271.597 58.1481 274.993 60.0561 276.887 62.635C276.887 62.635 279.348 64.2279 279.284 66.7601C279.22 69.2924 276.975 72.0172 276.238 71.918Z" fill="#263238"/>
<path d="M268.867 73.7502C268.209 73.4902 267.682 72.9806 267.4 72.3331C267.119 71.6856 267.106 70.9531 267.365 70.2961V70.2961C267.548 69.8331 267.858 69.4307 268.259 69.1347C268.66 68.8387 269.136 68.6609 269.633 68.6216C270.13 68.5823 270.629 68.683 271.071 68.9123C271.514 69.1416 271.883 69.4902 272.137 69.9186C272.392 70.347 272.52 70.838 272.508 71.3357C272.497 71.8334 272.346 72.3179 272.072 72.7341C271.798 73.1502 271.413 73.4814 270.96 73.6899C270.507 73.8984 270.005 73.9759 269.51 73.9136C269.29 73.884 269.074 73.8292 268.867 73.7502V73.7502ZM267.698 70.4303C267.53 70.8545 267.493 71.3187 267.59 71.7642C267.687 72.2096 267.914 72.6163 268.243 72.9329C268.572 73.2494 268.987 73.4615 269.437 73.5424C269.886 73.6233 270.35 73.5693 270.768 73.3872C271.187 73.2052 271.542 72.9033 271.789 72.5197C272.036 72.1361 272.163 71.6881 272.155 71.2323C272.147 70.7765 272.003 70.3334 271.742 69.959C271.482 69.5846 271.116 69.2958 270.691 69.1291C270.504 69.0529 270.307 69.0037 270.106 68.9833C269.602 68.9312 269.094 69.0442 268.66 69.3052C268.225 69.5662 267.888 69.9611 267.698 70.4303V70.4303Z" fill="#FFEB3B"/>
<path d="M263.407 72.3906C262.349 72.128 261.77 70.7569 262.121 69.3332C262.272 68.6865 262.619 68.1019 263.115 67.6587C263.318 67.4586 263.569 67.3139 263.844 67.2385C264.119 67.1631 264.409 67.1595 264.686 67.228C264.963 67.2965 265.218 67.4349 265.426 67.6298C265.634 67.8248 265.788 68.0697 265.874 68.3413C266.11 68.9625 266.145 69.6422 265.973 70.2843C265.64 71.6321 264.594 72.5481 263.582 72.4198L263.407 72.3906ZM263.349 67.9329C262.907 68.3225 262.601 68.8411 262.472 69.4149C262.162 70.6519 262.624 71.8305 263.495 72.0464C264.366 72.2622 265.325 71.4279 265.628 70.1968C265.789 69.6195 265.76 69.0061 265.547 68.4463C265.474 68.2312 265.351 68.0367 265.187 67.8792C265.023 67.7218 264.824 67.6061 264.605 67.542H264.471C264.267 67.5235 264.062 67.5482 263.869 67.6146C263.675 67.681 263.498 67.7875 263.349 67.9271V67.9329Z" fill="#FFEB3B"/>
<path d="M267.359 70.6402L267.645 70.4301C267.335 70.0042 266.54 69.339 265.74 69.8467L265.932 70.1442C266.669 69.6658 267.359 70.5818 267.359 70.6402Z" fill="#FFEB3B"/>
<path d="M278.74 74.1411L279.085 74.0594C279.05 73.896 278.688 72.4723 277.945 72.1573C277.203 71.8422 272.509 71.1537 272.31 71.1245L272.257 71.4746C273.614 71.6788 277.273 72.2564 277.805 72.484C278.337 72.7116 278.647 73.7385 278.74 74.1411Z" fill="#FFEB3B"/>
<path d="M274.993 72.2973C274.993 72.2973 277.156 70.0101 278.22 70.8153C279.284 71.6205 277.396 75.1213 275.958 75.4247C275.776 75.4782 275.585 75.4941 275.396 75.4715C275.208 75.4489 275.026 75.3882 274.862 75.2933C274.698 75.1983 274.555 75.0709 274.442 74.919C274.329 74.767 274.248 74.5937 274.204 74.4095L274.993 72.2973Z" fill="#EB9481"/>
<path d="M266.727 84.8187C266.85 84.6961 266.558 82.2864 266.669 82.193C266.979 81.9305 267.727 82.6715 269.054 82.6248C271.357 82.549 273.836 80.3493 274.368 80.5243C274.899 80.6994 274.853 83.36 274.952 83.4417C275.051 83.5234 270.141 87.9227 268.574 87.4968C267.008 87.0709 266.727 84.8187 266.727 84.8187Z" fill="#FFEB3B"/>
<path d="M267.528 84.5852C267.481 84.0018 267.382 83.465 267.353 82.9048C267.355 82.8978 267.356 82.8902 267.355 82.8827C267.354 82.8753 267.351 82.8681 267.347 82.862C267.343 82.8558 267.337 82.8507 267.33 82.8472C267.324 82.8437 267.316 82.8419 267.309 82.8419C267.301 82.8419 267.294 82.8437 267.287 82.8472C267.281 82.8507 267.275 82.8558 267.27 82.862C267.266 82.8681 267.263 82.8753 267.262 82.8827C267.262 82.8902 267.262 82.8978 267.265 82.9048C267.23 83.4761 267.23 84.049 267.265 84.6202C267.309 85.1797 267.418 85.732 267.592 86.2656C267.592 86.2749 267.595 86.2838 267.602 86.2904C267.609 86.297 267.618 86.3006 267.627 86.3006C267.636 86.3006 267.645 86.297 267.652 86.2904C267.658 86.2838 267.662 86.2749 267.662 86.2656C267.638 85.6997 267.58 85.1395 267.528 84.5852Z" fill="#263238"/>
<path d="M268.861 86.4873L268.826 86.0905C268.826 85.8046 268.768 85.5071 268.738 85.227C268.709 84.9469 268.686 84.6435 268.656 84.3576C268.619 84.0711 268.595 83.7829 268.586 83.4941C268.586 83.4299 268.499 83.4357 268.493 83.4941C268.493 83.7858 268.417 84.0776 268.405 84.3635C268.393 84.6494 268.405 84.9469 268.405 85.2678C268.426 85.5481 268.465 85.8268 268.522 86.1022C268.551 86.2422 268.592 86.3823 268.627 86.5223C268.662 86.6623 268.75 86.8082 268.791 86.9599C268.791 86.9949 268.867 86.9891 268.861 86.9599C268.855 86.8024 268.873 86.639 268.861 86.4873Z" fill="#263238"/>
<path d="M269.971 83.2198C269.971 83.1673 269.884 83.1848 269.884 83.2198C269.809 84.2604 269.912 85.3061 270.187 86.3122H270.24C270.287 85.2741 270.196 84.2344 269.971 83.2198Z" fill="#263238"/>
<path d="M271.45 84.2001C271.45 83.955 271.45 83.71 271.392 83.4649C271.38 83.2344 271.345 83.0056 271.287 82.7823C271.287 82.7356 271.205 82.7356 271.199 82.7823C271.153 83.0086 271.135 83.24 271.147 83.4708C271.147 83.7275 271.147 83.9842 271.182 84.2351C271.231 84.7197 271.309 85.201 271.415 85.6763C271.415 85.7171 271.485 85.6763 271.485 85.6763C271.485 85.1803 271.497 84.6902 271.45 84.2001Z" fill="#263238"/>
<path d="M272.62 82.082C272.62 82.0295 272.526 82.047 272.526 82.082C272.493 82.9478 272.582 83.8139 272.789 84.6551H272.835C272.882 83.7916 272.809 82.9257 272.62 82.082V82.082Z" fill="#263238"/>
<path d="M274.081 82.6306C274.081 82.4147 273.865 81.4287 273.83 81.2361C273.83 81.2238 273.825 81.2119 273.816 81.2031C273.807 81.1944 273.795 81.1895 273.783 81.1895C273.771 81.1895 273.759 81.1944 273.75 81.2031C273.741 81.2119 273.736 81.2238 273.736 81.2361C273.736 81.4754 273.83 82.4031 273.859 82.6248C273.917 83.0741 273.958 83.5292 274.028 83.9784H274.063C274.103 83.5303 274.109 83.0797 274.081 82.6306Z" fill="#263238"/>
<path d="M252.481 123.147L273.508 125.119L273.637 96.5989L252.61 94.6209L252.481 123.147Z" fill="#EBEBEB"/>
<path d="M251.043 123.013L272.07 124.985L272.199 96.4588L251.172 94.4866L251.043 123.013Z" fill="#37474F"/>
<path d="M269.966 96.2546C269.944 96.4811 269.977 96.7096 270.064 96.9201C270.151 97.1307 270.287 97.3168 270.463 97.4624C270.621 97.5908 270.773 97.3282 270.609 97.2057C270.5 97.1097 270.413 96.9921 270.353 96.8605C270.292 96.7289 270.26 96.5861 270.258 96.4413C270.255 96.3889 270.255 96.3362 270.258 96.2838C270.265 96.0963 270.319 95.9136 270.416 95.7528C270.46 95.6776 270.525 95.6168 270.603 95.5778H270.644C270.691 95.5609 270.743 95.5609 270.79 95.5778C270.868 95.6175 270.932 95.6808 270.971 95.7587C271.023 95.8554 271.058 95.9599 271.077 96.0679C271.092 96.1236 271.103 96.1801 271.112 96.2371V96.2721C271.114 96.2915 271.114 96.3111 271.112 96.3305C271.112 96.3305 271.112 96.3305 271.112 96.3655H271.41C271.409 96.1673 271.378 95.9705 271.316 95.782C271.279 95.642 271.205 95.5143 271.103 95.4118C271 95.3094 270.872 95.2358 270.732 95.1985C270.599 95.1943 270.468 95.2298 270.355 95.3005C270.243 95.3712 270.154 95.4738 270.1 95.5953C270 95.8001 269.954 96.027 269.966 96.2546Z" fill="#A6A6A6"/>
<path d="M268.317 96.097C268.297 96.3243 268.331 96.5531 268.418 96.7643C268.504 96.9755 268.64 97.1629 268.814 97.3106C268.978 97.439 269.124 97.1706 268.966 97.0481C268.855 96.9539 268.766 96.8368 268.704 96.7048C268.643 96.5729 268.61 96.4293 268.61 96.2837C268.607 96.2313 268.607 96.1787 268.61 96.1262C268.622 95.9415 268.676 95.762 268.767 95.6011C268.815 95.5275 268.879 95.4657 268.955 95.4202V95.4202H269.031C269.076 95.4059 269.125 95.4059 269.171 95.4202C269.251 95.4596 269.316 95.5228 269.358 95.6011C269.41 95.6954 269.446 95.7981 269.463 95.9045C269.478 95.9601 269.49 96.0166 269.498 96.0737V96.1145C269.501 96.1319 269.501 96.1497 269.498 96.167C269.498 96.167 269.498 96.1962 269.498 96.2079H269.796C269.797 96.0097 269.765 95.8126 269.703 95.6244C269.664 95.4795 269.585 95.3481 269.476 95.2451C269.366 95.1421 269.23 95.0714 269.083 95.0409C268.95 95.0359 268.819 95.071 268.706 95.1418C268.593 95.2126 268.505 95.3158 268.452 95.4377C268.358 95.6445 268.312 95.8699 268.317 96.097Z" fill="#A6A6A6"/>
<path d="M266.675 95.9454C266.653 96.1719 266.686 96.4004 266.773 96.6109C266.86 96.8215 266.996 97.0076 267.172 97.1532C267.33 97.2816 267.482 97.019 267.318 96.8965C267.209 96.8005 267.122 96.6829 267.062 96.5513C267.001 96.4197 266.969 96.2769 266.967 96.1321C266.964 96.0796 266.964 96.027 266.967 95.9746C266.974 95.7871 267.028 95.6044 267.125 95.4436C267.169 95.3684 267.234 95.3076 267.312 95.2686V95.2686H267.353C267.398 95.2516 267.448 95.2516 267.493 95.2686C267.573 95.3083 267.638 95.3714 267.68 95.4495C267.732 95.5462 267.767 95.6507 267.786 95.7587C267.801 95.8143 267.812 95.8708 267.821 95.9279V95.9629C267.823 95.9822 267.823 96.0019 267.821 96.0213C267.821 96.0213 267.821 96.0213 267.821 96.0563L268.119 96.0854C268.119 95.8872 268.088 95.6902 268.025 95.502C267.986 95.3573 267.907 95.2263 267.797 95.1234C267.688 95.0205 267.553 94.9496 267.406 94.9185C267.274 94.9146 267.143 94.9504 267.032 95.0211C266.92 95.0918 266.833 95.1943 266.78 95.3153C266.695 95.5138 266.659 95.73 266.675 95.9454V95.9454Z" fill="#A6A6A6"/>
<path d="M265.02 95.7878C265 96.0151 265.034 96.2439 265.12 96.4551C265.207 96.6663 265.343 96.8537 265.517 97.0014C265.681 97.1298 265.827 96.8614 265.669 96.7389C265.558 96.6447 265.469 96.5276 265.407 96.3957C265.345 96.2637 265.313 96.1201 265.313 95.9745C265.31 95.9221 265.31 95.8695 265.313 95.817C265.325 95.6323 265.379 95.4528 265.47 95.2919C265.518 95.2183 265.582 95.1565 265.657 95.111H265.728C265.775 95.0962 265.826 95.0962 265.874 95.111C265.953 95.1489 266.017 95.2127 266.055 95.2919C266.112 95.3848 266.149 95.4879 266.166 95.5953C266.181 95.6509 266.193 95.7074 266.201 95.7645V95.8053C266.204 95.8227 266.204 95.8405 266.201 95.8578C266.201 95.8578 266.201 95.887 266.201 95.8987H266.499C266.5 95.7004 266.468 95.5034 266.406 95.3152C266.365 95.1709 266.286 95.0402 266.177 94.9374C266.068 94.8346 265.933 94.7635 265.786 94.7317C265.653 94.7267 265.522 94.7618 265.409 94.8326C265.296 94.9035 265.208 95.0066 265.155 95.1285C265.057 95.3343 265.011 95.5605 265.02 95.7878V95.7878Z" fill="#A6A6A6"/>
<path d="M263.384 95.6361C263.361 95.8627 263.395 96.0911 263.482 96.3017C263.568 96.5122 263.705 96.6984 263.88 96.8439C264.038 96.9723 264.19 96.7097 264.027 96.5872C263.917 96.4922 263.829 96.3748 263.768 96.243C263.708 96.1111 263.676 95.9679 263.676 95.8229C263.673 95.7704 263.673 95.7178 263.676 95.6653C263.691 95.4805 263.751 95.3021 263.851 95.146C263.895 95.0708 263.96 95.01 264.038 94.971H264.079C264.124 94.954 264.174 94.954 264.22 94.971C264.299 95.0107 264.364 95.0738 264.407 95.1519C264.458 95.2486 264.494 95.3531 264.512 95.4611C264.527 95.5168 264.539 95.5733 264.547 95.6303V95.6653C264.55 95.6847 264.55 95.7043 264.547 95.7237C264.547 95.7237 264.547 95.7237 264.547 95.7587L264.845 95.7879C264.845 95.5896 264.814 95.3926 264.751 95.2044C264.712 95.0594 264.634 94.9281 264.524 94.8251C264.415 94.7221 264.279 94.6514 264.132 94.6209C264 94.6141 263.869 94.648 263.757 94.7179C263.645 94.7878 263.558 94.8905 263.506 95.0118C263.416 95.2071 263.374 95.4212 263.384 95.6361V95.6361Z" fill="#A6A6A6"/>
<path d="M261.735 95.4786C261.714 95.7059 261.749 95.9347 261.835 96.1459C261.922 96.3571 262.058 96.5445 262.232 96.6922C262.396 96.8206 262.542 96.5522 262.384 96.4297C262.273 96.3355 262.183 96.2184 262.122 96.0864C262.06 95.9545 262.028 95.8109 262.027 95.6653C262.025 95.6129 262.025 95.5603 262.027 95.5078C262.037 95.3227 262.092 95.1427 262.185 94.9827C262.231 94.907 262.295 94.8446 262.372 94.8018V94.8018H262.442C262.49 94.787 262.541 94.787 262.589 94.8018C262.668 94.8397 262.732 94.9035 262.77 94.9827C262.825 95.076 262.863 95.1789 262.881 95.2861C262.896 95.3417 262.908 95.3982 262.916 95.4553V95.4961C262.919 95.5135 262.919 95.5313 262.916 95.5486C262.916 95.5486 262.916 95.5778 262.916 95.5895H263.22C263.22 95.3912 263.189 95.1942 263.126 95.006C263.086 94.8619 263.006 94.7316 262.897 94.6289C262.788 94.5262 262.653 94.4548 262.507 94.4225C262.374 94.4175 262.242 94.4526 262.13 94.5234C262.017 94.5942 261.928 94.6974 261.875 94.8193C261.776 95.0245 261.728 95.2508 261.735 95.4786Z" fill="#A6A6A6"/>
<path d="M260.093 95.3269C260.069 95.5535 260.103 95.7823 260.189 95.993C260.276 96.2037 260.413 96.3898 260.59 96.5347C260.747 96.663 260.899 96.4005 260.736 96.278C260.626 96.1829 260.538 96.0656 260.477 95.9337C260.417 95.8019 260.385 95.6586 260.385 95.5136C260.382 95.4611 260.382 95.4085 260.385 95.3561C260.392 95.1687 260.447 94.9862 260.543 94.8251C260.587 94.7499 260.652 94.6891 260.73 94.6501H260.771C260.816 94.633 260.866 94.633 260.911 94.6501C260.991 94.6897 261.056 94.7529 261.098 94.831C261.15 94.9277 261.185 95.0321 261.203 95.1402C261.218 95.1958 261.23 95.2523 261.238 95.3094V95.3444C261.241 95.3637 261.241 95.3834 261.238 95.4028C261.238 95.4028 261.238 95.4028 261.238 95.4378L261.537 95.4669C261.537 95.2687 261.505 95.0717 261.443 94.8835C261.404 94.7385 261.325 94.6072 261.216 94.5042C261.107 94.4012 260.971 94.3305 260.823 94.3C260.692 94.2932 260.561 94.327 260.449 94.397C260.337 94.4669 260.249 94.5695 260.198 94.6909C260.112 94.8912 260.075 95.1095 260.093 95.3269Z" fill="#A6A6A6"/>
<path d="M258.444 95.146C258.423 95.3733 258.458 95.6021 258.544 95.8133C258.631 96.0245 258.767 96.2119 258.941 96.3597C259.105 96.488 259.251 96.2255 259.093 96.1029C258.982 96.0071 258.893 95.8889 258.832 95.7561C258.77 95.6233 258.738 95.479 258.736 95.3328C258.734 95.2803 258.734 95.2277 258.736 95.1752C258.746 94.9901 258.801 94.8101 258.894 94.6501C258.94 94.5744 259.004 94.5121 259.081 94.4692V94.4692H259.175C259.222 94.4544 259.273 94.4544 259.321 94.4692C259.4 94.5071 259.464 94.5709 259.502 94.6501C259.556 94.7437 259.592 94.8466 259.607 94.9535C259.627 95.0082 259.641 95.065 259.648 95.1227V95.1635C259.651 95.1809 259.651 95.1987 259.648 95.2161C259.648 95.2161 259.648 95.2452 259.648 95.2569H259.946C259.952 95.0588 259.922 94.8612 259.859 94.6734C259.818 94.5294 259.739 94.399 259.63 94.2963C259.521 94.1936 259.386 94.1223 259.239 94.09C259.094 94.0866 258.952 94.1311 258.834 94.2165C258.717 94.3019 258.631 94.4236 258.59 94.5626C258.5 94.7443 258.45 94.9433 258.444 95.146Z" fill="#A6A6A6"/>
<path d="M256.801 95.0177C256.778 95.2437 256.81 95.4721 256.896 95.6827C256.982 95.8932 257.118 96.0796 257.292 96.2255C257.456 96.3538 257.608 96.0913 257.444 95.9688C257.335 95.8737 257.246 95.7564 257.186 95.6245C257.125 95.4927 257.094 95.3494 257.094 95.2044C257.091 95.1519 257.091 95.0993 257.094 95.0469C257.101 94.8595 257.155 94.677 257.251 94.5159C257.295 94.4423 257.358 94.3818 257.433 94.3409V94.3409H257.474C257.519 94.3238 257.569 94.3238 257.614 94.3409C257.693 94.3805 257.759 94.4437 257.801 94.5217C257.852 94.6185 257.888 94.7229 257.906 94.831C257.921 94.8866 257.933 94.9431 257.941 95.0002V95.0352C257.944 95.0545 257.944 95.0742 257.941 95.0935C257.941 95.0935 257.941 95.0935 257.941 95.1286L258.239 95.1577C258.24 94.9595 258.208 94.7625 258.146 94.5743C258.107 94.4293 258.028 94.298 257.919 94.195C257.809 94.092 257.673 94.0213 257.526 93.9908C257.394 93.984 257.264 94.0178 257.152 94.0878C257.04 94.1577 256.952 94.2603 256.901 94.3817C256.816 94.5825 256.782 94.8008 256.801 95.0177Z" fill="#A6A6A6"/>
<path d="M255.153 94.866C255.133 95.0923 255.167 95.3202 255.254 95.5304C255.34 95.7406 255.476 95.9269 255.65 96.0738C255.808 96.2021 255.96 95.9396 255.802 95.817C255.691 95.7212 255.602 95.603 255.541 95.4702C255.479 95.3374 255.447 95.1931 255.445 95.0469C255.442 94.9944 255.442 94.9418 255.445 94.8893C255.455 94.7043 255.509 94.5243 255.603 94.3642C255.648 94.2886 255.713 94.2262 255.79 94.1833V94.1833H255.86C255.911 94.1781 255.962 94.1882 256.006 94.2125C256.086 94.2504 256.15 94.3142 256.188 94.3934C256.239 94.4881 256.275 94.5906 256.293 94.6968C256.308 94.7524 256.32 94.8089 256.328 94.866V94.9068C256.331 94.9242 256.331 94.9419 256.328 94.9593C256.328 94.9593 256.328 94.9885 256.328 95.0002H256.626C256.633 94.8015 256.601 94.6034 256.532 94.4167C256.496 94.2761 256.423 94.1479 256.32 94.0452C256.217 93.9426 256.089 93.8694 255.948 93.8332C255.815 93.8282 255.683 93.8633 255.571 93.9341C255.458 94.0049 255.369 94.1081 255.317 94.23C255.213 94.4263 255.157 94.6441 255.153 94.866Z" fill="#A6A6A6"/>
<path d="M253.51 94.7085C253.487 94.9345 253.519 95.1629 253.605 95.3735C253.691 95.584 253.827 95.7704 254.001 95.9163C254.165 96.0446 254.317 95.7821 254.153 95.6595C254.043 95.5648 253.954 95.4476 253.892 95.3158C253.831 95.184 253.798 95.0406 253.797 94.8952C253.797 94.8427 253.797 94.7843 253.797 94.7377C253.804 94.5503 253.859 94.3678 253.955 94.2067C253.998 94.1331 254.061 94.0726 254.136 94.0317V94.0317H254.171H254.212C254.257 94.0146 254.307 94.0146 254.352 94.0317C254.431 94.0728 254.495 94.1356 254.539 94.2125C254.591 94.3093 254.626 94.4137 254.644 94.5218C254.659 94.5774 254.671 94.6339 254.679 94.691V94.726C254.682 94.7453 254.682 94.765 254.679 94.7843C254.679 94.7843 254.679 94.7843 254.679 94.8194L254.978 94.8485C254.978 94.6503 254.946 94.4533 254.884 94.2651C254.845 94.1201 254.766 93.9888 254.657 93.8858C254.548 93.7828 254.412 93.7121 254.264 93.6816C254.133 93.6748 254.002 93.7086 253.89 93.7786C253.778 93.8485 253.69 93.9511 253.639 94.0725C253.545 94.2708 253.5 94.4892 253.51 94.7085Z" fill="#A6A6A6"/>
<path d="M251.862 94.5625C251.842 94.7889 251.876 95.0167 251.963 95.2269C252.049 95.4371 252.185 95.6235 252.359 95.7703C252.517 95.8987 252.668 95.6361 252.511 95.5136C252.4 95.4177 252.311 95.2995 252.249 95.1667C252.188 95.034 252.155 94.8897 252.154 94.7434C252.151 94.6909 252.151 94.6383 252.154 94.5859C252.164 94.4008 252.218 94.2208 252.312 94.0607C252.36 93.9872 252.424 93.9254 252.499 93.8799H252.569C252.62 93.8746 252.671 93.8848 252.715 93.909C252.795 93.947 252.859 94.0108 252.897 94.0899C252.948 94.1846 252.983 94.2871 253.002 94.3933C253.017 94.449 253.029 94.5055 253.037 94.5625C253.04 94.5799 253.04 94.5976 253.037 94.615C253.037 94.615 253.037 94.615 253.037 94.6559H253.335C253.338 94.4574 253.307 94.2599 253.241 94.0724C253.205 93.9318 253.132 93.8036 253.029 93.7009C252.926 93.5983 252.798 93.5251 252.657 93.4889C252.524 93.4839 252.392 93.519 252.28 93.5898C252.167 93.6606 252.078 93.7638 252.026 93.8857C251.915 94.0942 251.859 94.3268 251.862 94.5625V94.5625Z" fill="#A6A6A6"/>
<path d="M275.151 89.953C274.993 94.545 276.49 109.558 276.115 110.375C276.01 110.602 272.672 108.583 268.317 106.646C266.073 105.648 261.823 121.53 266.166 122.983C273.397 125.44 285.995 129.448 288.964 123.643C291.525 118.695 283.2 93.6931 280.108 88.5352C277.571 84.2584 275.402 82.8289 275.151 89.953Z" fill="#EB9481"/>
<path d="M250.909 103.997C250.653 104.406 250.528 104.883 250.551 105.365C250.574 105.847 250.744 106.31 251.038 106.693C250.277 107.018 249.656 107.6 249.284 108.338C248.699 109.663 250.529 111.151 250.529 111.151C249.823 111.656 249.286 112.361 248.986 113.175C248.559 114.5 250.155 116.262 250.155 116.262C249.762 117.084 249.679 118.02 249.921 118.899C250.664 121.233 254.27 122.131 256.562 122.738C258.853 123.345 265.915 122.925 267.259 122.978L271.281 108.356C271.281 108.356 261.8 102.725 259.005 102.399C256.714 102.148 251.95 102.474 250.909 103.997Z" fill="#EB9481"/>
<path d="M251.207 106.483C253.779 106.185 256.299 106.658 258.841 106.985C258.9 106.985 258.882 107.084 258.841 107.072C256.316 106.716 253.75 106.862 251.242 106.605C251.227 106.608 251.211 106.605 251.197 106.596C251.184 106.588 251.175 106.575 251.17 106.56C251.166 106.545 251.167 106.528 251.174 106.514C251.181 106.5 251.193 106.489 251.207 106.483Z" fill="#263238"/>
<path d="M250.658 110.97C251.248 110.96 251.838 111.027 252.411 111.168C253.025 111.279 253.639 111.402 254.253 111.53C255.474 111.792 256.696 112.084 257.9 112.411C257.953 112.411 257.947 112.51 257.9 112.498C256.679 112.236 255.457 111.997 254.224 111.787C253.639 111.682 252.996 111.582 252.376 111.489C251.78 111.439 251.192 111.321 250.623 111.139C250.603 111.132 250.587 111.117 250.577 111.099C250.567 111.081 250.564 111.06 250.568 111.039C250.572 111.019 250.584 111.001 250.6 110.988C250.616 110.975 250.637 110.969 250.658 110.97V110.97Z" fill="#263238"/>
<path d="M250.26 116.273C250.795 116.269 251.327 116.355 251.833 116.53L253.499 116.915C254.615 117.166 255.726 117.417 256.848 117.627C256.907 117.627 256.895 117.726 256.848 117.715C255.679 117.504 254.563 117.312 253.429 117.09C252.844 116.985 252.306 116.874 251.751 116.758C251.232 116.704 250.727 116.558 250.26 116.326V116.273Z" fill="#263238"/>
<path d="M270.281 106.734L271.334 127.272C271.334 127.272 285.533 129.67 288.912 125.119C292.29 120.568 286.065 98.6468 281.447 90.4783C276.829 82.3097 274.87 82.8115 274.87 91.0909C274.87 99.3703 276.127 109.634 275.841 109.733C275.554 109.832 270.281 106.734 270.281 106.734Z" fill="#FFEB3B"/>
<path d="M276.127 109.803C276.976 110.219 277.795 110.694 278.576 111.226L279.161 111.652L279.401 111.752C279.74 111.897 280.079 112.055 280.4 112.23C281.028 112.578 281.632 112.967 282.207 113.397C282.248 113.426 282.207 113.484 282.16 113.461C281.557 113.064 280.923 112.715 280.266 112.417L280.009 112.3C280.342 112.563 280.675 112.825 280.985 113.111C281.812 113.857 282.593 114.652 283.323 115.492C283.33 115.5 283.333 115.511 283.332 115.522C283.331 115.533 283.326 115.543 283.317 115.55C283.309 115.557 283.298 115.56 283.287 115.559C283.276 115.558 283.266 115.553 283.259 115.544C281.914 114.062 276.571 110.41 275.981 109.96C275.391 109.511 275.718 109.564 276.127 109.803Z" fill="#263238"/>
<path d="M275.478 100.794C275.279 97.8008 275.104 95.9162 274.894 92.923H274.853C274.853 94.5975 274.853 95.1693 274.917 96.8439L274.408 94.6909C274.408 94.65 274.332 94.6559 274.338 94.6909C274.448 95.6173 274.643 96.5314 274.923 97.4215C274.964 98.5476 275.016 99.6679 275.087 100.794C275.268 103.711 275.525 106.629 275.794 109.511C274.987 109.044 274.163 108.618 273.333 108.204C272.503 107.79 271.486 107.352 270.609 106.856C270.556 106.827 270.515 106.909 270.562 106.932C271.462 107.399 272.316 107.959 273.193 108.455C274.069 108.951 274.946 109.441 275.882 109.867C275.902 109.878 275.926 109.884 275.95 109.883C275.973 109.883 275.996 109.876 276.017 109.863C276.037 109.851 276.053 109.833 276.064 109.812C276.076 109.792 276.081 109.768 276.08 109.744C275.864 106.775 275.683 103.781 275.478 100.794Z" fill="#263238"/>
<path d="M289.917 117.452C289.745 115.969 289.448 114.503 289.029 113.07C289.029 113.07 288.999 113.07 289.029 113.07C289.351 114.537 289.566 116.025 289.672 117.522C289.718 118.24 289.771 118.957 289.794 119.675C289.794 120.049 289.794 120.416 289.794 120.79C289.829 121.201 289.829 121.615 289.794 122.027C289.794 122.091 289.888 122.102 289.888 122.027C289.888 121.653 289.964 121.286 289.987 120.912C290.011 120.539 290.034 120.124 290.04 119.745C290.046 118.979 290.005 118.213 289.917 117.452V117.452Z" fill="#263238"/>
<path d="M274.853 118.409C274.777 117.009 274.409 111.407 274.186 110.077C274.186 110.036 274.122 110.048 274.122 110.077C274.046 111.466 274.292 117.079 274.368 118.485C274.525 121.28 274.648 124.104 275.028 126.881C275.026 126.888 275.025 126.896 275.026 126.903C275.027 126.911 275.029 126.918 275.034 126.924C275.038 126.93 275.044 126.935 275.05 126.939C275.057 126.942 275.064 126.944 275.072 126.944C275.08 126.944 275.087 126.942 275.094 126.939C275.1 126.935 275.106 126.93 275.11 126.924C275.115 126.918 275.117 126.911 275.118 126.903C275.119 126.896 275.118 126.888 275.116 126.881C275.192 124.069 275.005 121.227 274.853 118.409Z" fill="#263238"/>
<g opacity="0.1">
<path d="M285.872 101.121L275.35 101.582C275.35 101.343 275.315 101.103 275.303 100.852L285.656 100.403L285.872 101.121Z" fill="black"/>
<path d="M286.533 103.18L275.478 103.659C275.478 103.42 275.443 103.18 275.42 102.935L286.305 102.457L286.533 103.18Z" fill="black"/>
</g>
</g>
<defs>
<clipPath id="clip0_2401_16596">
<rect width="328" height="180" fill="white"/>
</clipPath>
</defs>
</svg>
