<svg width="20" height="20" viewBox="0 0 20 20" fill="none" xmlns="http://www.w3.org/2000/svg">
<path d="M15.4165 20H5.4165C3.34541 20 1.6665 18.3211 1.6665 16.25V13.4375C1.6665 12.918 2.08643 12.5 2.604 12.5C3.12197 12.5 3.5415 12.9199 3.5415 13.4375V16.25C3.5415 17.2812 4.38525 18.125 5.4165 18.125H15.4165C16.4478 18.125 17.2915 17.2812 17.2915 16.25V13.4375C17.2915 12.9199 17.7114 12.5 18.229 12.5C18.747 12.5 19.1665 12.9199 19.1665 13.4375V16.25C19.1665 18.3203 17.4868 20 15.4165 20ZM11.0571 13.4961L16.3696 8.49609C16.7481 8.14086 16.7649 7.54766 16.4099 7.17148C16.0559 6.7943 15.4626 6.77617 15.0853 7.13121L11.354 10.6406V0.9375C11.354 0.419922 10.936 0 10.4165 0C9.89697 0 9.479 0.419922 9.479 0.9375V10.6406L5.74463 7.12891C5.36885 6.77344 4.77549 6.79297 4.42158 7.17188C4.25088 7.35156 4.1665 7.58203 4.1665 7.8125C4.1665 8.06152 4.26537 8.31055 4.46189 8.49492L9.77439 13.4949C10.1353 13.8359 10.6978 13.8359 11.0571 13.4961Z" fill="#909AB4"/>
</svg>
