<svg width="120" height="106" viewBox="0 0 120 106" fill="none" xmlns="http://www.w3.org/2000/svg">
<path d="M104.262 89.4813C105.331 88.3525 105.249 86.4998 104.082 85.3947L88.7117 70.842C87.5444 69.7368 85.6901 69.7565 84.6213 70.8853C83.5524 72.0142 83.6341 73.8668 84.8013 74.972L100.172 89.5247C101.339 90.6299 103.193 90.6102 104.262 89.4813Z" fill="#EAE9E9"/>
<path d="M83.7381 88.4492C84.6882 89.6796 86.5312 89.8853 87.8035 88.9028L104.557 75.9661C105.829 74.9837 106.096 73.1486 105.146 71.9181C104.196 70.6877 102.353 70.4821 101.081 71.4645L84.3274 84.4012C83.0551 85.3837 82.7879 87.2188 83.7381 88.4492Z" fill="#EAE9E9"/>
<path d="M67.623 51.8352L41.1861 67.0985L41.1861 36.5718L67.623 51.8352Z" stroke="#EAE9E9" stroke-width="7.02876" stroke-linecap="round" stroke-linejoin="round"/>
<path fill-rule="evenodd" clip-rule="evenodd" d="M46.2724 1.09794C44.9374 -0.31093 42.713 -0.37078 41.3041 0.96426C39.8952 2.2993 39.8354 4.52368 41.1704 5.93255L49.2045 14.4109C49.608 14.8367 50.0926 15.1392 50.6114 15.3173C50.7116 15.4635 50.8241 15.6039 50.949 15.7371C52.2763 17.1533 54.5003 17.2253 55.9164 15.898L65.95 6.49409C67.3661 5.16679 67.4382 2.94278 66.1109 1.52661C64.7836 0.110449 62.5596 0.03841 61.1434 1.36571L53.4018 8.62156L46.2724 1.09794Z" fill="#EAE9E9"/>
<path fill-rule="evenodd" clip-rule="evenodd" d="M22.5829 11C10.1107 11 0 21.1107 0 33.5829V71.4171C0 83.8893 10.1107 94 22.5829 94H72.0873C70.901 92.1471 69.9433 90.1339 69.254 88H22.5829C13.4244 88 6 80.5756 6 71.4171V33.5829C6 24.4244 13.4244 17 22.5829 17H83.4171C92.5756 17 100 24.4244 100 33.5829V54.6957C102.111 55.1944 104.123 55.9504 106 56.9288V33.5829C106 21.1107 95.8893 11 83.4171 11H22.5829Z" fill="#EAE9E9"/>
<circle cx="94" cy="80" r="23.5" stroke="#EAE9E9" stroke-width="5"/>
</svg>
