<svg width="12" height="12" viewBox="0 0 12 12" fill="none" xmlns="http://www.w3.org/2000/svg">
<path d="M1.125 9.5625C1.125 9.87422 1.37695 10.125 1.6875 10.125H11.4375C11.7492 10.125 12 10.3758 12 10.6875C12 10.9992 11.7492 11.25 11.4375 11.25H1.6875C0.755625 11.25 0 10.4953 0 9.5625V1.3125C0 1.00195 0.251953 0.75 0.5625 0.75C0.873047 0.75 1.125 1.00195 1.125 1.3125V9.5625ZM8.0625 3H10.6875C10.9992 3 11.25 3.25078 11.25 3.5625V6.1875C11.25 6.49922 10.9992 6.75 10.6875 6.75C10.3758 6.75 10.125 6.49922 10.125 6.1875V4.91953L7.50234 7.50234C7.30313 7.74141 6.94688 7.74141 6.72656 7.50234L4.85391 5.66953L3.37734 7.12734C3.17813 7.36641 2.82188 7.36641 2.60156 7.12734C2.38359 6.92813 2.38359 6.57188 2.60156 6.35156L4.47656 4.47656C4.69688 4.25859 5.05313 4.25859 5.25234 4.47656L7.125 6.33047L9.33047 4.125H8.0625C7.75078 4.125 7.5 3.87422 7.5 3.5625C7.5 3.25078 7.75078 3 8.0625 3Z" fill="#176B9D"/>
</svg>
