<svg width="16" height="12" viewBox="0 0 16 12" fill="none" xmlns="http://www.w3.org/2000/svg">
<path d="M7.60037 0.75C7.40799 0.75 7.21799 0.782812 7.03749 0.846094L0.375616 3.22031C0.149991 3.30234 0.000365566 3.51328 0.000365566 3.75C0.000365566 3.98672 0.149991 4.19766 0.375616 4.27969L1.75074 4.76953C1.36124 5.37422 1.14037 6.08906 1.14037 6.84141V7.5C1.14037 8.16563 0.883866 8.85234 0.610741 9.39375C0.456366 9.69844 0.280616 9.99844 0.0763656 10.275C0.000365567 10.3758 -0.0210094 10.507 0.0217406 10.6266C0.0644906 10.7461 0.164241 10.8352 0.287741 10.8656L1.80774 11.2406C1.90749 11.2664 2.01437 11.2477 2.10224 11.1938C2.19012 11.1398 2.25187 11.0508 2.27087 10.95C2.47512 9.94688 2.37299 9.04688 2.22099 8.40234C2.14499 8.06953 2.04287 7.72969 1.90037 7.41797V6.84141C1.90037 6.13359 2.14262 5.46562 2.56299 4.93125C2.86937 4.56797 3.26599 4.275 3.73149 4.09453L7.46024 2.64844C7.65499 2.57344 7.87587 2.66719 7.95187 2.85938C8.02787 3.05156 7.93287 3.26953 7.73812 3.34453L4.00937 4.79062C3.71487 4.90547 3.45599 5.08125 3.24462 5.29688L7.03512 6.64688C7.21562 6.71016 7.40562 6.74297 7.59799 6.74297C7.79037 6.74297 7.98037 6.71016 8.16087 6.64688L14.8251 4.27969C15.0507 4.2 15.2004 3.98672 15.2004 3.75C15.2004 3.51328 15.0507 3.30234 14.8251 3.22031L8.16324 0.846094C7.98274 0.782812 7.79274 0.75 7.60037 0.75ZM3.04037 9.5625C3.04037 10.3898 5.08287 11.25 7.60037 11.25C10.1179 11.25 12.1604 10.3898 12.1604 9.5625L11.797 6.15469L8.41974 7.35938C8.15612 7.45312 7.87824 7.5 7.60037 7.5C7.32249 7.5 7.04224 7.45312 6.78099 7.35938L3.40374 6.15469L3.04037 9.5625Z" fill="#413271"/>
</svg>
