<svg width="49" height="57" viewBox="0 0 49 57" fill="none" xmlns="http://www.w3.org/2000/svg">
<path fill-rule="evenodd" clip-rule="evenodd" d="M14 2.03516C14 1.07849 13.2067 0.285156 12.25 0.285156C11.2933 0.285156 10.5 1.07849 10.5 2.03516V7.28516H7C3.12667 7.28516 0 10.4118 0 14.2852V18.1553H49V14.2852C49 10.4118 45.85 7.28516 42 7.28516H38.5V2.03516C38.5 1.07849 37.7067 0.285156 36.75 0.285156C35.7933 0.285156 35 1.07849 35 2.03516V7.28516H14V2.03516ZM49 20.4886H0V49.2852C0 53.1352 3.12667 56.2852 7 56.2852H42C45.85 56.2852 49 53.1352 49 49.2852V20.4886ZM12.25 38.7842C11.2933 38.7842 10.5 39.5775 10.5 40.5342C10.5 41.4908 11.2933 42.2842 12.25 42.2842H26.25C27.2067 42.2842 28 41.4908 28 40.5342C28 39.5775 27.2067 38.7842 26.25 38.7842H12.25ZM36.75 28.2832C37.7067 28.2832 38.5 29.0765 38.5 30.0332C38.5 30.9899 37.7067 31.7832 36.75 31.7832H12.25C11.2933 31.7832 10.5 30.9899 10.5 30.0332C10.5 29.0765 11.2933 28.2832 12.25 28.2832H36.75Z" fill="#85411B"/>
</svg>
