<svg width="24" height="24" viewBox="0 0 24 24" fill="none" xmlns="http://www.w3.org/2000/svg">
    <path d="M21 4.5H12.9328L10.6266 2.37891C10.0641 1.81594 9.30469 1.5 8.50781 1.5H3C1.34297 1.5 0 2.84344 0 4.5V19.5C0 21.1566 1.34297 22.5 3 22.5H21C22.657 22.5 24 21.1566 24 19.5V7.5C24 5.84531 22.6547 4.5 21 4.5ZM21.75 19.5C21.75 19.9136 21.4135 20.25 21 20.25H3C2.58647 20.25 2.25 19.9136 2.25 19.5V4.5C2.25 4.08637 2.58647 3.75 3 3.75H8.50781C8.70811 3.75 8.89655 3.828 9.03797 3.96975L12 6.75H21C21.4135 6.75 21.75 7.08637 21.75 7.5V19.5ZM5.95781 11.25C6.78609 11.25 7.45781 10.5783 7.45781 9.75C7.45781 8.92172 6.78609 8.25 5.95781 8.25C5.12953 8.25 4.45781 8.92172 4.45781 9.75C4.45781 10.5783 5.17031 11.25 5.95781 11.25ZM14.3719 10.0828C14.2359 9.87656 14.0016 9.75 13.7484 9.75C13.4953 9.75 13.2633 9.87525 13.1245 10.084L10.1836 14.4954L9.13594 13.0594C8.99531 12.8625 8.77031 12.75 8.48906 12.75C8.24949 12.75 8.02425 12.8644 7.88297 13.0582L4.60172 17.5582C4.43536 17.7861 4.41122 18.0883 4.53919 18.34C4.71094 18.5906 4.92656 18.75 5.25 18.75H18.75C19.0266 18.75 19.2806 18.5978 19.4114 18.354C19.5419 18.1101 19.5276 17.814 19.3741 17.5838L14.3719 10.0828Z" fill="#22366A"/>
</svg>
