<svg width="12" height="16" viewBox="0 0 12 16" fill="none" xmlns="http://www.w3.org/2000/svg">
<path d="M6.73147 15.6C8.31481 13.5938 11.9259 8.73125 11.9259 6C11.9259 2.6875 9.2716 0 5.99999 0C2.72839 0 0.0740662 2.6875 0.0740662 6C0.0740662 8.73125 3.68518 13.5938 5.26851 15.6C5.64814 16.0781 6.35184 16.0781 6.73147 15.6ZM5.99999 4C6.52388 4 7.0263 4.21071 7.39675 4.58579C7.76719 4.96086 7.9753 5.46957 7.9753 6C7.9753 6.53043 7.76719 7.03914 7.39675 7.41421C7.0263 7.78929 6.52388 8 5.99999 8C5.47611 8 4.97368 7.78929 4.60324 7.41421C4.2328 7.03914 4.02468 6.53043 4.02468 6C4.02468 5.46957 4.2328 4.96086 4.60324 4.58579C4.97368 4.21071 5.47611 4 5.99999 4Z" fill="#0077BE"/>
</svg>
