<svg width="360" height="284" viewBox="0 0 360 284" fill="none" xmlns="http://www.w3.org/2000/svg">
    <path d="M275.791 48.4122C275.791 45.3541 273.307 42.874 270.244 42.874H85.596C82.533 42.874 80.0488 45.3541 80.0488 48.4122V52.9531H275.791V48.4122Z" fill="white"/>
    <path d="M276.083 53.2446H79.7544V48.41C79.7544 45.1956 82.3738 42.5781 85.5958 42.5781H270.244C273.463 42.5781 276.085 45.1932 276.085 48.41V53.2446H276.083ZM80.3404 52.6595H275.497V48.4124C275.497 45.5201 273.141 43.1679 270.244 43.1679H85.5958C82.6988 43.1679 80.3428 45.5201 80.3428 48.4124V52.6595H80.3404Z" fill="#C88C32"/>
    <path d="M80.0488 52.9536V170.557C80.0488 173.615 82.533 176.095 85.596 176.095H270.244C273.307 176.095 275.791 173.615 275.791 170.557V52.9536H80.0488Z" fill="white"/>
    <path d="M270.243 176.387H85.5958C82.3762 176.387 79.7544 173.771 79.7544 170.555V52.6597H276.083V170.555C276.083 173.769 273.463 176.387 270.241 176.387H270.243ZM80.3404 53.2447V170.555C80.3404 173.447 82.6965 175.799 85.5934 175.799H270.241C273.138 175.799 275.494 173.447 275.494 170.555V53.2447H80.3404Z" fill="#C88C32"/>
    <path d="M89.7144 49.8827C90.8015 49.7849 91.6033 48.8257 91.5054 47.7404C91.4074 46.655 90.4467 45.8545 89.3595 45.9523C88.2724 46.0501 87.4705 47.0092 87.5685 48.0946C87.6665 49.1799 88.6272 49.9805 89.7144 49.8827Z" fill="white"/>
    <path d="M89.5391 50.184C88.2863 50.184 87.2661 49.1655 87.2661 47.9148C87.2661 46.6641 88.2863 45.6455 89.5391 45.6455C90.7918 45.6455 91.8121 46.6641 91.8121 47.9148C91.8121 49.1655 90.7918 50.184 89.5391 50.184ZM89.5391 46.2353C88.6114 46.2353 87.8593 46.9886 87.8593 47.9124C87.8593 48.8362 88.6138 49.5895 89.5391 49.5895C90.4644 49.5895 91.2189 48.8362 91.2189 47.9124C91.2189 46.9886 90.4644 46.2353 89.5391 46.2353Z" fill="#C88C32"/>
    <path d="M97.4253 49.8832C98.5124 49.7854 99.3143 48.8262 99.2163 47.7408C99.1183 46.6555 98.1576 45.8549 97.0705 45.9528C95.9833 46.0506 95.1815 47.0097 95.2795 48.0951C95.3774 49.1804 96.3382 49.981 97.4253 49.8832Z" fill="white"/>
    <path d="M97.25 50.184C95.9973 50.184 94.9771 49.1655 94.9771 47.9148C94.9771 46.6641 95.9973 45.6455 97.25 45.6455C98.5028 45.6455 99.523 46.6641 99.523 47.9148C99.523 49.1655 98.5028 50.184 97.25 50.184ZM97.25 46.2353C96.3223 46.2353 95.5702 46.9886 95.5702 47.9124C95.5702 48.8362 96.3247 49.5895 97.25 49.5895C98.1754 49.5895 98.9299 48.8362 98.9299 47.9124C98.9299 46.9886 98.1754 46.2353 97.25 46.2353Z" fill="#C88C32"/>
    <path d="M105.136 49.8817C106.223 49.7839 107.025 48.8247 106.927 47.7394C106.829 46.654 105.868 45.8535 104.781 45.9513C103.694 46.0491 102.892 47.0083 102.99 48.0936C103.088 49.179 104.049 49.9795 105.136 49.8817Z" fill="white"/>
    <path d="M104.961 50.184C103.708 50.184 102.688 49.1655 102.688 47.9148C102.688 46.6641 103.708 45.6455 104.961 45.6455C106.214 45.6455 107.234 46.6641 107.234 47.9148C107.234 49.1655 106.214 50.184 104.961 50.184ZM104.961 46.2353C104.033 46.2353 103.281 46.9886 103.281 47.9124C103.281 48.8362 104.036 49.5895 104.961 49.5895C105.886 49.5895 106.641 48.8362 106.641 47.9124C106.641 46.9886 105.886 46.2353 104.961 46.2353Z" fill="#C88C32"/>
    <path opacity="0.4" d="M255.388 65.7754H100.448V158.635H255.388V65.7754Z" fill="#FFDE63" fill-opacity="0.5"/>
    <path d="M206.083 175.757H155.498C153.629 158.318 153.149 142.684 154.822 132.29C155.278 129.46 155.89 127.02 156.677 125.037L177.977 120.707L202.74 122.922C206.904 133.676 207.556 153.012 206.078 175.757H206.083Z" fill="#909AB4"/>
    <path d="M179.846 125.546H179.253V145.681H179.846V125.546Z" fill="#0C0C0C"/>
    <path opacity="0.2" d="M202.742 122.922C202.742 122.922 182.8 136.886 154.822 132.29C155.278 129.46 155.89 127.02 156.678 125.037L177.977 120.707L202.74 122.922H202.742Z" fill="#0C0C0C"/>
    <path d="M167.938 44.0022C167.938 44.0022 158.331 56.2321 160.645 66.6238L194.391 65.2167C194.391 65.2167 194.68 44.8668 187.308 43.1353L167.938 44.0022Z" fill="#0C0C0C"/>
    <path d="M196.998 64.0063H196.405C196.405 50.675 189.46 44.5518 189.389 44.4902L189.776 44.0425C189.847 44.1041 196.996 50.4073 196.996 64.0063H196.998Z" fill="#0C0C0C"/>
    <path d="M159.722 113.482C159.681 114.875 159.406 116.213 158.939 117.466C157.717 120.771 155.154 123.452 151.849 124.769C151.054 125.096 150.212 125.333 149.334 125.48C147.745 125.752 145.894 125.906 143.718 125.906C132.804 125.906 124.879 117.63 123.942 115.107C123.005 112.577 125.648 113.477 125.648 113.477C126.611 111.331 128.759 113.06 128.759 113.06C129.406 110.822 131.435 112.914 131.435 112.914C131.435 112.914 131.506 111.687 132.662 111.758C133.373 111.805 135.703 113.222 137.388 114.299C138.254 114.851 139.251 115.135 140.259 115.135C140.662 115.135 141.066 115.093 141.462 115C143.533 114.527 145.123 112.861 145.507 110.777L148.774 92.9995H156.509L158.988 96.1736C159.961 100.089 159.902 108.107 159.717 113.484L159.722 113.482Z" fill="#FFBC96"/>
    <path d="M176.437 58.9414L160.531 62.1771C154.682 63.3662 150.101 67.9095 148.864 73.739L144.539 94.1552L158.996 96.1758L176.439 58.9414H176.437Z" fill="#151F39"/>
    <path d="M181.977 58.9414L197.883 62.1771C203.732 63.3662 208.313 67.9095 209.549 73.739L211.514 88.2381L197.492 90.6921L181.977 58.9414Z" fill="#151F39"/>
    <path d="M158.993 96.1733C158.993 96.1733 158.222 119.456 156.68 125.037C156.68 125.037 178.266 132.541 202.744 122.919L200.818 80.009L181.977 58.939H176.437L157.645 83.2802L158.995 96.1733H158.993Z" fill="#151F39"/>
    <path d="M230.016 59.5171C230.104 61.0402 227.596 65.6451 225.669 68.9447C224.25 71.3656 223.344 74.0612 223.012 76.8493C220.528 97.6942 218.883 115.135 211.618 120.02C209.934 121.15 207.953 121.612 205.592 121.287C203.926 121.057 202.555 120.387 201.435 119.385C193.783 112.587 197.496 90.6875 197.496 90.6875L206.987 89.0531C206.987 89.0531 209.11 71.1572 210.456 64.9984C211.808 58.8468 213.927 62.1156 213.927 62.1156C214.698 60.1922 216.814 61.3458 216.814 61.3458C218.357 58.8468 220.283 60.7655 220.283 60.7655C221.439 58.4607 224.72 62.4994 224.72 62.4994C226.836 61.5353 229.826 56.3169 230.016 59.5148V59.5171Z" fill="#FFBC96"/>
    <path d="M159.622 76.6206L158.689 96.1548L159.281 96.183L160.214 76.6488L159.622 76.6206Z" fill="#909AB4"/>
    <path d="M197.223 91.0379L196.011 75.4776L196.602 75.4326L197.764 90.3439L206.934 88.7639L207.036 89.3466L197.223 91.0379Z" fill="#909AB4"/>
    <path d="M208.949 72.4515L204.605 105.219L205.193 105.297L209.537 72.5292L208.949 72.4515Z" fill="#D28572"/>
    <path d="M214.218 62.0535L213.632 62.144L214.181 65.6882L214.767 65.5977L214.218 62.0535Z" fill="#D28572"/>
    <path d="M217.168 61.2648L216.605 61.4497L217.747 64.9198L218.311 64.7349L217.168 61.2648Z" fill="#D28572"/>
    <path d="M220.582 60.4074L220.023 60.606L221.313 64.2234L221.872 64.0249L220.582 60.4074Z" fill="#D28572"/>
    <path d="M191.5 74.2461H185.322C185.124 74.2461 184.964 74.4062 184.964 74.6038V76.0345C184.964 76.232 185.124 76.3922 185.322 76.3922H191.5C191.698 76.3922 191.859 76.232 191.859 76.0345V74.6038C191.859 74.4062 191.698 74.2461 191.5 74.2461Z" fill="#B1A8CD"/>
    <path d="M178.721 69.7051C174.65 69.7051 171.829 67.2251 171.789 67.1872L172.185 66.7466C172.429 66.9645 178.223 72.0407 185.253 66.73L185.612 67.2014C183.13 69.0774 180.767 69.7028 178.724 69.7028L178.721 69.7051Z" fill="#909AB4"/>
    <path d="M135.03 116.05C133.768 115.559 132.394 114.507 131.061 113.01L131.504 112.617C132.776 114.046 134.069 115.043 135.246 115.5L135.03 116.052V116.05Z" fill="#D28572"/>
    <path d="M131.641 116.912C130.429 116.146 129.352 114.9 128.353 113.105L128.873 112.818C129.824 114.526 130.832 115.703 131.959 116.414L131.641 116.914V116.912Z" fill="#D28572"/>
    <path d="M129.252 118.011C127.805 116.936 126.469 115.431 125.176 113.418L125.675 113.098C126.93 115.052 128.216 116.504 129.606 117.535L129.252 118.011Z" fill="#D28572"/>
    <path d="M172.681 49.7036H184.727V59.8537C184.727 63.1723 182.029 65.868 178.703 65.868C175.379 65.868 172.679 63.1747 172.679 59.8537V49.7036H172.681Z" fill="#FFBC96"/>
    <path d="M172.679 50.7314C176.404 56.9802 180.399 57.4919 184.739 50.7812L172.679 50.7314Z" fill="#D28572"/>
    <path d="M170.349 30.8979H187.059V44.9707C187.059 49.5755 183.315 53.3134 178.703 53.3134C174.09 53.3134 170.346 49.5755 170.346 44.9707V30.8979H170.349Z" fill="#FFBC96"/>
    <path d="M178.546 45.1816C177.569 44.2602 177.201 43.533 177.424 42.955C177.635 42.4007 178.316 42.2254 178.717 42.1686L178.696 40.3494L179.289 40.3423L179.317 42.7276L179.025 42.7347C178.736 42.7442 178.098 42.8603 177.979 43.1658C177.922 43.3127 177.908 43.758 178.957 44.7482L178.548 45.1793L178.546 45.1816Z" fill="#0C0C0C"/>
    <path d="M181.673 46.9963C182.041 46.4373 182.219 45.9517 182.219 45.9517C180.195 46.1198 175.908 46.1198 175.908 46.1198C175.908 46.1198 176.031 46.6196 176.387 47.1739C177.668 47.226 179.768 47.2497 181.673 46.9963Z" fill="white"/>
    <path d="M176.387 47.1762C176.824 47.8584 177.614 48.6282 178.966 48.6709C180.274 48.7135 181.161 47.7826 181.673 46.9985C179.768 47.2544 177.668 47.2283 176.387 47.1762Z" fill="#0C0C0C"/>
    <path d="M186.964 39.7524C186.971 40.0722 187.261 33.0915 176.361 31.6087C176.361 31.6087 170.206 35.1239 170.911 40.1954L167.568 39.5653C166.277 36.0501 166.721 26.6485 174.285 27.3165C174.285 27.3165 175.915 24.9904 178.584 24.9478C192.153 24.7251 190.011 39.7477 189.683 40.1788L186.962 39.7524H186.964Z" fill="#0C0C0C"/>
    <path d="M191.264 42.9775C191.902 41.0442 191.118 39.0486 189.513 38.5201C187.908 37.9916 186.089 39.1304 185.45 41.0636C184.812 42.9968 185.595 44.9924 187.201 45.5209C188.806 46.0494 190.625 44.9107 191.264 42.9775Z" fill="#FFBC96"/>
    <path d="M187.932 43.0782L187.344 43.0048C187.446 42.1876 188.034 40.6218 189.524 40.5342L189.56 41.1264C188.184 41.2069 187.937 43.0616 187.935 43.0806L187.932 43.0782Z" fill="#0C0C0C"/>
    <path d="M166.083 42.9832C166.721 44.9161 168.541 46.0554 170.147 45.5272C171.753 44.999 172.536 43.0021 171.898 41.0692C171.26 39.1363 169.44 37.997 167.834 38.5252C166.227 39.0534 165.444 41.0503 166.083 42.9832Z" fill="#FFBC96"/>
    <path d="M169.421 43.0781C169.412 43.0023 169.165 41.2045 167.796 41.1239L167.831 40.5317C169.322 40.6194 169.91 42.1875 170.012 43.0023L169.424 43.0758L169.421 43.0781Z" fill="#0C0C0C"/>
    <path d="M183.859 35.4022L181.079 35.0684C180.817 35.0368 180.578 35.2239 180.546 35.4863L180.53 35.6203C180.499 35.8827 180.686 36.121 180.949 36.1526L183.728 36.4864C183.991 36.518 184.23 36.3309 184.261 36.0685L184.278 35.9345C184.309 35.6721 184.122 35.4338 183.859 35.4022Z" fill="#0C0C0C"/>
    <path d="M173.628 36.4872L176.408 36.1533C176.671 36.1218 176.858 35.8835 176.827 35.6211L176.81 35.4871C176.779 35.2247 176.54 35.0376 176.277 35.0692L173.498 35.403C173.235 35.4346 173.047 35.6729 173.079 35.9352L173.095 36.0693C173.127 36.3317 173.365 36.5188 173.628 36.4872Z" fill="#0C0C0C"/>
    <path d="M123.907 74.5327H65.9862C64.3364 74.5327 62.999 75.8679 62.999 77.515V101.292C62.999 102.94 64.3364 104.275 65.9862 104.275H123.907C125.557 104.275 126.894 102.94 126.894 101.292V77.515C126.894 75.8679 125.557 74.5327 123.907 74.5327Z" fill="white"/>
    <path d="M123.907 104.561H65.9862C64.183 104.561 62.7144 103.095 62.7144 101.295V77.5175C62.7144 75.7172 64.183 74.251 65.9862 74.251H123.907C125.71 74.251 127.179 75.7172 127.179 77.5175V101.295C127.179 103.095 125.71 104.561 123.907 104.561ZM65.9862 74.8195C64.4962 74.8195 63.2838 76.0299 63.2838 77.5175V101.295C63.2838 102.783 64.4962 103.993 65.9862 103.993H123.907C125.397 103.993 126.609 102.783 126.609 101.295V77.5175C126.609 76.0299 125.397 74.8195 123.907 74.8195H65.9862Z" fill="#C88C32"/>
    <path d="M119.783 81.8545H70.1074V82.4467H119.783V81.8545Z" fill="#FFDE63" fill-opacity="0.5"/>
    <path d="M119.783 89.1074H70.1074V89.6996H119.783V89.1074Z" fill="#FFDE63" fill-opacity="0.5"/>
    <path d="M119.783 96.3633H70.1074V96.9555H119.783V96.3633Z" fill="#FFDE63" fill-opacity="0.5"/>
    <path d="M70.9377 97.0076L70.4727 96.6405L74.015 92.1825L80.1103 94.2599L85.3562 88.5725L90.6922 92.8647L96.956 85.865L102.638 92.4099L107.713 79.2941L112.978 87.5539L119.1 78.7422L119.589 79.0785L112.957 88.6246L107.844 80.6016L102.835 93.5421L96.9489 86.7604L90.7587 93.6771L85.4155 89.3826L80.2835 94.9468L74.219 92.8789L70.9377 97.0076Z" fill="#C88C32"/>
    <path d="M231.081 23.5643L228.222 0.476074C216.7 1.88548 207.774 11.6803 207.774 23.5643C207.774 36.4147 218.209 46.8325 231.081 46.8325C243.952 46.8325 254.387 36.4147 254.387 23.5643C254.387 22.8844 254.352 22.2117 254.295 21.5461L231.081 23.5643Z" fill="white"/>
    <path d="M231.081 47.1287C218.067 47.1287 207.478 36.557 207.478 23.5644C207.478 11.678 216.38 1.62507 228.186 0.182504L228.481 0.146973L231.342 23.2446L254.568 21.2265L254.594 21.5226C254.658 22.2569 254.689 22.9249 254.689 23.5644C254.689 36.557 244.1 47.1287 231.086 47.1287H231.081ZM227.963 0.807854C216.601 2.34517 208.071 12.076 208.071 23.5644C208.071 36.2325 218.395 46.5366 231.081 46.5366C243.767 46.5366 254.091 36.2301 254.091 23.5644C254.091 23.0267 254.069 22.4701 254.022 21.8684L230.82 23.8842L227.963 0.807854Z" fill="#C88C32"/>
    <path d="M243.241 18.827L266.455 16.8089C266.08 12.4669 264.514 8.46613 262.079 5.1333L243.241 18.827Z" fill="#FFDE63"/>
    <path d="M249.922 9.87275C245.684 4.06932 238.825 0.295898 231.083 0.295898C230.115 0.295898 229.161 0.362223 228.224 0.475923L231.083 23.5641L249.922 9.87038V9.87275Z" fill="#FFDE63" fill-opacity="0.5"/>
    <path d="M230.848 24.0997L227.892 0.217925L228.186 0.182394C229.192 0.0592187 230.139 0 231.081 0C238.593 0 245.725 3.62419 250.159 9.69766L250.335 9.9369L230.848 24.0997ZM228.552 0.736681L231.313 23.029L249.504 9.80662C245.17 4.02924 238.306 0.589819 231.081 0.589819C230.255 0.589819 229.425 0.637194 228.552 0.734312V0.736681Z" fill="#C88C32"/>
    <path d="M289.571 89.9746H246.994C244.962 89.9746 243.314 91.6195 243.314 93.6485V140.282C243.314 142.311 244.962 143.956 246.994 143.956H289.571C291.604 143.956 293.251 142.311 293.251 140.282V93.6485C293.251 91.6195 291.604 89.9746 289.571 89.9746Z" fill="white"/>
    <path d="M289.571 144.24H246.997C244.812 144.24 243.032 142.464 243.032 140.282V93.6486C243.032 91.467 244.812 89.6904 246.997 89.6904H289.571C291.757 89.6904 293.536 91.467 293.536 93.6486V140.282C293.536 142.464 291.757 144.24 289.571 144.24ZM246.997 90.2589C245.125 90.2589 243.602 91.7797 243.602 93.6486V140.282C243.602 142.151 245.125 143.672 246.997 143.672H289.571C291.443 143.672 292.967 142.151 292.967 140.282V93.6486C292.967 91.7797 291.443 90.2589 289.571 90.2589H246.997Z" fill="#C88C32"/>
    <path d="M287.562 97.7041H249.006V98.3271H287.562V97.7041Z" fill="#FFDE63" fill-opacity="0.5"/>
    <path d="M287.562 107.179H249.006V107.802H287.562V107.179Z" fill="#FFDE63" fill-opacity="0.5"/>
    <path d="M287.562 116.654H249.006V117.277H287.562V116.654Z" fill="#FFDE63" fill-opacity="0.5"/>
    <path d="M287.562 126.129H249.006V126.752H287.562V126.129Z" fill="#FFDE63" fill-opacity="0.5"/>
    <path d="M287.562 135.604H249.006V136.227H287.562V135.604Z" fill="#FFDE63" fill-opacity="0.5"/>
    <path d="M252.29 110.438H249.006V136.227H252.29V110.438Z" fill="#909AB4"/>
    <path d="M259.429 120.022H256.146V136.229H259.429V120.022Z" fill="#B99407"/>
    <path d="M266.568 114.067H263.285V136.227H266.568V114.067Z" fill="#909AB4"/>
    <path d="M273.708 110.066H270.424V136.227H273.708V110.066Z" fill="#B99407"/>
    <path d="M280.847 105.236H277.563V136.227H280.847V105.236Z" fill="#909AB4"/>
    <path d="M287.986 100.094H284.703V136.227H287.986V100.094Z" fill="#B99407"/>
    <path d="M147.771 3.70264H118.69C116.78 3.70264 115.233 5.24706 115.233 7.1539V18.9076C115.233 20.8145 116.78 22.3589 118.69 22.3589H138.549L146.184 28.873V22.3589H147.769C149.679 22.3589 151.226 20.8145 151.226 18.9076V7.1539C151.226 5.24706 149.679 3.70264 147.769 3.70264H147.771Z" fill="white"/>
    <path d="M146.497 29.5455L138.435 22.6666H118.69C116.611 22.6666 114.922 20.9801 114.922 18.905V7.15366C114.922 5.07864 116.611 3.39209 118.69 3.39209H147.771C149.849 3.39209 151.539 5.07864 151.539 7.15366V18.9074C151.539 20.9824 149.849 22.669 147.771 22.669H146.497V29.5478V29.5455ZM118.69 4.0127C116.955 4.0127 115.546 5.42211 115.546 7.1513V18.905C115.546 20.6366 116.958 22.0436 118.69 22.0436H138.665L145.873 28.1929V22.0436H147.771C149.505 22.0436 150.915 20.6342 150.915 18.905V7.15366C150.915 5.42211 149.503 4.01507 147.771 4.01507H118.69V4.0127Z" fill="#C88C32"/>
    <path d="M142.921 8.43994H119.641V9.03213H142.921V8.43994Z" fill="#FFDE63"/>
    <path d="M146.037 12.4385H119.641V13.0307H146.037V12.4385Z" fill="#FFDE63"/>
    <path d="M138.176 16.4346H119.641V17.0268H138.176V16.4346Z" fill="#FFDE63"/>
    <path d="M148.873 198.292H142.5V275.563H148.873V198.292Z" fill="#53514F"/>
    <path d="M213.751 198.292H207.377V275.563H213.751V198.292Z" fill="#53514F"/>
    <path opacity="0.3" d="M148.873 198.081H142.5V211.701H148.873V198.081Z" fill="#413271"/>
    <path opacity="0.3" d="M213.751 198.081H207.377V211.701H213.751V198.081Z" fill="#413271"/>
    <path d="M249.702 195.657H106.55V202.061H249.702V195.657Z" fill="#53514F"/>
    <path d="M232.865 193.47H216.288V195.664H232.865V193.47Z" fill="#413271"/>
    <path d="M218.741 195.664H216.288L206.517 169.928C206.233 169.179 206.787 168.377 207.59 168.377C208.067 168.377 208.493 168.672 208.663 169.116L218.741 195.662V195.664Z" fill="#413271"/>
    <path d="M127.162 195.664H143.739V193.47H127.162V195.664Z" fill="#413271"/>
    <path d="M141.288 195.664H143.741L153.511 169.928C153.796 169.179 153.242 168.377 152.439 168.377C151.962 168.377 151.536 168.672 151.366 169.116L141.288 195.662V195.664Z" fill="#413271"/>
    <path d="M94.5728 166.032L103.616 167.485L103.717 162.538L103.811 157.612L103.895 153.402L101.387 152.22L97.0896 157.247L94.5728 166.032Z" fill="#D28572"/>
    <path d="M100.022 157.562C100.022 157.562 101.113 159.849 103.717 162.538L103.812 157.612L100.022 157.562Z" fill="#85411B"/>
    <path d="M110.076 151.472C110.182 151.53 112.939 155.748 111.701 156.13C110.46 156.512 108.896 156.365 108.896 156.365L110.076 151.472Z" fill="#85411B"/>
    <path d="M110.985 147.883L109.843 158.365C109.747 159.254 109.162 160.016 108.326 160.34C107.743 160.567 107.093 160.556 106.518 160.312L100.02 157.56L99.144 151.651L104.405 146.149L110.985 147.883Z" fill="#D28572"/>
    <path d="M95.3522 160.279L92.2417 167.172L104.307 169.066L105.141 163.688L95.3522 160.279Z" fill="#DEC79E"/>
    <path d="M103.278 151.638C103.278 151.638 108.612 150.74 110.985 147.885C110.985 147.885 111.865 142.365 103.731 141.634C94.908 140.842 86.6328 153.307 86.6328 153.307L97.4121 162.707L103.276 151.64L103.278 151.638Z" fill="#151F39"/>
    <path d="M101.293 152.954C101.899 154.132 103.125 154.711 104.032 154.247C104.937 153.782 105.179 152.451 104.573 151.273C103.966 150.094 102.741 149.516 101.834 149.98C100.929 150.445 100.687 151.776 101.293 152.954Z" fill="#D28572"/>
    <path d="M103.303 152.964C103.267 152.713 103.085 152 102.695 151.734C102.546 151.633 102.378 151.604 102.185 151.647L102.085 151.204C102.405 151.131 102.699 151.184 102.954 151.36C103.587 151.794 103.748 152.853 103.753 152.898L103.303 152.964Z" fill="#141414" fill-opacity="0.8"/>
    <path d="M108.242 182.63C107.536 185.245 105.698 187.485 103.088 188.563C102.934 188.626 102.779 188.685 102.62 188.745C102.466 188.799 102.316 188.857 102.165 188.914C97.2991 190.823 93.4875 194.823 91.9668 199.832C91.8794 200.123 91.8066 200.399 91.7483 200.659C91.7483 200.659 81.6192 202.135 71.3735 196.455C71.3735 196.455 77.019 176.459 89.481 166.947C92.362 164.747 96.1463 164.111 99.6065 165.207C101.123 165.689 102.538 166.403 103.813 167.316C105.083 168.234 106.214 169.347 107.15 170.63L107.374 170.94L108.475 178.967C108.648 180.218 108.557 181.463 108.242 182.634V182.63Z" fill="#C88C32"/>
    <path d="M108.242 182.63C107.536 185.245 105.698 187.485 103.088 188.563C102.934 188.627 102.779 188.685 102.62 188.745C102.466 188.799 102.316 188.857 102.165 188.914C100.59 185.056 99.2969 178.919 99.2969 178.919L106.887 179.925L108.244 182.634L108.242 182.63Z" fill="#C88C32"/>
    <path d="M124.641 174.067C124.641 174.067 131.307 166.952 133.405 167.476C134.315 167.703 131.584 170.545 131.584 170.545C131.584 170.545 134.19 170.596 138.365 168.441C138.823 168.207 139.385 168.407 139.582 168.881C139.706 169.179 139.657 169.519 139.455 169.77C138.571 170.865 135.936 173.807 132.267 175.09L130.709 177.099L126.803 178.954L124.64 174.067H124.641Z" fill="#D28572"/>
    <path d="M130.712 177.1L121.992 192.617C120.908 194.539 118.874 195.736 116.66 195.736C115.773 195.736 114.908 195.541 114.119 195.181C113.331 194.821 112.62 194.294 112.038 193.621L99.2935 178.918L107.37 170.936L116.215 183.045L124.638 174.067L130.706 177.098L130.712 177.1Z" fill="#C88C32"/>
    <path d="M118.703 187.541C113.589 179.57 106.796 170.134 103.154 167.023L103.449 166.678C107.654 170.267 115.257 181.327 119.087 187.296L118.703 187.541Z" fill="#141414" fill-opacity="0.8"/>
    <path d="M116.889 196.164C115.958 196.164 114.986 195.904 114.013 195.381C111.223 193.877 99.6138 179.665 99.1221 179.061L99.4754 178.774C99.5956 178.921 111.52 193.519 114.23 194.981C117.313 196.642 119.406 195.132 120.378 194.082C121.928 192.412 130.427 177.143 130.513 176.988L130.912 177.208C130.56 177.839 122.3 192.679 120.713 194.392C119.624 195.566 118.304 196.164 116.891 196.164H116.889Z" fill="#141414" fill-opacity="0.8"/>
    <path d="M102.56 257.625L94.7095 273.083L96.425 273.325L99.2714 269.29L108.195 275.579L113.427 275.557C113.427 275.557 114.489 274.506 111.772 271.685C108.576 268.368 106.749 264.021 106.833 259.485L106.84 259.094L104.7 256.914L102.562 257.625H102.56Z" fill="#0C0C0C" fill-opacity="0.7"/>
    <path d="M102.89 262.456L101.158 275.552H102.89L105.143 271.158L113.458 275.383H120.04C120.04 275.383 120.943 274.192 117.856 271.781C114.227 268.945 111.806 264.898 111.253 260.392L111.205 260.003L108.78 258.145L102.89 262.454V262.456Z" fill="#0C0C0C"/>
    <path d="M112.121 264.065L124.307 221.284C125.29 217.835 123.642 214.18 120.406 212.626L109.432 207.357L108.778 258.147L112.121 264.065Z" fill="#141414" fill-opacity="0.6"/>
    <path d="M71.3736 196.454L68.9187 208.121C67.4855 214.933 72.6921 221.339 79.667 221.339H102.637C100.339 232.549 101.832 247.971 102.637 263.838L112.121 264.065L118.665 223.282C119.759 216.461 115.904 209.808 109.433 207.357L91.7484 200.657L71.3736 196.454Z" fill="#0C0C0C"/>
    <path opacity="0.4" d="M109.388 264.094L108.936 264.036C108.985 263.652 113.924 225.508 112.58 218.502C111.192 211.266 97.217 209.177 89.7103 208.053C89.0419 207.953 88.4282 207.862 87.8801 207.775C85.9988 207.477 84.6621 206.666 83.9027 205.366C82.4076 202.803 83.7006 199.286 83.7552 199.137L84.1814 199.297C84.1686 199.332 82.9102 202.763 84.2961 205.139C84.9826 206.313 86.2119 207.05 87.9493 207.326C88.4956 207.413 89.1093 207.504 89.7759 207.604C97.3955 208.742 111.577 210.864 113.026 218.417C113.596 221.391 113.157 229.984 111.72 243.956C110.651 254.351 109.399 263.998 109.386 264.094H109.388Z" fill="white"/>
    <path d="M76.5908 223.184L75.021 232.248L67.5034 275.625H64.3438L71.8614 232.248L73.4312 223.184H76.5908Z" fill="#53514F"/>
    <path d="M97.5337 275.625H94.374L86.8583 232.248L85.2866 223.184H88.4463L90.0179 232.248L97.5337 275.625Z" fill="#53514F"/>
    <path opacity="0.3" d="M76.5908 223.184L75.021 232.248H71.8613L73.4311 223.184H76.5908Z" fill="#141414" fill-opacity="0.8"/>
    <path opacity="0.3" d="M90.0179 232.248H86.8583L85.2866 223.184H88.4463L90.0179 232.248Z" fill="#141414" fill-opacity="0.8"/>
    <path d="M94.8955 225.656H65.3276V221.338H94.8955C96.0901 221.338 97.0571 222.306 97.0571 223.498C97.0571 224.691 96.0883 225.658 94.8955 225.658V225.656Z" fill="#53514F"/>
    <path d="M69.5014 225.657H65.3274L51.2301 191.159C50.8367 190.199 51.2665 189.099 52.2062 188.657C53.2205 188.181 54.428 188.65 54.8505 189.688L69.4996 225.658L69.5014 225.657Z" fill="#53514F"/>
    <path d="M261.55 151.174C261.443 151.229 258.518 155.298 259.733 155.732C260.947 156.165 262.508 156.087 262.508 156.087L261.548 151.174H261.55Z" fill="#D28572"/>
    <path d="M276.319 166.316L266.58 167.467L266.76 162.538L266.942 157.631L267.099 153.436L269.845 152.34L274.141 157.485L276.319 166.316Z" fill="#FFBC96"/>
    <path d="M270.993 157.703C270.993 157.703 269.694 159.945 266.76 162.538L266.944 157.63L270.994 157.703H270.993Z" fill="#D28572"/>
    <path d="M260.803 147.571L261.481 158.036C261.539 158.923 262.085 159.705 262.901 160.065C263.471 160.316 264.116 160.334 264.699 160.116L271.277 157.663L272.406 151.829L267.418 146.134L260.803 147.572V147.571Z" fill="#FFBC96"/>
    <path d="M268.416 151.823C268.416 151.823 266.8 148.693 265.118 148.214C265.118 148.214 258.642 150.322 257.216 145.364C257.216 145.364 260.865 145.398 263.992 143.213C267.119 141.027 270.383 142.076 272.641 144.116C272.641 144.116 280.02 144.48 274.201 157.48C274.201 157.48 272.739 157.963 269.015 152.771L268.414 151.825L268.416 151.823Z" fill="#151F39"/>
    <path d="M270.23 152.894C269.576 154.04 268.338 154.563 267.465 154.067C266.593 153.571 266.416 152.24 267.072 151.094C267.728 149.949 268.964 149.425 269.836 149.922C270.709 150.418 270.885 151.749 270.23 152.894Z" fill="#FFBC96"/>
    <path d="M268.116 152.795C268.026 152.205 268.19 150.996 269.445 150.638L269.571 151.075C268.381 151.413 268.558 152.673 268.567 152.725L268.117 152.793L268.116 152.795Z" fill="#C88C32"/>
    <path d="M266.58 167.467L266.689 162.399L275.265 160.203L277.769 166.49L266.58 167.467Z" fill="#DEC79E"/>
    <path d="M267.904 165.431C263.601 169.612 260.468 175.885 256.522 182.249C256.522 182.249 243.148 185.696 239.316 189.521L246.202 193.007L269.725 186.492L267.904 165.432V165.431Z" fill="#C88C32"/>
    <path d="M231.972 263.267L227.763 275.536L210.978 271.354C210.978 271.354 213.589 267.788 221.467 268.814L224.5 261.5L231.974 263.267H231.972Z" fill="#0C0C0C"/>
    <path d="M266.69 200.202L242.445 208.069C236.752 209.917 232.405 214.547 230.926 220.336L221.16 260.656L234.363 264.065C239.538 251.816 244.567 237.198 248.021 223.005L266.688 200.202H266.69Z" fill="#141414" fill-opacity="0.8"/>
    <path d="M257.888 261.481L259.86 275.572H241.498C241.498 275.572 243.168 271.481 251.059 270.572L250.604 262.086L257.888 261.481Z" fill="#0C0C0C"/>
    <path d="M288.669 196.186L291.124 207.853C292.557 214.666 287.436 221.451 280.463 221.451H258.382C259.622 232.778 260.818 247.703 260.013 263.57L247.921 263.797L241.378 223.015C240.283 216.193 244.139 209.54 250.609 207.089L266.69 200.202L288.669 196.186Z" fill="#151F39"/>
    <path d="M289.454 199.975C287.465 181.01 284.62 163.116 270.312 163.938C269.463 163.987 268.665 164.367 268.064 164.967C265.602 167.425 264.344 170.836 264.621 174.3L266.689 200.203C266.689 200.203 277.844 202.248 289.454 199.975Z" fill="#C88C32"/>
    <path d="M239.316 189.35C239.316 189.35 230.893 190.94 229.527 195.713H241.478L243.754 194.122L239.316 189.35Z" fill="#FFBC96"/>
    <path d="M270.39 168.101L259.463 185.032L239.318 189.35L241.48 195.713L258.371 195.628C262.905 195.539 266.786 193.172 269.308 189.408L278.698 175.943L270.39 168.103V168.101Z" fill="#C88C32"/>
    <path d="M239.364 189.574L239.267 189.13L259.289 184.839C259.822 183.336 260.352 181.779 260.864 180.272C262.967 174.092 264.954 168.254 267.418 165.065L267.779 165.343C265.362 168.472 263.386 174.274 261.295 180.417C260.769 181.965 260.225 183.566 259.675 185.108L259.633 185.228L259.509 185.255L239.364 189.574Z" fill="#151F39"/>
    <path d="M251.39 196.03C246.704 196.03 241.84 195.948 241.474 195.941L241.481 195.486C241.645 195.49 257.924 195.764 259.924 195.321L259.986 195.308C264.816 194.235 268.824 190.859 270.711 186.277L272.967 180.797L273.388 180.97L271.131 186.45C269.188 191.168 265.06 194.644 260.084 195.752L260.024 195.764C259.09 195.972 255.302 196.03 251.39 196.03Z" fill="#151F39"/>
    <path d="M293.535 275.623H296.696L287.607 223.184H284.447L293.535 275.623Z" fill="#53514F"/>
    <path d="M266.664 275.623H263.504L272.592 223.184H275.753L266.664 275.623Z" fill="#53514F"/>
    <path opacity="0.3" d="M275.746 223.184L274.176 232.248H271.017L272.586 223.184H275.746Z" fill="white"/>
    <path opacity="0.3" d="M289.173 232.248H286.014L284.442 223.184H287.602L289.173 232.248Z" fill="white"/>
    <path d="M266.145 225.656H295.713V221.338H266.145C264.95 221.338 263.983 222.306 263.983 223.498C263.983 224.691 264.952 225.658 266.145 225.658V225.656Z" fill="#53514F"/>
    <path d="M291.539 225.657H295.713L309.81 191.159C310.204 190.199 309.774 189.099 308.834 188.657C307.82 188.181 306.613 188.65 306.19 189.688L291.541 225.658L291.539 225.657Z" fill="#53514F"/>
    <path d="M325 275.352H35V275.807H325V275.352Z" fill="#413271"/>
</svg>
