<svg width="16" height="13" viewBox="0 0 16 13" fill="none" xmlns="http://www.w3.org/2000/svg">
<path d="M4.8 8.80003H3.2C1.43275 8.80003 0 10.2325 0 12C0 12.4418 0.35825 12.8 0.8 12.8H7.2C7.64175 12.8 8 12.4418 8 12C8 10.2325 6.5675 8.80003 4.8 8.80003ZM1.24025 11.6C1.426 10.6875 2.23425 10 3.2 10H4.8C5.76575 10 6.574 10.6883 6.75975 11.6H1.24025ZM4 8.00003C5.3255 8.00003 6.4 6.92553 6.4 5.60003C6.4 4.27453 5.3255 3.20003 4 3.20003C2.6525 3.20003 1.6 4.25253 1.6 5.60003C1.6 6.92503 2.6525 8.00003 4 8.00003ZM4 4.40003C4.66175 4.40003 5.2 4.93828 5.2 5.60003C5.2 6.26178 4.6625 6.80003 4 6.80003C3.3375 6.80003 2.8 6.26253 2.8 5.60003C2.8 4.93753 3.3375 4.40003 4 4.40003ZM14.6 3.05176e-05H5.4C4.6275 3.05176e-05 4 0.628031 4 1.40003V2.00003C4 2.33128 4.26875 2.60003 4.6 2.60003C4.93125 2.60003 5.2 2.33128 5.2 2.00003V1.40003C5.2 1.28988 5.28985 1.20003 5.4 1.20003H14.6C14.7101 1.20003 14.8 1.28988 14.8 1.40003V9.00003C14.8 9.11018 14.7101 9.20003 14.6 9.20003H13.2V8.40003C13.2 7.95828 12.8418 7.60003 12.4 7.60003H10.4C9.95825 7.60003 9.6 7.95828 9.6 8.40003V9.20003H8.8C8.46875 9.20003 8.2 9.46878 8.2 9.80003C8.2 10.1313 8.47 10.4 8.8 10.4H14.6C15.372 10.4 16 9.77203 16 9.00003V1.40003C16 0.628031 15.3725 3.05176e-05 14.6 3.05176e-05Z" fill="#405792"/>
</svg>
