<svg width="42" height="42" viewBox="0 0 42 42" fill="none" xmlns="http://www.w3.org/2000/svg">
<circle cx="21" cy="21" r="21" fill="#B1A8CD"/>
<path d="M33.0001 13.4781V28.7626C32.9859 28.7897 32.9669 28.8149 32.9578 28.8434C32.7328 29.5674 32.2494 29.9273 31.4915 29.9848C30.7275 30.0428 29.9621 30.1096 29.2038 30.2162C27.7028 30.4265 26.2427 30.8028 24.8794 31.4665C24.2308 31.7824 23.6206 32.1774 23.0023 32.5513C22.7364 32.7121 22.4748 32.8065 22.178 32.6658C21.8442 32.5074 21.7435 32.2237 21.744 31.8759C21.7473 28.0521 21.7459 24.2283 21.7459 20.404C21.7459 19.1425 21.7478 17.8805 21.745 16.619C21.744 16.1493 21.905 15.7515 22.2583 15.4332C22.9449 14.8148 23.7023 14.2979 24.5347 13.8866C26.7028 12.8153 29.0304 12.3984 31.4246 12.2722C31.6867 12.2586 31.9726 12.3446 32.2185 12.4502C32.663 12.6414 32.8653 13.042 33.0001 13.4781Z" fill="white"/>
<path d="M8.68822 28.7634C8.68822 23.6687 8.68822 18.5736 8.68822 13.4789C9.07284 12.5282 9.52441 12.2108 10.4285 12.2707C11.637 12.3506 12.8355 12.4983 14.0145 12.7797C15.9751 13.248 17.7933 13.9991 19.3232 15.3392C19.7359 15.7005 19.9429 16.1249 19.9424 16.667C19.9391 21.729 19.9405 26.791 19.9391 31.8534C19.9391 31.9618 19.9343 32.0731 19.9092 32.1778C19.7971 32.6489 19.28 32.8784 18.8493 32.6447C18.677 32.5512 18.5188 32.432 18.3564 32.3213C17.4125 31.6795 16.3802 31.2182 15.2947 30.8648C13.6237 30.3208 11.8996 30.0768 10.1488 29.9791C9.53676 29.945 9.08566 29.6603 8.82117 29.1093C8.76799 28.9985 8.7319 28.8793 8.68774 28.7639L8.68822 28.7634Z" fill="white"/>
</svg>
