<svg width="20" height="20" viewBox="0 0 20 20" fill="none" xmlns="http://www.w3.org/2000/svg">
<path d="M5.89286 13.4115C5.89286 13.1125 6.14921 12.8646 6.45833 12.8646H10.9821C11.2913 12.8646 11.5476 13.1125 11.5476 13.4115C11.5476 13.7105 11.2913 13.9584 10.9821 13.9584H6.45833C6.14921 13.9584 5.89286 13.7105 5.89286 13.4115ZM14.375 9.58337C14.6841 9.58337 14.9405 9.83129 14.9405 10.1302C14.9405 10.4292 14.6841 10.6771 14.375 10.6771H6.45833C6.14921 10.6771 5.89286 10.4292 5.89286 10.1302C5.89286 9.83129 6.14921 9.58337 6.45833 9.58337H14.375ZM6.45833 0.833374C6.76746 0.833374 7.02381 1.08129 7.02381 1.38025V3.02087H13.8095V1.38025C13.8095 1.08129 14.0659 0.833374 14.375 0.833374C14.6841 0.833374 14.9405 1.08129 14.9405 1.38025V3.02087H16.0714C17.3155 3.02087 18.3333 3.99796 18.3333 5.20837V16.1459C18.3333 17.349 17.3155 18.3334 16.0714 18.3334H4.7619C3.51032 18.3334 2.5 17.349 2.5 16.1459V5.20837C2.5 3.99796 3.51032 3.02087 4.7619 3.02087H5.89286V1.38025C5.89286 1.08129 6.14921 0.833374 6.45833 0.833374ZM17.2024 7.39587H3.63095V16.1459C3.63095 16.7511 4.13611 17.2396 4.7619 17.2396H16.0714C16.6972 17.2396 17.2024 16.7511 17.2024 16.1459V7.39587ZM16.0714 4.11462H4.7619C4.13611 4.11462 3.63095 4.60317 3.63095 5.20837V6.30212H17.2024V5.20837C17.2024 4.60317 16.6972 4.11462 16.0714 4.11462Z" fill="#0C0C0C" fill-opacity="0.4"/>
</svg>
