<svg width="16" height="18" viewBox="0 0 16 18" fill="none" xmlns="http://www.w3.org/2000/svg">
    <path fill-rule="evenodd" clip-rule="evenodd" d="M1.95122 0C0.873591 0 0 0.873591 0 1.95122V15.6098C0 16.6874 0.873591 17.561 1.95122 17.561H14.8293C15.4758 17.561 16 17.0368 16 16.3902V1.95122C16 1.81757 15.9866 1.68707 15.961 1.56098H15.2195V15.5981L15.2195 15.6095L15.2195 15.621V15.8049C15.2195 16.1282 14.9574 16.3902 14.6341 16.3902C14.6031 16.3902 14.5726 16.3878 14.5429 16.3832C14.5089 16.3877 14.4743 16.39 14.4391 16.39H2.3415C1.91045 16.39 1.56101 16.0406 1.56101 15.6095C1.56101 15.1785 1.91045 14.829 2.3415 14.829H14.0487V0H1.95122Z" fill="#22366A"/>
    <line x1="3.70744" y1="3.70678" x2="10.7318" y2="3.70678" stroke="white" stroke-width="1.17073" stroke-linecap="round" stroke-linejoin="round"/>
    <line x1="3.70744" y1="6.82876" x2="6.82939" y2="6.82876" stroke="white" stroke-width="1.17073" stroke-linecap="round" stroke-linejoin="round"/>
</svg>
