<svg width="24" height="16" viewBox="0 0 24 16" fill="none" xmlns="http://www.w3.org/2000/svg">
<path d="M8.29688 0.870167C8.51719 1.04829 8.625 1.33423 8.625 1.62485C8.625 1.91548 8.51512 2.20048 8.29542 2.42032L3.83906 6.87485L22.875 6.87485C23.4961 6.87485 24 7.3811 24 8.04204C24 8.62329 23.4961 9.12485 22.875 9.12485L3.83906 9.12485L8.29359 13.5794C8.73305 14.0188 8.73305 14.7306 8.29359 15.1703C7.85414 15.61 7.14234 15.6098 6.70266 15.1703L0.327656 8.79532C-0.111797 8.35587 -0.111797 7.64407 0.327656 7.20438L6.70266 0.829386C7.14375 0.392041 7.85625 0.392041 8.29688 0.870167Z" fill="#0C0C0C"/>
</svg>
