<svg width="16" height="16" viewBox="0 0 16 16" fill="none" xmlns="http://www.w3.org/2000/svg">
<path d="M9.1875 7.25H5.8125C5.50313 7.25 5.25 7.50313 5.25 7.8125C5.25 8.12187 5.50313 8.375 5.8125 8.375H9.1875C9.49922 8.375 9.75 8.12422 9.75 7.8125C9.75 7.50078 9.49922 7.25 9.1875 7.25ZM6.9375 9.5H5.8125C5.50313 9.5 5.25 9.75313 5.25 10.0625C5.25 10.3719 5.50195 10.625 5.8125 10.625H6.9375C7.24805 10.625 7.5 10.373 7.5 10.0625C7.5 9.75195 7.24922 9.5 6.9375 9.5ZM9.1875 5H5.8125C5.50313 5 5.25 5.25313 5.25 5.5625C5.25 5.87187 5.50313 6.125 5.8125 6.125H9.1875C9.49922 6.125 9.75 5.87422 9.75 5.5625C9.75 5.25078 9.49922 5 9.1875 5ZM10.5 2H4.5C3.67148 2 3 2.67148 3 3.5V12.5C3 13.3285 3.67148 14 4.5 14H10.5C11.3285 14 12 13.3285 12 12.5V3.5C12 2.67148 11.3273 2 10.5 2ZM10.875 12.5C10.875 12.7068 10.7068 12.875 10.5 12.875H4.5C4.29323 12.875 4.125 12.7068 4.125 12.5V3.5C4.125 3.29323 4.29323 3.125 4.5 3.125H10.5C10.7068 3.125 10.875 3.29323 10.875 3.5V12.5Z" fill="#405792"/>
</svg>
