<svg width="14" height="16" viewBox="0 0 14 16" fill="none" xmlns="http://www.w3.org/2000/svg">
<path d="M7.99976 1.00003V1.55878C10.2654 1.91847 11.9998 3.88128 11.9998 6.25003V7.29378C11.9998 8.71253 12.4841 10.0907 13.3685 11.2L13.8341 11.7813C14.0154 12.0063 14.0498 12.3157 13.9248 12.575C13.7998 12.8344 13.5373 13 13.2498 13H0.749762C0.461324 13 0.198668 12.8344 0.0737928 12.575C-0.0511134 12.3157 -0.0159884 12.0063 0.164137 11.7813L0.630074 11.2C1.51664 10.0907 1.99976 8.71253 1.99976 7.29378V6.25003C1.99976 3.88128 3.73414 1.91847 5.99976 1.55878V1.00003C5.99976 0.447843 6.44664 3.05176e-05 6.99976 3.05176e-05C7.55289 3.05176e-05 7.99976 0.447843 7.99976 1.00003ZM6.74976 3.00003C4.95601 3.00003 3.49976 4.45628 3.49976 6.25003V7.29378C3.49976 8.79066 3.06601 10.25 2.25945 11.5H11.7404C10.9341 10.25 10.4998 8.79066 10.4998 7.29378V6.25003C10.4998 4.45628 9.04351 3.00003 7.24976 3.00003H6.74976ZM8.99976 14C8.99976 14.5032 8.79039 15.0407 8.41539 15.4157C8.04039 15.7907 7.50289 16 6.99976 16C6.46851 16 5.95914 15.7907 5.58414 15.4157C5.20914 15.0407 4.99976 14.5032 4.99976 14H8.99976Z" fill="#405792"/>
</svg>
