<svg width="16" height="13" viewBox="0 0 16 13" fill="none" xmlns="http://www.w3.org/2000/svg">
<path d="M5.6 6.40003C7.3675 6.40003 8.8 4.96728 8.8 3.20003C8.8 1.43278 7.3675 3.05176e-05 5.6 3.05176e-05C3.8325 3.05176e-05 2.4 1.43278 2.4 3.20003C2.4 4.96728 3.8325 6.40003 5.6 6.40003ZM5.6 1.20003C6.70275 1.20003 7.6 2.09728 7.6 3.20003C7.6 4.30278 6.70275 5.20003 5.6 5.20003C4.49725 5.20003 3.6 4.30253 3.6 3.20003C3.6 2.09728 4.4975 1.20003 5.6 1.20003ZM6.8675 7.60003H4.3325C1.93925 7.60003 0 9.54003 0 11.9325C0 12.4125 0.388 12.8 0.8665 12.8H10.3325C10.8125 12.8 11.2 12.4125 11.2 11.9325C11.2 9.54003 9.26 7.60003 6.8675 7.60003ZM1.21775 11.6C1.3845 10.0275 2.7175 8.80003 4.3325 8.80003H6.8675C8.48275 8.80003 9.795 10.0283 9.9825 11.6H1.21775ZM11.9775 8.00003H10.1313C11.28 8.94253 12 10.3525 12 11.9325C12 12.2525 11.905 12.5475 11.75 12.8H15.2C15.6425 12.8 16 12.44 16 11.9775C16 9.79003 14.21 8.00003 11.9775 8.00003ZM10.8 6.40003C12.3475 6.40003 13.6 5.14753 13.6 3.60003C13.6 2.05253 12.3475 0.800031 10.8 0.800031C10.1722 0.800031 9.599 1.01391 9.132 1.36278C9.42 1.91578 9.6 2.53503 9.6 3.20003C9.6 4.08803 9.30175 4.90353 8.81025 5.56778C9.3175 6.08003 10.02 6.40003 10.8 6.40003Z" fill="#405792"/>
</svg>
