<svg width="16" height="20" viewBox="0 0 16 20" fill="none" xmlns="http://www.w3.org/2000/svg">
<rect opacity="0.6" x="1" y="1" width="14" height="18" rx="3" fill="white" stroke="#8980A7"/>
<path d="M8.44744 5C8.60363 5.02176 8.75999 5.0416 8.91587 5.0656C9.40523 5.14112 9.87272 5.28336 10.3017 5.53904C10.9117 5.90256 11.3183 6.4216 11.4624 7.12848C11.5598 7.6056 11.5471 8.08048 11.3522 8.53616C11.2173 8.85152 11.0164 9.12192 10.7788 9.3664C10.4399 9.7152 10.0387 9.98416 9.65325 10.2741C9.48119 10.4035 9.3047 10.5365 9.16626 10.699C9.05145 10.8338 8.98564 11.0126 8.90477 11.1752C8.84721 11.2909 8.80614 11.4152 8.74715 11.5301C8.6593 11.7011 8.51848 11.812 8.33263 11.8594C8.08937 11.9213 7.84548 11.9307 7.6165 11.8138C7.35374 11.6797 7.21023 11.4501 7.16821 11.1605C7.1108 10.7642 7.22545 10.411 7.45111 10.0886C7.6728 9.772 7.96648 9.5312 8.26333 9.29248C8.57144 9.04464 8.89462 8.81472 9.15706 8.5128C9.51164 8.1048 9.59267 7.64992 9.37606 7.15424C9.25237 6.8712 9.01815 6.70048 8.72843 6.61216C8.37703 6.50528 8.02246 6.5072 7.67137 6.61264C7.38546 6.69856 7.17471 6.8888 7.02898 7.14512C6.89593 7.37936 6.78335 7.62544 6.65839 7.86432C6.49141 8.18352 6.1519 8.35248 5.79478 8.31456C5.59006 8.2928 5.40279 8.24032 5.24706 8.10016C5.06058 7.93296 4.99477 7.7152 5.00032 7.4712C5.00873 7.09504 5.12417 6.75248 5.32604 6.43808C5.57436 6.05168 5.90547 5.75536 6.29414 5.51888C6.67694 5.28608 7.09019 5.13824 7.5277 5.05616C7.64901 5.0336 7.77175 5.01856 7.89369 5H8.44744Z" fill="#8980A7"/>
<path d="M8.05278 14.9998C7.45844 14.9819 6.96416 14.5252 6.96448 13.8937C6.96479 13.2783 7.43545 12.7894 8.0577 12.7891C8.66029 12.7887 9.1395 13.2563 9.15108 13.8945C9.1617 14.4871 8.64903 15.0001 8.05294 14.9998H8.05278Z" fill="#8980A7"/>
</svg>
