<svg width="12" height="11" viewBox="0 0 12 11" fill="none" xmlns="http://www.w3.org/2000/svg">
<path d="M5.49227 0.35391C5.65208 -0.11797 6.34791 -0.11797 6.50773 0.353911L7.55815 3.45556C7.62962 3.66659 7.8346 3.80947 8.06588 3.80947H11.4651C11.9823 3.80947 12.1973 4.44438 11.7789 4.73601L9.02886 6.65294C8.84176 6.78336 8.76346 7.01454 8.83493 7.22558L9.88536 10.3272C10.0452 10.7991 9.48223 11.1915 9.06384 10.8999L6.31379 8.98294C6.12668 8.85251 5.87332 8.85251 5.68621 8.98294L2.93616 10.8999C2.51777 11.1915 1.95483 10.7991 2.11464 10.3272L3.16507 7.22558C3.23654 7.01454 3.15824 6.78336 2.97113 6.65294L0.221086 4.73601C-0.197303 4.44438 0.0177208 3.80947 0.534878 3.80947H3.93412C4.1654 3.80947 4.37038 3.66659 4.44185 3.45556L5.49227 0.35391Z" fill="#ECAF40"/>
</svg>
