<svg width="20" height="20" viewBox="0 0 20 20" fill="none" xmlns="http://www.w3.org/2000/svg">
<path fill-rule="evenodd" clip-rule="evenodd" d="M14.9472 1C14.8767 1.09481 14.8349 1.21233 14.8349 1.33961V15.5729L4.36722 15.5729C3.94798 15.5729 3.60811 15.9127 3.60811 16.332C3.60811 16.7512 3.94798 17.0911 4.36722 17.0911H15.2145C15.249 17.0911 15.2829 17.0888 15.3162 17.0843C15.3449 17.0888 15.3743 17.0911 15.4042 17.0911C15.7187 17.0911 15.9736 16.8362 15.9736 16.5217V16.332V2.60811L17.1622 2.60811V16.3919C17.1622 17.28 16.4422 18 15.5541 18H3.60811C2.71997 18 2 17.28 2 16.3919V2.60811C2 1.71997 2.71997 1 3.60811 1H14.9472Z" fill="#22366A"/>
</svg>
