<svg width="20" height="20" viewBox="0 0 20 20" fill="none" xmlns="http://www.w3.org/2000/svg">
<path d="M5.89286 13.4115C5.89286 13.1125 6.14921 12.8646 6.45833 12.8646H10.9821C11.2913 12.8646 11.5476 13.1125 11.5476 13.4115C11.5476 13.7104 11.2913 13.9583 10.9821 13.9583H6.45833C6.14921 13.9583 5.89286 13.7104 5.89286 13.4115ZM14.375 9.58334C14.6841 9.58334 14.9405 9.83125 14.9405 10.1302C14.9405 10.4292 14.6841 10.6771 14.375 10.6771H6.45833C6.14921 10.6771 5.89286 10.4292 5.89286 10.1302C5.89286 9.83125 6.14921 9.58334 6.45833 9.58334H14.375ZM6.45833 0.833336C6.76746 0.833336 7.02381 1.08125 7.02381 1.38021V3.02084H13.8095V1.38021C13.8095 1.08125 14.0659 0.833336 14.375 0.833336C14.6841 0.833336 14.9405 1.08125 14.9405 1.38021V3.02084H16.0714C17.3155 3.02084 18.3333 3.99792 18.3333 5.20834V16.1458C18.3333 17.349 17.3155 18.3333 16.0714 18.3333H4.7619C3.51032 18.3333 2.5 17.349 2.5 16.1458V5.20834C2.5 3.99792 3.51032 3.02084 4.7619 3.02084H5.89286V1.38021C5.89286 1.08125 6.14921 0.833336 6.45833 0.833336ZM17.2024 7.39584H3.63095V16.1458C3.63095 16.751 4.13611 17.2396 4.7619 17.2396H16.0714C16.6972 17.2396 17.2024 16.751 17.2024 16.1458V7.39584ZM16.0714 4.11459H4.7619C4.13611 4.11459 3.63095 4.60313 3.63095 5.20834V6.30209H17.2024V5.20834C17.2024 4.60313 16.6972 4.11459 16.0714 4.11459Z" fill="#0C0C0C" fill-opacity="0.4"/>
</svg>
