<svg width="20" height="20" viewBox="0 0 20 20" fill="none" xmlns="http://www.w3.org/2000/svg">
<path d="M6.58853 0.833328C6.88749 0.833328 7.13541 1.08124 7.13541 1.3802V3.02083H13.6979V1.3802C13.6979 1.08124 13.9458 0.833328 14.2448 0.833328C14.5437 0.833328 14.7917 1.08124 14.7917 1.3802V3.02083H15.8854C17.0885 3.02083 18.0729 3.99791 18.0729 5.20833V16.1458C18.0729 17.349 17.0885 18.3333 15.8854 18.3333H4.94791C3.73749 18.3333 2.76041 17.349 2.76041 16.1458V5.20833C2.76041 3.99791 3.73749 3.02083 4.94791 3.02083H6.04166V1.3802C6.04166 1.08124 6.28957 0.833328 6.58853 0.833328Z" fill="#22366A"/>
<path d="M18.0729 6.41873H2.76041V7.1479H18.0729V6.41873Z" fill="white"/>
<path d="M6.04166 13.4115C6.04166 13.1125 6.28957 12.8646 6.58853 12.8646H10.9635C11.2625 12.8646 11.5104 13.1125 11.5104 13.4115C11.5104 13.7104 11.2625 13.9583 10.9635 13.9583H6.58853C6.28957 13.9583 6.04166 13.7104 6.04166 13.4115Z" fill="white"/>
<path d="M14.2448 9.58333C14.5437 9.58333 14.7917 9.83124 14.7917 10.1302C14.7917 10.4292 14.5437 10.6771 14.2448 10.6771H6.58853C6.28957 10.6771 6.04166 10.4292 6.04166 10.1302C6.04166 9.83124 6.28957 9.58333 6.58853 9.58333H14.2448Z" fill="white"/>
</svg>
