<svg width="20" height="20" viewBox="0 0 20 20" fill="none" xmlns="http://www.w3.org/2000/svg">
<path fill-rule="evenodd" clip-rule="evenodd" d="M3.60811 1H14.8349V15.5729L4.3672 15.5729C3.94796 15.5729 3.60809 15.9127 3.60809 16.332C3.60809 16.7512 3.94796 17.0911 4.3672 17.0911H15.2144C15.2489 17.0911 15.2829 17.0888 15.3162 17.0843C15.3449 17.0888 15.3743 17.0911 15.4042 17.0911C15.7186 17.0911 15.9735 16.8362 15.9735 16.5217V16.3349L15.9735 16.332L15.9735 16.329V2.60812H17.1622V16.3919C17.1622 17.28 16.4422 18 15.5541 18H3.60811C2.71997 18 2 17.28 2 16.3919V2.60811C2 1.71997 2.71997 1 3.60811 1ZM3.22952 3.14753C3.22952 2.66465 3.62097 2.27321 4.10384 2.27321H13.7213V14.3388H5.0655H5.06546H4.40186C4.26247 14.3552 4.10393 14.3825 3.92898 14.4262C3.38788 14.5615 3.22952 14.8634 3.22952 14.8634V14.3388V13.8142V3.14753Z" fill="#9E9E9E"/>
</svg>
