<svg width="15" height="16" viewBox="0 0 15 16" fill="none" xmlns="http://www.w3.org/2000/svg">
<path d="M13.9167 9.99958C14.3308 9.99958 14.6667 10.3355 14.6667 10.7496V12.9996C14.6667 14.6565 13.3236 15.9996 11.6667 15.9996H3.66675C2.00987 15.9996 0.666748 14.6565 0.666748 12.9996V10.7496C0.666748 10.334 1.00237 9.99958 1.41675 9.99958C1.83081 9.99958 2.16675 10.3355 2.16675 10.7496V12.9996C2.16675 13.8246 2.84175 14.4996 3.66675 14.4996H11.6667C12.4917 14.4996 13.1667 13.8246 13.1667 12.9996V10.7496C13.1667 10.334 13.5011 9.99958 13.9167 9.99958ZM7.15425 0.203928L2.90425 4.1758C2.6005 4.48708 2.58675 4.96208 2.87081 5.26208C3.154 5.56383 3.62862 5.57833 3.9305 5.2943L6.91675 2.48583V10.2483C6.91675 10.6652 7.25425 10.9996 7.66675 10.9996C8.07925 10.9996 8.41675 10.6636 8.41675 10.2777V2.48583L11.403 5.29583C11.7047 5.58002 12.1792 5.56537 12.4627 5.26362C12.598 5.11833 12.6667 4.93396 12.6667 4.74958C12.6667 4.55037 12.5877 4.35115 12.4304 4.20365L8.18044 0.231771C7.89175 -0.068541 7.44175 -0.068541 7.15425 0.203928Z" fill="#22366A"/>
</svg>
