<svg width="22" height="22" viewBox="0 0 22 22" fill="none" xmlns="http://www.w3.org/2000/svg">
<path d="M15.6403 0.875H7.10967C3.6715 0.875 0.875 3.67267 0.875 7.10967V15.6403C0.875 19.0785 3.6715 21.875 7.10967 21.875H15.6415C19.0785 21.875 21.875 19.0785 21.875 15.6403V7.10967C21.875 3.67267 19.0785 0.875 15.6403 0.875ZM13.7083 14.0595C13.7083 14.5098 13.3432 14.875 12.8928 14.875H8.09433C6.685 14.875 5.54167 13.7317 5.54167 12.3223V8.6905C5.54167 8.24017 5.90683 7.875 6.35717 7.875H11.1557C12.565 7.875 13.7083 9.01833 13.7083 10.4277V14.0595ZM17.2083 14.875L14.875 12.5417V10.2083L17.2083 7.875V14.875Z" fill="#2D8CFF"/>
</svg>
