<?xml version="1.0" encoding="UTF-8"?>
<svg id="Layer_1" data-name="Layer 1" xmlns="http://www.w3.org/2000/svg" xmlns:xlink="http://www.w3.org/1999/xlink" viewBox="0 0 360 478">
  <defs>
    <linearGradient id="linear-gradient" x1="30.52" y1="305.02" x2="30.49" y2="273.85" gradientTransform="translate(0 484) scale(1 -1)" gradientUnits="userSpaceOnUse">
      <stop offset="0" stop-color="#0085ff"/>
      <stop offset="1" stop-color="#0085ff" stop-opacity="0"/>
    </linearGradient>
    <linearGradient id="linear-gradient-2" x1="90.84" y1="334.04" x2="90.75" y2="273.05" gradientTransform="translate(0 484) scale(1 -1)" gradientUnits="userSpaceOnUse">
      <stop offset="0" stop-color="#0085ff"/>
      <stop offset="1" stop-color="#0085ff" stop-opacity="0"/>
    </linearGradient>
    <linearGradient id="linear-gradient-3" x1="150.5" y1="374.42" x2="150.32" y2="285.98" gradientTransform="translate(0 484) scale(1 -1)" gradientUnits="userSpaceOnUse">
      <stop offset="0" stop-color="#0085ff"/>
      <stop offset="1" stop-color="#0085ff" stop-opacity="0"/>
    </linearGradient>
    <linearGradient id="linear-gradient-4" x1="210.5" y1="409.33" x2="210.22" y2="297.24" gradientTransform="translate(0 484) scale(1 -1)" gradientUnits="userSpaceOnUse">
      <stop offset="0" stop-color="#0085ff"/>
      <stop offset="1" stop-color="#0085ff" stop-opacity="0"/>
    </linearGradient>
    <linearGradient id="linear-gradient-5" x1="270.56" y1="442.09" x2="270.15" y2="307.9" gradientTransform="translate(0 484) scale(1 -1)" gradientUnits="userSpaceOnUse">
      <stop offset="0" stop-color="#0085ff"/>
      <stop offset="1" stop-color="#0085ff" stop-opacity="0"/>
    </linearGradient>
    <linearGradient id="linear-gradient-6" x1="330.5" y1="477.11" x2="329.94" y2="319.2" gradientTransform="translate(0 484) scale(1 -1)" gradientUnits="userSpaceOnUse">
      <stop offset="0" stop-color="#0085ff"/>
      <stop offset="1" stop-color="#0085ff" stop-opacity="0"/>
    </linearGradient>
  </defs>
  <path d="M167.57,128.18v6.73h-33.83v17.87h-5.75v-24.63l39.57,.03Zm-39.57,31.56h39.57v26.16l-5.72-.03v-19.43h-11.08v17.16h-5.64v-17.21h-11.33l-.03,19.9h-5.77v-26.55Zm0,31.44l39.57,14.23v7.2l-39.57,14.2v-6.68l9.93-3.53v-15.11l-9.93-3.61v-6.71Zm15.85,11.85v11.93l17.24-5.94-17.24-5.99Zm-15.85,60.03v-6.95l16.07-6.82v-9.2h-16.07v-6.65h39.57v16.06c0,3.03-.47,5.52-1.42,7.47-.93,1.97-2.25,3.43-3.97,4.38-1.7,.95-3.68,1.42-5.97,1.42-2.12,0-3.9-.35-5.34-1.04-1.42-.69-2.59-1.6-3.5-2.71-.89-1.1-1.62-2.27-2.19-3.53l-17.19,7.55Zm21.35-15.05c0,2.52,.58,4.48,1.75,5.88,1.17,1.42,2.79,2.13,4.87,2.13s3.62-.66,4.73-1.97c1.11-1.31,1.67-3.05,1.67-5.2v-8.76h-13.03v7.91Zm18.23,48.91v6.65h-39.57v-5.99l29.04-19.9h-29.04v-6.65h39.57v6.51l-28.27,19.38h28.27Zm0,16.23v6.65h-39.57v-6.65h39.57Zm0,42.14v6.65h-39.57v-5.99l29.04-19.9h-29.04v-6.65h39.57v6.51l-28.27,19.38h28.27Zm-40.12,31.56c0-3.54,.81-6.61,2.43-9.22,1.62-2.61,3.94-4.62,6.95-6.02,3.03-1.4,6.64-2.11,10.84-2.11s7.88,.73,10.95,2.19c3.07,1.46,5.41,3.51,7.03,6.16,1.64,2.66,2.46,5.78,2.46,9.36,0,2.19-.36,4.21-1.1,6.05-.73,1.86-1.71,3.49-2.95,4.87-1.24,1.4-2.65,2.51-4.24,3.31-1.59,.8-3.24,1.25-4.95,1.34v-7.03c1.35-.26,2.59-.78,3.72-1.56,1.15-.77,2.07-1.76,2.76-2.98,.69-1.2,1.04-2.58,1.04-4.13,0-1.99-.5-3.77-1.5-5.34-1-1.55-2.58-2.77-4.74-3.67-2.14-.88-4.91-1.31-8.32-1.31-2.7,0-4.98,.27-6.84,.82-1.84,.57-3.33,1.33-4.46,2.3-1.11,.99-1.93,2.12-2.44,3.39-.49,1.28-.74,2.63-.74,4.05s.24,2.61,.71,3.67c.47,1.06,1.1,1.95,1.86,2.68,.77,.75,1.59,1.32,2.46,1.73,.89,.42,1.76,.67,2.6,.74l2.9,.25v-8.84h4.71l-.05,15.79h-20.55v-4.71h5.56c-1-.68-1.97-1.53-2.9-2.57-.93-1.02-1.7-2.28-2.3-3.78-.6-1.48-.9-3.29-.9-5.42Z" fill="#f9fcff"/>
  <path d="M228.12,130.2c0,2.9-.59,5.47-1.78,7.72-1.17,2.24-2.76,4.05-4.76,5.42-2.01,1.39-4.24,2.21-6.7,2.46v-7.03c1.46-.27,2.76-.78,3.91-1.53,1.15-.73,2.06-1.7,2.74-2.9,.68-1.2,1.01-2.65,1.01-4.32,0-2.1-.5-3.89-1.51-5.36-.99-1.46-2.55-2.58-4.71-3.37-2.15-.77-4.94-1.15-8.37-1.15-5.2,0-8.99,.86-11.36,2.57-2.37,1.72-3.56,4.15-3.56,7.31,0,1.68,.37,3.12,1.1,4.32,.75,1.2,1.73,2.17,2.96,2.9,1.24,.75,2.59,1.26,4.05,1.53v7.03c-1.79-.22-3.5-.68-5.14-1.37-1.64-.68-3.11-1.63-4.41-2.87-1.28-1.24-2.29-2.8-3.04-4.68-.73-1.86-1.09-4.09-1.09-6.68,0-3.63,.83-6.75,2.49-9.36,1.68-2.59,4.05-4.59,7.12-5.99,3.08-1.39,6.74-2.08,10.97-2.08s7.82,.69,10.81,2.08c2.99,1.39,5.28,3.38,6.87,5.97,1.6,2.61,2.41,5.74,2.41,9.39Zm-40.67,38.9c0-3.65,.8-6.81,2.41-9.47,1.61-2.65,3.92-4.7,6.95-6.16,3.03-1.44,6.66-2.16,10.89-2.16s7.93,.73,10.97,2.19c3.05,1.46,5.38,3.52,7.01,6.18,1.62,2.68,2.44,5.82,2.44,9.41s-.81,6.71-2.44,9.33c-1.62,2.65-3.96,4.69-7.01,6.13-3.05,1.44-6.7,2.16-10.97,2.16s-7.86-.71-10.89-2.13c-3.01-1.42-5.33-3.46-6.95-6.1-1.61-2.65-2.41-5.77-2.41-9.39Zm5.58,0c0,2.15,.5,4.01,1.51,5.56,1.02,1.55,2.6,2.74,4.74,3.56,2.15,.84,4.93,1.26,8.35,1.26s6.29-.42,8.48-1.26c2.21-.84,3.83-2.03,4.87-3.59,1.04-1.55,1.56-3.39,1.56-5.53s-.53-4.01-1.59-5.58c-1.04-1.55-2.66-2.76-4.87-3.61-2.19-.86-5.01-1.29-8.46-1.29s-6.19,.43-8.35,1.29c-2.13,.86-3.71,2.06-4.74,3.61-1,1.57-1.51,3.43-1.51,5.58Zm34.54,51.07v6.65h-39.57v-5.99l29.04-19.9h-29.04v-6.65h39.57v6.51l-28.27,19.38h28.27Zm0,16.23v25.89l-5.64-.03v-19.1h-11.38v16.86h-5.56v-16.86h-17v-6.76h39.57Zm0,33.09v6.65h-39.57v-6.65h39.57Zm0,16.25v4.3c0,1.11,0,2.23-.03,3.37,0,1.15,0,2.14-.03,2.98-.09,4.82-.92,8.73-2.49,11.74-1.55,3.03-3.77,5.25-6.65,6.65-2.86,1.42-6.32,2.13-10.37,2.13s-7.84-.76-10.81-2.27c-2.97-1.5-5.26-3.79-6.84-6.9-1.57-3.08-2.35-7.01-2.35-11.77v-10.24h39.57Zm-5.5,6.76h-28.57v3.58c0,2.72,.46,5.12,1.4,7.2,.95,2.08,2.48,3.7,4.6,4.87,2.12,1.19,4.94,1.78,8.48,1.78s6.18-.55,8.24-1.64c2.06-1.1,3.55-2.66,4.46-4.71,.93-2.04,1.4-4.49,1.4-7.33v-3.75Zm-34.07,31.99h39.57v26.16l-5.72-.03v-19.43h-11.08v17.16h-5.64v-17.21h-11.33l-.03,19.9h-5.77v-26.55Zm39.57,60.8v6.65h-39.57v-5.99l29.04-19.9h-29.04v-6.65h39.57v6.51l-28.27,19.38h28.27Zm.55,31.64c0,2.9-.59,5.47-1.78,7.72-1.17,2.24-2.76,4.05-4.76,5.42-2.01,1.39-4.24,2.21-6.7,2.46v-7.03c1.46-.27,2.76-.78,3.91-1.53,1.15-.73,2.06-1.7,2.74-2.9,.68-1.21,1.01-2.65,1.01-4.33,0-2.1-.5-3.89-1.51-5.36-.99-1.46-2.55-2.58-4.71-3.37-2.15-.77-4.94-1.15-8.37-1.15-5.2,0-8.99,.86-11.36,2.57-2.37,1.71-3.56,4.15-3.56,7.31,0,1.68,.37,3.12,1.1,4.33,.75,1.2,1.73,2.17,2.96,2.9,1.24,.75,2.59,1.26,4.05,1.53v7.03c-1.79-.22-3.5-.67-5.14-1.37-1.64-.68-3.11-1.63-4.41-2.87-1.28-1.24-2.29-2.8-3.04-4.68-.73-1.86-1.09-4.09-1.09-6.68,0-3.63,.83-6.75,2.49-9.36,1.68-2.59,4.05-4.59,7.12-5.99,3.08-1.39,6.74-2.08,10.97-2.08s7.82,.69,10.81,2.08c2.99,1.39,5.28,3.38,6.87,5.97,1.6,2.61,2.41,5.74,2.41,9.39Zm-40.12,23.13h39.57v26.16l-5.72-.03v-19.43h-11.08v17.16h-5.64v-17.21h-11.33l-.03,19.9h-5.77v-26.55Z" fill="#f9fcff"/>
  <path d="M67.45,188.12c0-3.54,.81-6.61,2.44-9.22,1.62-2.61,3.94-4.62,6.95-6.02,3.03-1.4,6.64-2.11,10.84-2.11s7.88,.73,10.95,2.19c3.07,1.46,5.41,3.51,7.03,6.16,1.64,2.66,2.46,5.78,2.46,9.36,0,2.19-.36,4.21-1.1,6.05-.73,1.86-1.72,3.49-2.96,4.87-1.24,1.4-2.65,2.51-4.24,3.31-1.59,.8-3.24,1.25-4.95,1.34v-7.03c1.35-.26,2.59-.78,3.72-1.56,1.15-.77,2.07-1.76,2.76-2.98,.69-1.2,1.04-2.58,1.04-4.13,0-1.99-.5-3.77-1.5-5.34-1-1.55-2.58-2.77-4.73-3.67-2.13-.88-4.91-1.31-8.32-1.31-2.7,0-4.98,.27-6.84,.82-1.84,.57-3.33,1.33-4.46,2.3-1.11,.99-1.92,2.12-2.44,3.39-.49,1.28-.74,2.63-.74,4.05s.24,2.61,.71,3.67c.47,1.06,1.09,1.95,1.86,2.68,.77,.75,1.59,1.32,2.46,1.72,.89,.42,1.76,.67,2.6,.74l2.9,.25v-8.84h4.71l-.05,15.79h-20.55v-4.71h5.56c-1-.68-1.97-1.53-2.9-2.57-.93-1.02-1.7-2.28-2.3-3.78-.6-1.48-.9-3.28-.9-5.42Zm.55,55.18v-6.95l16.07-6.82v-9.2h-16.07v-6.65h39.57v16.06c0,3.03-.47,5.52-1.42,7.47-.93,1.97-2.25,3.43-3.97,4.38-1.7,.95-3.69,1.42-5.97,1.42-2.12,0-3.9-.35-5.34-1.04-1.42-.69-2.59-1.6-3.5-2.71-.89-1.1-1.62-2.27-2.19-3.53l-17.19,7.55Zm21.35-15.05c0,2.52,.58,4.48,1.75,5.88,1.17,1.42,2.79,2.13,4.87,2.13s3.62-.66,4.73-1.97c1.11-1.31,1.67-3.05,1.67-5.2v-8.76h-13.03v7.91Zm-21.89,38.09c0-3.65,.8-6.81,2.41-9.47,1.61-2.65,3.92-4.7,6.95-6.16,3.03-1.44,6.66-2.16,10.89-2.16s7.93,.73,10.97,2.19c3.05,1.46,5.38,3.52,7.01,6.18,1.62,2.68,2.44,5.82,2.44,9.42s-.81,6.7-2.44,9.33c-1.62,2.65-3.96,4.69-7.01,6.13-3.05,1.44-6.71,2.16-10.97,2.16s-7.86-.71-10.89-2.13c-3.01-1.42-5.33-3.46-6.95-6.1-1.61-2.65-2.41-5.78-2.41-9.39Zm5.58,0c0,2.15,.5,4.01,1.51,5.56,1.02,1.55,2.6,2.74,4.73,3.56,2.15,.84,4.94,1.26,8.35,1.26s6.29-.42,8.48-1.26c2.21-.84,3.83-2.04,4.87-3.58,1.04-1.55,1.56-3.39,1.56-5.53s-.53-4.01-1.59-5.58c-1.04-1.55-2.66-2.76-4.87-3.61-2.19-.86-5.01-1.29-8.46-1.29s-6.19,.43-8.35,1.29c-2.13,.86-3.71,2.06-4.73,3.61-1,1.57-1.51,3.43-1.51,5.58Zm34.54,71.04l-39.57-11.63v-5.61l28.05-7.99-28.05-8.1v-5.47l39.57-11.55v6.57l-28.57,8.02,28.57,8.05v4.98l-28.57,8.1,28.57,8.05v6.59Zm-5.99,4.22h5.99v30.87h-5.99v-11.88h-33.58v-6.68h33.58v-12.32Zm-16.01,62.64v-19.16h-17.57v-6.65h39.57v6.65h-16.34v19.16h16.34v6.65h-39.57v-6.65h17.57Z" fill="#f9fcff"/>
  <path d="M347.58,52.79v6.65h-39.58v-6.65h39.58Zm0,42.14v6.65h-39.58v-5.99l29.04-19.9h-29.04v-6.65h39.58v6.51l-28.27,19.38h28.27Zm0,16.23v4.3c0,1.11,0,2.24-.03,3.37,0,1.15,0,2.14-.03,2.98-.09,4.82-.92,8.73-2.49,11.74-1.55,3.03-3.77,5.25-6.65,6.65-2.86,1.42-6.32,2.13-10.37,2.13s-7.84-.76-10.81-2.27c-2.97-1.5-5.26-3.79-6.84-6.9-1.57-3.08-2.35-7.01-2.35-11.77v-10.24h39.58Zm-5.5,6.76h-28.57v3.58c0,2.72,.46,5.12,1.4,7.2,.95,2.08,2.48,3.7,4.6,4.87,2.12,1.19,4.94,1.78,8.48,1.78s6.18-.55,8.24-1.64c2.06-1.1,3.55-2.66,4.46-4.71,.93-2.04,1.4-4.49,1.4-7.33v-3.75Zm-34.07,31.99h39.58v26.17l-5.72-.03v-19.43h-11.08v17.16h-5.64v-17.22h-11.33l-.03,19.9h-5.77v-26.55Zm0,34.91h39.58v14.04c0,2.85-.49,5.39-1.48,7.64-.97,2.26-2.4,4.04-4.3,5.34-1.9,1.3-4.23,1.94-7.01,1.94-2.61,0-4.85-.59-6.71-1.78-1.86-1.17-3.28-2.8-4.27-4.9-.98-2.1-1.48-4.55-1.48-7.36v-8.16h-14.34v-6.76Zm19.68,6.71v8.05c0,2.32,.69,4.21,2.08,5.67,1.39,1.48,3.19,2.22,5.42,2.22s4.01-.77,5.26-2.3c1.26-1.53,1.89-3.46,1.89-5.77v-7.85h-14.64Zm-19.68,28.57h39.58v26.16l-5.72-.03v-19.43h-11.08v17.16h-5.64v-17.21h-11.33l-.03,19.9h-5.77v-26.55Zm39.58,60.8v6.65h-39.58v-5.99l29.04-19.9h-29.04v-6.65h39.58v6.51l-28.27,19.38h28.27Zm0,16.23v4.3c0,1.11,0,2.23-.03,3.37,0,1.15,0,2.14-.03,2.98-.09,4.82-.92,8.73-2.49,11.74-1.55,3.03-3.77,5.24-6.65,6.65-2.86,1.42-6.32,2.13-10.37,2.13s-7.84-.76-10.81-2.27c-2.97-1.5-5.26-3.8-6.84-6.9-1.57-3.08-2.35-7.01-2.35-11.77v-10.24h39.58Zm-5.5,6.76h-28.57v3.59c0,2.72,.46,5.12,1.4,7.2,.95,2.08,2.48,3.7,4.6,4.87,2.12,1.19,4.94,1.78,8.48,1.78s6.18-.55,8.24-1.64c2.06-1.09,3.55-2.66,4.46-4.71,.93-2.04,1.4-4.49,1.4-7.33v-3.75Zm-34.07,31.99h39.58v26.16l-5.72-.03v-19.43h-11.08v17.16h-5.64v-17.21h-11.33l-.03,19.9h-5.77v-26.55Zm39.58,60.8v6.65h-39.58v-5.99l29.04-19.9h-29.04v-6.65h39.58v6.51l-28.27,19.38h28.27Zm.55,31.64c0,2.9-.59,5.47-1.78,7.72-1.17,2.24-2.75,4.05-4.76,5.42-2.01,1.39-4.24,2.21-6.7,2.46v-7.03c1.46-.27,2.76-.79,3.91-1.53,1.15-.73,2.06-1.7,2.74-2.9,.67-1.2,1.01-2.65,1.01-4.32,0-2.1-.5-3.89-1.51-5.37-.99-1.46-2.55-2.58-4.71-3.37-2.15-.77-4.94-1.15-8.37-1.15-5.2,0-8.99,.86-11.36,2.57s-3.56,4.15-3.56,7.31c0,1.68,.36,3.12,1.1,4.32,.75,1.2,1.73,2.17,2.95,2.9,1.24,.75,2.59,1.26,4.05,1.53v7.03c-1.79-.22-3.5-.67-5.14-1.37-1.64-.68-3.11-1.63-4.41-2.87-1.28-1.24-2.29-2.8-3.04-4.68-.73-1.86-1.09-4.09-1.09-6.68,0-3.63,.83-6.75,2.49-9.36,1.68-2.59,4.05-4.59,7.12-5.99,3.08-1.39,6.74-2.08,10.98-2.08s7.82,.69,10.81,2.08c2.99,1.39,5.28,3.38,6.87,5.97,1.61,2.61,2.41,5.74,2.41,9.39Zm-40.12,23.13h39.58v26.16l-5.72-.03v-19.43h-11.08v17.16h-5.64v-17.21h-11.33l-.03,19.9h-5.77v-26.55Z" fill="#f9fcff"/>
  <path d="M247.45,86.55c0-3.65,.8-6.81,2.41-9.47,1.61-2.65,3.92-4.7,6.95-6.16,3.03-1.44,6.66-2.16,10.89-2.16s7.93,.73,10.98,2.19c3.05,1.46,5.38,3.52,7.01,6.19,1.62,2.68,2.44,5.82,2.44,9.41s-.81,6.71-2.44,9.33c-1.62,2.65-3.96,4.69-7.01,6.13-3.05,1.44-6.7,2.16-10.98,2.16s-7.86-.71-10.89-2.14c-3.01-1.42-5.33-3.46-6.95-6.1-1.61-2.65-2.41-5.77-2.41-9.39Zm5.58,0c0,2.15,.5,4,1.51,5.56,1.02,1.55,2.6,2.74,4.74,3.56,2.15,.84,4.93,1.26,8.35,1.26s6.3-.42,8.48-1.26c2.21-.84,3.83-2.03,4.87-3.59s1.56-3.39,1.56-5.53-.53-4.01-1.59-5.58c-1.04-1.55-2.66-2.76-4.87-3.61-2.19-.86-5.01-1.29-8.46-1.29s-6.19,.43-8.35,1.29c-2.14,.86-3.71,2.06-4.74,3.61-1,1.57-1.51,3.43-1.51,5.58Zm-5.04,25.18h39.58v14.04c0,2.85-.49,5.39-1.48,7.64-.97,2.26-2.4,4.04-4.3,5.34-1.9,1.29-4.23,1.94-7.01,1.94-2.61,0-4.85-.59-6.71-1.78-1.86-1.17-3.28-2.8-4.27-4.9-.98-2.1-1.48-4.55-1.48-7.36v-8.16h-14.34v-6.76Zm19.68,6.71v8.05c0,2.32,.69,4.21,2.08,5.66,1.39,1.48,3.19,2.22,5.42,2.22s4.01-.77,5.26-2.3c1.26-1.53,1.89-3.46,1.89-5.78v-7.85h-14.64Zm-19.68,28.57h39.58v14.04c0,2.85-.49,5.39-1.48,7.64-.97,2.26-2.4,4.04-4.3,5.34-1.9,1.3-4.23,1.94-7.01,1.94-2.61,0-4.85-.59-6.71-1.78-1.86-1.17-3.28-2.8-4.27-4.9-.98-2.1-1.48-4.55-1.48-7.36v-8.16h-14.34v-6.76Zm19.68,6.71v8.05c0,2.32,.69,4.21,2.08,5.67,1.39,1.48,3.19,2.22,5.42,2.22s4.01-.77,5.26-2.3c1.26-1.53,1.89-3.46,1.89-5.78v-7.85h-14.64Zm-20.23,44.45c0-3.65,.8-6.81,2.41-9.47,1.61-2.65,3.92-4.7,6.95-6.16,3.03-1.44,6.66-2.16,10.89-2.16s7.93,.73,10.98,2.19c3.05,1.46,5.38,3.52,7.01,6.19,1.62,2.68,2.44,5.82,2.44,9.41s-.81,6.71-2.44,9.33c-1.62,2.65-3.96,4.69-7.01,6.13-3.05,1.44-6.7,2.16-10.98,2.16s-7.86-.71-10.89-2.13c-3.01-1.42-5.33-3.46-6.95-6.1-1.61-2.65-2.41-5.77-2.41-9.39Zm5.58,0c0,2.15,.5,4,1.51,5.55,1.02,1.55,2.6,2.74,4.74,3.56,2.15,.84,4.93,1.26,8.35,1.26s6.3-.42,8.48-1.26c2.21-.84,3.83-2.03,4.87-3.59s1.56-3.39,1.56-5.53-.53-4.01-1.59-5.58c-1.04-1.55-2.66-2.76-4.87-3.61-2.19-.86-5.01-1.29-8.46-1.29s-6.19,.43-8.35,1.29c-2.14,.86-3.71,2.06-4.74,3.61-1,1.57-1.51,3.43-1.51,5.58Zm-5.04,54.79v-6.95l16.07-6.82v-9.19h-16.07v-6.65h39.58v16.07c0,3.03-.48,5.52-1.42,7.47-.93,1.97-2.25,3.43-3.97,4.38-1.7,.95-3.69,1.42-5.97,1.42-2.12,0-3.9-.35-5.34-1.04-1.42-.69-2.59-1.6-3.5-2.71-.89-1.1-1.62-2.27-2.19-3.53l-17.19,7.55Zm21.35-15.05c0,2.52,.58,4.48,1.75,5.88,1.17,1.42,2.79,2.13,4.87,2.13s3.62-.66,4.73-1.97c1.11-1.31,1.67-3.05,1.67-5.2v-8.76h-13.03v7.91Zm12.23,18.84h5.99v30.87h-5.99v-11.88h-33.58v-6.68h33.58v-12.32Zm-19.13,67.27c-3.14,0-5.83-.51-8.07-1.53-2.23-1.02-3.94-2.65-5.15-4.9-1.19-2.23-1.78-5.16-1.78-8.81s.6-6.6,1.81-8.84c1.22-2.23,2.97-3.84,5.26-4.84,2.3-1,5.07-1.51,8.32-1.51h24.74v6.81h-25.43c-3.06,0-5.33,.75-6.79,2.24-1.46,1.51-2.19,3.56-2.19,6.13,0,1.73,.32,3.24,.96,4.52,.64,1.28,1.61,2.26,2.93,2.96,1.33,.69,3.03,1.04,5.09,1.04h25.43v6.73h-25.12Zm25.12,34.53v6.65h-39.58v-5.99l29.04-19.9h-29.04v-6.65h39.58v6.51l-28.27,19.38h28.27Zm0,16.23v6.65h-39.58v-6.65h39.58Zm-5.99,12.61h5.99v30.87h-5.99v-11.88h-33.58v-6.68h33.58v-12.32Zm5.99,68.8l-22.85-13.6h-16.72v-6.65h16.75l22.83-13.63v7.23l-17.02,9.77,17.02,9.61v7.28Z" fill="#f9fcff"/>
  <rect y="179" width="61" height="46" fill="url(#linear-gradient)" isolation="isolate" opacity=".08"/>
  <rect x="60.86" y="150" width="59.83" height="90" fill="url(#linear-gradient-2)" isolation="isolate" opacity=".08"/>
  <rect x="120.49" y="109.64" width="59.75" height="130.5" fill="url(#linear-gradient-3)" isolation="isolate" opacity=".08"/>
  <rect x="180.24" y="74.75" width="60.11" height="165.39" fill="url(#linear-gradient-4)" isolation="isolate" opacity=".08"/>
  <rect x="240.34" y="42" width="59.83" height="198" fill="url(#linear-gradient-5)" isolation="isolate" opacity=".08"/>
  <rect x="300.17" y="7" width="59.83" height="233" fill="url(#linear-gradient-6)" isolation="isolate" opacity=".08"/>
  <path d="M139.06,9.75c3.55,2.14,7.32-.63,7.73-2.99,.61-3.51-2.68-7.54-7.73-4.55,0,0-4.38-4.96-8.63-.05,0,0-7.25,3.54-3.23,9.69,4.01,6.13,9.08-2.22,9.08-2.22l2.78,.11h0Z" fill="#102048"/>
  <path d="M141.63,11.29c1.95,2.53,2.8,3.53,2.53,4.32-.27,.79-2.22,.86-2.22,.86l-.31-5.17h0Z" fill="#e28b6d"/>
  <path d="M138.62,19.11l-1.11,2.7-4.31,10.44-6.95-7.98,6.56-9.4,3.91,2.85,1.9,1.38Z" fill="#f9b384"/>
  <path d="M138.62,19.11l-1.11,2.7c-1.52-1.46-3-3.36-3.6-4.2l2.82,.12,1.9,1.38h0Z" fill="#102048"/>
  <path d="M142.65,17.76c-.06,1.42-.35,2.53-1.07,3.02-2.06,1.41-9.62-4.61-9.62-4.61l-.52-8.48,10.63,.73c.02,1.36,.17,2.89,.31,4.41,.16,1.77,.32,3.51,.26,4.94h0Z" fill="#f9b384"/>
  <path d="M132.43,11.85c2.6,.47,3.27-2.32,3.27-2.32,2.79-1.65,5.09,2.17,7.6,.74l.39-4.88-11.02-.55-3.97,2.48,1.13,2.98,2.62,1.54h0Z" fill="#102048"/>
  <path d="M134.06,11.9c-1.4-1.54-3.66-.88-3.88,.77-.22,1.65,1.19,4.44,3.48,2.83l.4-3.6h0Z" fill="#f9b384"/>
  <path d="M142.65,17.76c-.22,.06-.46,.1-.7,.1-1.45,0-2.62-1.14-2.62-2.54s1.17-2.53,2.62-2.53c.15,0,.3,.01,.45,.04,.16,1.77,.32,3.51,.26,4.94Z" fill="#ffa061"/>
  <path d="M133.1,13c-.08-.18-.23-.33-.39-.45-.16-.12-.34-.22-.54-.27-.19-.05-.38-.06-.55,.02-.17,.07-.31,.22-.43,.39l-.11-.04c.06-.22,.19-.44,.42-.58,.23-.13,.52-.13,.76-.07,.24,.07,.46,.19,.63,.36,.17,.17,.31,.37,.34,.62l-.12,.02h0Z" fill="#102048"/>
  <path d="M143.29,38.61c2.3-2.59,2.52-6.28,3.39-7.04,1.62-1.41,.88,2.9,.88,2.9,0,0,1.05-2.91,3.59-3.56,1.66-.43,1.96,1.07,1.81,2.32-.24,2.08-.94,4.46-2.68,5.84-.74,.59-1.68,1.04-2.21,1.83-.3,.45-.56,.96-.71,1.48l-4.08-3.76Z" fill="#f9b384"/>
  <path d="M142.93,38.7l1.07-1.39,4.34,3.74-1.21,1.7-4.2-4.05Z" fill="#708cd5"/>
  <path d="M129.2,52.43l13.82-14.93,5.13,4.88c-3.67,8.09-8.53,13.28-16.32,17.25l-2.63-7.19h0Z" fill="#d8e3ff"/>
  <path d="M148.86,34.35c.27-.05,.54,0,.78,.08,.25,.07,.47,.19,.69,.31,.22,.12,.42,.26,.61,.42,.19,.17,.38,.31,.5,.6l-.15,.06c-.14-.12-.37-.25-.56-.38-.2-.12-.4-.25-.61-.36-.2-.12-.41-.23-.62-.34-.21-.1-.42-.19-.64-.24v-.16h0Z" fill="#e28b6d"/>
  <path d="M147.54,35.26c.28,.1,.56,.26,.76,.52,.2,.26,.27,.6,.23,.92-.04,.32-.17,.6-.35,.85-.18,.24-.4,.47-.74,.56l-.05-.15c.2-.14,.35-.38,.48-.6,.13-.23,.22-.47,.25-.71,.04-.24,0-.47-.12-.69-.12-.22-.33-.39-.54-.57l.07-.14h0Z" fill="#e28b6d"/>
  <path d="M93.98,130.39s3.01,6.21,11.66,4.21l-4.17-5.37-7.49,1.16Z" fill="#1f3c88"/>
  <path d="M96.92,129.63l-3.08,6.72,3.36,5.14,4.16-3.28,1.84-7.39-6.28-1.19Z" fill="#f9b384"/>
  <path d="M93.84,136.35l7.52,1.86,4.27,10.24c.4,.96-.63,1.89-1.59,1.44l-13.35-6.26c-.97-.45-1.38-1.57-.94-2.52l.12-.25c.86-1.83,2.23-3.4,3.97-4.51Z" fill="#1f3c88"/>
  <path d="M93.84,136.35l7.52,1.86,4.27,10.24c.4,.96-.63,1.89-1.59,1.44l-13.35-6.26c-.97-.45-1.38-1.57-.94-2.52l.12-.25c.86-1.83,2.23-3.4,3.97-4.51Z" fill="#708cd5"/>
  <path d="M102.71,141.55l-1.86,1.01,.2,.35,1.86-1.01-.2-.35Z" fill="#acbfee"/>
  <path d="M103.65,143.81l-1.86,1.01,.2,.35,1.86-1.01-.2-.35Z" fill="#acbfee"/>
  <path d="M104,61.12c-1.46,3.32-3.43,8.43-.12,14.56,1.35,2.5,1.8,5.35,1.15,8.1l-11.05,46.62,11.66,4.21,23.87-67.51-25.52-5.98h0Z" fill="#c5dcff"/>
  <path d="M135.21,27.54c2.36,6.56,2.42,17.76-2.05,29.58l-6.91,1.91,2.78-21.89,6.19-9.6h0Z" fill="#708cd5"/>
  <path d="M127.62,21.91l1.89-4.06s5.36,3.62,8.18,7.94l-3.28,5.99-6.79-9.87h0Z" fill="#708cd5"/>
  <path d="M129.01,57.12c-18.26-.59-27.82,9.65-27.75,9.25,2.94-9.97,5.7-17.42,8.18-22.98,4.49-10.1,8.02-13.99,9.85-15.46,.9-.72,1.39-.86,1.39-.86l8.32-6.96c.72,.37,1.41,.9,2.03,1.48,2.34,2.2,3.68,5.24,4,8.44,1.25,12.51-6.01,27.1-6.01,27.1h0Z" fill="#d8e3ff"/>
  <path d="M123.72,28.21c-2.68,1.38-7.33,8.58-14.37,14.68,4.51-9.83,8.06-13.63,9.9-15.06l4.47,.38h0Z" fill="#a9c1ff"/>
  <path d="M141.36,91.54s4.6,5.94,12.21,2.96l-5.08-5.23-7.13,2.28h0Z" fill="#1f3c88"/>
  <path d="M144.18,89.98l-3.08,6.72,3.36,5.14,4.16-3.28,1.84-7.39-6.28-1.18Z" fill="#f9b384"/>
  <path d="M141.09,96.69l7.52,1.86,4.27,10.24c.4,.96-.63,1.89-1.59,1.44l-13.35-6.26c-.97-.45-1.38-1.57-.94-2.52l.12-.25c.86-1.83,2.23-3.4,3.96-4.51Z" fill="#708cd5"/>
  <path d="M149.95,101.72l-1.87,1.01,.2,.35,1.86-1.01-.2-.35Z" fill="#acbfee"/>
  <path d="M150.88,103.98l-1.86,1.01,.2,.35,1.86-1.01-.2-.35Z" fill="#acbfee"/>
  <path d="M105.64,61.56c2.51-1.68,18.51-5.75,28.66-5.45,11.29,.33,20.34,1.57,24.03,9.59,3.68,8.01-4.75,28.79-4.75,28.79l-12.21-2.96,2.94-19.26s-15.47,1.89-22.84,1.97l-15.83-12.68Z" fill="#c5dcff"/>
  <path d="M131.15,73.73c-1.26,0-2.47,.31-3.71,.56-1.25,.25-2.53,.34-3.8,.33-1.27-.03-2.53-.14-3.79-.3-.63-.09-1.25-.19-1.87-.29-.62-.12-1.24-.24-1.86-.37l.03-.15c.62,.07,1.25,.17,1.87,.25,.62,.07,1.25,.16,1.87,.22,1.25,.13,2.5,.23,3.75,.25,1.25,.03,2.5-.07,3.73-.27,.62-.1,1.24-.22,1.87-.31,.63-.08,1.27-.1,1.91-.08v.16h0Z" fill="#708cd5"/>
  <path d="M106.85,55.53l-7.56,12.28-.88,1.43c-.93,1.51-2.95,2.01-4.52,1.1l-22.6-13.08c-1.56-.91-2.07-2.87-1.14-4.38l4.98-8.08,3.46-5.62c.93-1.51,2.95-2.01,4.51-1.11l22.61,13.08c1.56,.91,2.07,2.86,1.14,4.38h0Z" fill="#acbfee"/>
  <path d="M99.29,67.81l-.88,1.43c-.93,1.51-2.95,2.01-4.52,1.1l-22.61-13.08c-1.56-.91-2.07-2.87-1.14-4.38l6.61-10.73c-3.98,10.76,11.61,22.66,22.54,25.65Z" fill="#102048" isolation="isolate" opacity=".15"/>
  <path d="M93.54,43.32l-2.95,4.07s-.37,1.66-1.16,2.32c0,0,.35,1.7,1.74,2.3,1.58,.68,3.52,.65,4.79-1.1,1.26-1.75,1.43-6.92,1.43-6.92l-3.84-.67h0Z" fill="#f9b384"/>
  <path d="M91.51,44.15c0,.27-.55,1.72-.55,1.72l6.42,.86v-2.75l-5.88,.17Z" fill="#708cd5"/>
  <path d="M129.01,20.2s-12.22-1.78-22.16,3.21c-1.4,.7-2.68,1.62-3.81,2.68-4.79,4.5-9.08,8.94-12.32,18.36l7.63,1.21,7.7-11.03c.66-.94,1.67-1.61,2.82-1.86,4.08-.9,13.85-3.12,15.38-3.98l4.76-8.58h0Z" fill="#d8e3ff"/>
  <path d="M48.12,215.2c0,2.9-.59,5.47-1.78,7.72-1.17,2.24-2.76,4.05-4.76,5.42-2.01,1.39-4.24,2.21-6.71,2.46v-7.03c1.46-.27,2.76-.78,3.91-1.53,1.15-.73,2.06-1.7,2.74-2.9,.68-1.2,1.01-2.65,1.01-4.32,0-2.1-.5-3.89-1.51-5.36-.99-1.46-2.55-2.58-4.71-3.37-2.15-.77-4.94-1.15-8.37-1.15-5.2,0-8.99,.86-11.36,2.57-2.37,1.71-3.56,4.15-3.56,7.31,0,1.68,.36,3.12,1.09,4.32,.75,1.2,1.73,2.17,2.96,2.9,1.24,.75,2.59,1.26,4.05,1.53v7.03c-1.79-.22-3.5-.68-5.15-1.37-1.64-.68-3.11-1.63-4.41-2.87-1.28-1.24-2.29-2.8-3.04-4.68-.73-1.86-1.09-4.09-1.09-6.68,0-3.63,.83-6.75,2.49-9.36,1.68-2.59,4.05-4.59,7.12-5.99,3.08-1.39,6.74-2.08,10.97-2.08s7.82,.69,10.81,2.08c2.99,1.39,5.28,3.38,6.87,5.97,1.61,2.61,2.41,5.74,2.41,9.39Zm-40.12,19.19l39.57,14.23v7.2l-39.57,14.2v-6.68l9.93-3.53v-15.11l-9.93-3.61v-6.71Zm15.85,11.85v11.93l17.24-5.94-17.24-5.99Zm-15.85,60.03v-6.95l16.07-6.81v-9.2H8v-6.65H47.57v16.07c0,3.03-.47,5.52-1.42,7.47-.93,1.97-2.25,3.43-3.97,4.38-1.7,.95-3.69,1.42-5.97,1.42-2.12,0-3.9-.35-5.34-1.04-1.42-.69-2.59-1.6-3.5-2.71-.89-1.1-1.62-2.27-2.19-3.53l-17.19,7.55Zm21.35-15.05c0,2.52,.58,4.48,1.75,5.88,1.17,1.42,2.79,2.13,4.87,2.13s3.62-.66,4.73-1.97c1.11-1.31,1.67-3.05,1.67-5.2v-8.76h-13.03v7.91Zm-21.35,23.02H47.57v26.16l-5.72-.03v-19.43h-11.08v17.16h-5.64v-17.21H13.8l-.03,19.9H8v-26.55Zm0,34.91H47.57v26.16l-5.72-.03v-19.43h-11.08v17.16h-5.64v-17.21H13.8l-.03,19.9H8v-26.55Zm0,64.52v-6.95l16.07-6.81v-9.2H8v-6.65H47.57v16.07c0,3.03-.47,5.52-1.42,7.47-.93,1.97-2.25,3.43-3.97,4.38-1.7,.95-3.69,1.42-5.97,1.42-2.12,0-3.9-.35-5.34-1.04-1.42-.69-2.59-1.6-3.5-2.71-.89-1.1-1.62-2.27-2.19-3.53l-17.19,7.55Zm21.35-15.05c0,2.52,.58,4.48,1.75,5.88,1.17,1.42,2.79,2.13,4.87,2.13s3.62-.66,4.73-1.97c1.11-1.31,1.67-3.05,1.67-5.2v-8.76h-13.03v7.91Z" fill="#f9fcff"/>
</svg>