<svg width="163" height="45" viewBox="0 0 163 45" fill="none" xmlns="http://www.w3.org/2000/svg">
    <path d="M4.6 41V29.8H11.048V30.728H5.624V34.76H10.664V35.688H5.624V40.072H11.048V41H4.6ZM24.4044 41V29.8H27.7484C28.7617 29.8 29.6577 30.04 30.4364 30.52C31.215 30.9893 31.823 31.6453 32.2604 32.488C32.7084 33.3307 32.9324 34.3013 32.9324 35.4C32.9324 36.488 32.7084 37.4533 32.2604 38.296C31.823 39.1387 31.215 39.8 30.4364 40.28C29.6577 40.76 28.7617 41 27.7484 41H24.4044ZM25.4284 40.072H27.7484C28.3244 40.072 28.863 39.9547 29.3644 39.72C29.8657 39.4747 30.3084 39.1387 30.6924 38.712C31.0764 38.2747 31.375 37.7733 31.5884 37.208C31.8017 36.6427 31.9084 36.04 31.9084 35.4C31.9084 34.76 31.8017 34.1573 31.5884 33.592C31.375 33.0267 31.0764 32.5307 30.6924 32.104C30.3084 31.6667 29.8657 31.3307 29.3644 31.096C28.863 30.8507 28.3244 30.728 27.7484 30.728H25.4284V40.072ZM49.6782 41.256C48.8676 41.256 48.1422 41.08 47.5022 40.728C46.8729 40.3653 46.3769 39.8693 46.0142 39.24C45.6622 38.6107 45.4862 37.8907 45.4862 37.08V29.8H46.5102V37.08C46.5102 37.7093 46.6436 38.2693 46.9102 38.76C47.1876 39.2507 47.5662 39.6347 48.0462 39.912C48.5369 40.1893 49.0916 40.328 49.7102 40.328C50.3396 40.328 50.8942 40.1893 51.3742 39.912C51.8649 39.6347 52.2436 39.2507 52.5103 38.76C52.7876 38.2693 52.9262 37.7093 52.9262 37.08V29.8H53.9502V37.08C53.9502 37.8907 53.7689 38.6107 53.4062 39.24C53.0436 39.8693 52.5369 40.3653 51.8862 40.728C51.2462 41.08 50.5102 41.256 49.6782 41.256ZM71.934 41.192C70.878 41.192 69.9393 40.9467 69.118 40.456C68.3073 39.9547 67.6673 39.272 67.198 38.408C66.7393 37.5333 66.51 36.5307 66.51 35.4C66.51 34.2693 66.7393 33.272 67.198 32.408C67.6567 31.5333 68.2913 30.8507 69.102 30.36C69.9127 29.8587 70.8407 29.608 71.886 29.608C72.5153 29.608 73.1287 29.7253 73.726 29.96C74.334 30.184 74.8833 30.504 75.374 30.92C75.8647 31.3253 76.2433 31.7947 76.51 32.328L75.662 32.856C75.438 32.3973 75.1233 31.9973 74.718 31.656C74.3233 31.304 73.8807 31.032 73.39 30.84C72.8993 30.6373 72.398 30.536 71.886 30.536C71.0433 30.536 70.2913 30.744 69.63 31.16C68.9793 31.576 68.4673 32.152 68.094 32.888C67.7207 33.6133 67.534 34.4507 67.534 35.4C67.534 36.36 67.7207 37.208 68.094 37.944C68.4673 38.68 68.9847 39.256 69.646 39.672C70.318 40.088 71.0807 40.296 71.934 40.296C72.4567 40.296 72.9633 40.1893 73.454 39.976C73.9447 39.752 74.3873 39.448 74.782 39.064C75.1873 38.68 75.502 38.2427 75.726 37.752L76.574 38.28C76.2967 38.8453 75.9127 39.352 75.422 39.8C74.942 40.2373 74.398 40.5787 73.79 40.824C73.182 41.0693 72.5633 41.192 71.934 41.192ZM96.874 41L92.298 29.8H93.354L97.962 41H96.874ZM87.69 41L92.298 29.8H93.354L88.778 41H87.69ZM89.866 37.528V36.6H95.786V37.528H89.866ZM112.252 41V30.728H108.604V29.8H116.924V30.728H113.276V41H112.252ZM133.628 41.192C132.572 41.192 131.634 40.9467 130.812 40.456C130.002 39.9653 129.362 39.2827 128.892 38.408C128.434 37.5333 128.204 36.5307 128.204 35.4C128.204 34.2587 128.434 33.256 128.892 32.392C129.351 31.5173 129.98 30.8347 130.78 30.344C131.591 29.8533 132.524 29.608 133.58 29.608C134.636 29.608 135.57 29.8587 136.38 30.36C137.191 30.8507 137.82 31.5333 138.268 32.408C138.727 33.272 138.956 34.2693 138.956 35.4C138.956 36.5307 138.727 37.5333 138.268 38.408C137.82 39.2827 137.196 39.9653 136.396 40.456C135.596 40.9467 134.674 41.192 133.628 41.192ZM133.628 40.264C134.471 40.264 135.212 40.056 135.852 39.64C136.503 39.224 137.01 38.6533 137.372 37.928C137.746 37.192 137.932 36.3493 137.932 35.4C137.932 34.4507 137.746 33.6133 137.372 32.888C136.999 32.152 136.487 31.576 135.836 31.16C135.186 30.744 134.434 30.536 133.58 30.536C132.738 30.536 131.986 30.744 131.324 31.16C130.674 31.576 130.162 32.152 129.788 32.888C129.415 33.6133 129.228 34.4507 129.228 35.4C129.228 36.3493 129.415 37.192 129.788 37.928C130.162 38.6533 130.679 39.224 131.34 39.64C132.012 40.056 132.775 40.264 133.628 40.264ZM151.684 41V29.8H155.124C155.828 29.8 156.452 29.944 156.996 30.232C157.54 30.5093 157.961 30.8987 158.26 31.4C158.569 31.8907 158.724 32.4613 158.724 33.112C158.724 33.752 158.553 34.3227 158.212 34.824C157.881 35.3253 157.428 35.72 156.852 36.008C156.276 36.2853 155.63 36.424 154.916 36.424H152.708V41H151.684ZM158.052 41L155.332 36.36L156.18 35.864L159.172 41H158.052ZM152.708 35.48H155.396C155.822 35.48 156.206 35.3787 156.548 35.176C156.9 34.9733 157.182 34.696 157.396 34.344C157.609 33.9813 157.716 33.5707 157.716 33.112C157.716 32.408 157.47 31.8373 156.98 31.4C156.5 30.952 155.881 30.728 155.124 30.728H152.708V35.48Z" fill="white"/>
    <path d="M41.5968 18C40.4573 18 39.3513 17.8099 38.2676 17.4296C37.1839 17.0493 36.2567 16.4454 35.4858 15.6066C34.715 14.779 34.2234 13.6829 34 12.352H38.6139C38.748 12.9112 38.9938 13.3362 39.3513 13.6382C39.7088 13.9289 40.0886 14.1303 40.502 14.2421C40.9153 14.3428 41.2616 14.3987 41.5633 14.3987C42.3453 14.3987 42.9709 14.2868 43.4625 14.0632C43.9428 13.8395 44.1886 13.504 44.1886 13.0454C44.1886 12.6651 44.0434 12.3632 43.7418 12.1507C43.4401 11.9382 42.9262 11.7592 42.1889 11.6362L39.53 11.1553C38.0218 10.8757 36.8153 10.35 35.8992 9.5783C34.9831 8.81777 34.5139 7.73291 34.5139 6.3237C34.5027 5.31712 34.7708 4.42237 35.3183 3.61711C35.8657 2.81184 36.67 2.18553 37.7314 1.71579C38.7927 1.24606 40.0998 1.0112 41.6526 1.0112C43.7641 1.0112 45.451 1.48092 46.7134 2.39803C47.9647 3.32632 48.6015 4.6125 48.6126 6.2454H44.1886C44.0769 5.68619 43.7753 5.26118 43.2949 4.97039C42.8145 4.67961 42.2447 4.53422 41.5856 4.53422C40.9153 4.53422 40.3455 4.64606 39.8875 4.86975C39.4295 5.09343 39.1949 5.44014 39.1949 5.88751C39.1949 6.23422 39.3959 6.51382 39.7981 6.72632C40.2003 6.93882 40.8371 7.12895 41.7085 7.29672L44.0992 7.78882C45.0824 8.03488 45.8756 8.35921 46.49 8.76184C47.1044 9.16448 47.5737 9.61185 47.9088 10.0816C48.244 10.5513 48.4674 11.0322 48.6015 11.502C48.7243 11.9717 48.7914 12.3855 48.7914 12.7434C48.7914 13.873 48.4786 14.8237 47.8641 15.6066C47.2385 16.3895 46.3895 16.9822 45.317 17.3849C44.1886 17.7987 42.9597 18 41.5968 18ZM55.6955 18C54.9917 18 54.2767 17.8882 53.5505 17.6533C52.8244 17.4184 52.1541 17.0829 51.5396 16.6355C50.9252 16.1882 50.4336 15.6401 50.065 14.9915C49.6963 14.3428 49.5064 13.5934 49.5064 12.7546V1.33553H54.8911V12.0276C54.8911 12.6428 55.1034 13.1461 55.5279 13.5487C55.9525 13.9513 56.5557 14.1526 57.3489 14.1526C58.1086 14.1526 58.7119 13.9513 59.1476 13.5599C59.5944 13.1684 59.8067 12.6428 59.8067 11.9829V1.32434H65.1468V17.6757H61.1361L60.4994 14.3651C60.2983 15.3829 59.9296 16.1658 59.3933 16.6803C58.8571 17.2059 58.2538 17.5526 57.5835 17.7204C56.9132 17.9105 56.2876 18 55.6955 18ZM78.0166 1.31316H82.854V17.6868H78.4858L71.8498 7.92303V17.6868H67.0125V1.31316H71.8945L78.0166 10.4395V1.31316ZM91.244 18C90.1044 18 88.9984 17.8099 87.9148 17.4296C86.8311 17.0493 85.9039 16.4454 85.133 15.6066C84.3622 14.779 83.8706 13.6829 83.6472 12.352H88.2611C88.3952 12.9112 88.641 13.3362 88.9985 13.6382C89.3559 13.9289 89.7358 14.1303 90.1491 14.2421C90.5625 14.3428 90.9088 14.3987 91.2104 14.3987C91.9925 14.3987 92.6181 14.2868 93.1096 14.0632C93.59 13.8395 93.8358 13.504 93.8358 13.0454C93.8358 12.6651 93.6906 12.3632 93.3889 12.1507C93.0873 11.9382 92.5734 11.7592 91.8361 11.6362L89.1772 11.1441C87.669 10.8645 86.4625 10.3388 85.5464 9.56712C84.6303 8.80659 84.1611 7.72171 84.1611 6.3125C84.1499 5.30592 84.418 4.41119 84.9655 3.60593C85.5129 2.80066 86.3172 2.17435 87.3785 1.70461C88.4399 1.23487 89.747 1 91.2998 1C93.4113 1 95.0982 1.46974 96.3606 2.38684C97.6118 3.31513 98.2486 4.60132 98.2598 6.23422H93.8246C93.7129 5.675 93.4113 5.25 92.9309 4.95921C92.4505 4.66842 91.8807 4.52303 91.2216 4.52303C90.5513 4.52303 89.9816 4.63487 89.5235 4.85855C89.0655 5.08224 88.8309 5.42896 88.8309 5.87633C88.8309 6.22304 89.032 6.50264 89.4341 6.71514C89.8363 6.92764 90.4731 7.11777 91.3445 7.28553L93.7353 7.77764C94.7184 8.02369 95.5116 8.34803 96.126 8.75066C96.7405 9.15329 97.2097 9.60067 97.5448 10.0704C97.88 10.5401 98.1034 11.0211 98.2375 11.4908C98.3604 11.9605 98.4274 12.3743 98.4274 12.7322C98.4274 13.8618 98.1146 14.8125 97.5001 15.5954C96.8745 16.3783 96.0255 16.9711 94.953 17.3737C93.847 17.7987 92.6181 18 91.244 18ZM98.2598 5.63027V1.31316H113.364V5.63027H108.214V17.6868H103.365V5.63027H98.2598ZM120.693 18C119.05 18 117.62 17.6533 116.414 16.9487C115.207 16.2441 114.258 15.2711 113.599 14.0072C112.928 12.7434 112.593 11.2783 112.593 9.60066C112.593 7.88948 112.928 6.3908 113.61 5.10461C114.291 3.81843 115.241 2.81185 116.459 2.09606C117.676 1.38027 119.095 1.02238 120.704 1.02238C122.368 1.02238 123.798 1.38027 125.005 2.10724C126.211 2.83421 127.139 3.84079 127.798 5.12698C128.446 6.41316 128.781 7.91184 128.781 9.61184C128.781 11.2447 128.457 12.6987 127.809 13.9513C127.161 15.2151 126.234 16.1993 125.016 16.9263C123.798 17.6533 122.368 18 120.693 18ZM120.704 14.052C121.441 14.052 122.011 13.8171 122.424 13.3586C122.838 12.9 123.128 12.3184 123.296 11.6026C123.463 10.8868 123.553 10.1711 123.553 9.4329C123.553 8.70592 123.474 7.99014 123.318 7.29672C123.162 6.60329 122.871 6.0329 122.469 5.58553C122.056 5.13816 121.475 4.91447 120.715 4.91447C119.978 4.91447 119.397 5.13816 118.983 5.57434C118.57 6.01053 118.268 6.58092 118.101 7.26316C117.922 7.95658 117.844 8.68356 117.844 9.4329C117.844 10.1487 117.922 10.8645 118.09 11.5803C118.257 12.2961 118.548 12.8776 118.961 13.3474C119.363 13.8171 119.944 14.052 120.704 14.052ZM141.092 1.31316H145.93V17.6868H141.561L134.925 7.92303V17.6868H130.088V1.31316H134.97L141.092 10.4395V1.31316ZM152.32 10.7415C152.309 11.4908 152.42 12.1171 152.666 12.6316C152.912 13.1461 153.247 13.5263 153.694 13.7947C154.141 14.0632 154.655 14.1862 155.247 14.1862C155.917 14.1862 156.52 14.052 157.045 13.7612C157.571 13.4816 157.95 12.9895 158.196 12.2961H163C162.821 13.4928 162.352 14.5105 161.581 15.3605C160.822 16.2105 159.883 16.8592 158.788 17.3178C157.693 17.7763 156.565 18 155.392 18C153.727 18 152.264 17.6533 151.013 16.9711C149.75 16.2888 148.778 15.3158 148.075 14.0743C147.371 12.8329 147.024 11.3678 147.024 9.69014C147.024 8.10198 147.348 6.64803 147.985 5.3283C148.622 4.01974 149.549 2.96843 150.767 2.18554C151.974 1.40264 153.437 1.0112 155.146 1.0112C156.878 1.0112 158.319 1.36908 159.481 2.09606C160.643 2.82303 161.514 3.80724 162.095 5.07106C162.676 6.33487 162.966 7.77764 162.966 9.39935V10.7415H152.32ZM152.309 7.64342H157.962C157.962 7.10658 157.861 6.61448 157.649 6.16711C157.436 5.71974 157.124 5.36185 156.699 5.10461C156.275 4.83619 155.761 4.71317 155.135 4.71317C154.565 4.71317 154.074 4.84737 153.649 5.12698C153.225 5.40658 152.901 5.77567 152.655 6.22303C152.409 6.65922 152.297 7.14013 152.309 7.64342Z" fill="white"/>
    <path d="M28.5 0H9.5V9.5H28.5V0Z" fill="white"/>
    <path d="M19 9.5H0V19H19V9.5Z" fill="white"/>
</svg>
