<svg width="137" height="18" viewBox="0 0 137 18" fill="none" xmlns="http://www.w3.org/2000/svg">
<path d="M8.0679 18C6.85771 18 5.68312 17.7987 4.53226 17.3961C3.3814 16.9934 2.39664 16.354 1.57798 15.4658C0.75933 14.5895 0.237291 13.4289 0 12.0197H4.90006C5.04243 12.6118 5.30346 13.0618 5.68312 13.3816C6.06279 13.6895 6.46618 13.9026 6.90517 14.0211C7.34416 14.1276 7.71196 14.1868 8.0323 14.1868C8.86282 14.1868 9.52724 14.0684 10.0493 13.8316C10.5595 13.5947 10.8205 13.2395 10.8205 12.754C10.8205 12.3513 10.6662 12.0316 10.3459 11.8066C10.0255 11.5816 9.47978 11.3921 8.69672 11.2619L5.87295 10.7526C4.27124 10.4566 2.98987 9.90001 2.01697 9.0829C1.04408 8.27764 0.545767 7.12896 0.545767 5.63685C0.533902 4.57106 0.818653 3.62369 1.40002 2.77106C1.98138 1.91842 2.83563 1.25527 3.96276 0.757898C5.0899 0.260529 6.47805 0.0118537 8.12722 0.0118537C10.3696 0.0118537 12.1612 0.509211 13.5019 1.48026C14.8307 2.46316 15.507 3.825 15.5188 5.55395H10.8205C10.7018 4.96184 10.3815 4.51184 9.87131 4.20395C9.36113 3.89605 8.75604 3.74212 8.05604 3.74212C7.34416 3.74212 6.73907 3.86054 6.25262 4.09738C5.76617 4.33422 5.51702 4.70132 5.51702 5.17501C5.51702 5.54211 5.73058 5.83817 6.15771 6.06317C6.58483 6.28817 7.26111 6.48948 8.18654 6.66711L10.7256 7.18817C11.7696 7.44869 12.612 7.79211 13.2646 8.21842C13.9171 8.64474 14.4154 9.11843 14.7714 9.6158C15.1273 10.1132 15.3646 10.6224 15.507 11.1197C15.6375 11.6171 15.7087 12.0553 15.7087 12.4342C15.7087 13.6303 15.3765 14.6369 14.7239 15.4658C14.0595 16.2947 13.1578 16.9224 12.0188 17.3487C10.8205 17.7868 9.51537 18 8.0679 18ZM23.041 18C22.2935 18 21.5342 17.8816 20.763 17.6329C19.9918 17.3842 19.2799 17.029 18.6273 16.5553C17.9748 16.0816 17.4528 15.5013 17.0612 14.8145C16.6697 14.1276 16.468 13.3342 16.468 12.4461V0.355263H22.1867V11.6763C22.1867 12.3276 22.4121 12.8605 22.863 13.2869C23.3139 13.7132 23.9545 13.9263 24.7969 13.9263C25.6037 13.9263 26.2444 13.7132 26.7071 13.2987C27.1817 12.8842 27.4071 12.3276 27.4071 11.629V0.343424H33.0784V17.6566H28.819L28.1427 14.1513C27.9292 15.2289 27.5376 16.0579 26.9681 16.6026C26.3986 17.1592 25.7579 17.5263 25.0461 17.7039C24.3342 17.9053 23.6698 18 23.041 18ZM46.7463 0.331585H51.8837V17.6684H47.2447L40.1971 7.33027V17.6684H35.0598V0.331585H40.2446L46.7463 9.99474V0.331585ZM60.794 18C59.5838 18 58.4092 17.7987 57.2583 17.3961C56.1075 16.9934 55.1227 16.354 54.3041 15.4658C53.4854 14.5895 52.9634 13.4289 52.7261 12.0197H57.6261C57.7685 12.6118 58.0295 13.0618 58.4092 13.3816C58.7889 13.6895 59.1923 13.9026 59.6312 14.0211C60.0702 14.1276 60.438 14.1868 60.7584 14.1868C61.5889 14.1868 62.2533 14.0684 62.7754 13.8316C63.2855 13.5947 63.5466 13.2395 63.5466 12.754C63.5466 12.3513 63.3923 12.0316 63.072 11.8066C62.7516 11.5816 62.2059 11.3921 61.4228 11.2619L58.599 10.7408C56.9973 10.4447 55.716 9.88817 54.7431 9.07106C53.7702 8.2658 53.2718 7.11711 53.2718 5.625C53.26 4.55921 53.5447 3.61185 54.1261 2.75922C54.7075 1.90658 55.5617 1.24343 56.6888 0.746058C57.816 0.24869 59.2041 0 60.8533 0C63.0957 0 64.8872 0.497371 66.2279 1.46842C67.5568 2.45132 68.233 3.81316 68.2449 5.54211H63.5347C63.416 4.95001 63.0957 4.5 62.5855 4.19211C62.0753 3.88421 61.4702 3.73026 60.7702 3.73026C60.0584 3.73026 59.4533 3.84868 58.9668 4.08553C58.4804 4.32237 58.2312 4.68949 58.2312 5.16317C58.2312 5.53027 58.4448 5.82633 58.8719 6.05133C59.299 6.27633 59.9753 6.47764 60.9008 6.65527L63.4398 7.17633C64.4838 7.43685 65.3262 7.78027 65.9788 8.20658C66.6313 8.6329 67.1297 9.10659 67.4856 9.60396C67.8415 10.1013 68.0788 10.6105 68.2212 11.1079C68.3517 11.6053 68.4229 12.0434 68.4229 12.4224C68.4229 13.6184 68.0907 14.625 67.4381 15.4539C66.7737 16.2829 65.872 16.9105 64.733 17.3368C63.5584 17.7868 62.2533 18 60.794 18ZM68.2449 4.90263V0.331585H84.2858V4.90263H78.8162V17.6684H73.667V4.90263H68.2449ZM92.0689 18C90.3249 18 88.8062 17.6329 87.5248 16.8869C86.2434 16.1408 85.235 15.1105 84.535 13.7724C83.8231 12.4342 83.4671 10.8829 83.4671 9.10658C83.4671 7.29474 83.8231 5.7079 84.5468 4.34606C85.2705 2.98422 86.279 1.91843 87.5723 1.16053C88.8655 0.402637 90.3723 0.0236929 92.0808 0.0236929C93.8486 0.0236929 95.3673 0.402634 96.6487 1.17237C97.93 1.94211 98.9148 3.0079 99.6148 4.36974C100.303 5.73158 100.659 7.31842 100.659 9.11842C100.659 10.8474 100.315 12.3868 99.6267 13.7132C98.9385 15.0513 97.9538 16.0934 96.6605 16.8632C95.3673 17.6329 93.8486 18 92.0689 18ZM92.0808 13.8197C92.8639 13.8197 93.469 13.5711 93.9079 13.0855C94.3469 12.6 94.6554 11.9842 94.8334 11.2263C95.0114 10.4684 95.1063 9.71053 95.1063 8.92895C95.1063 8.15921 95.0232 7.40132 94.8571 6.66711C94.691 5.9329 94.3825 5.32895 93.9554 4.85526C93.5164 4.38158 92.8995 4.14474 92.0927 4.14474C91.3096 4.14474 90.6926 4.38158 90.2537 4.84342C89.8147 5.30527 89.4943 5.90921 89.3164 6.63158C89.1265 7.36579 89.0435 8.13553 89.0435 8.92895C89.0435 9.68684 89.1265 10.4447 89.3045 11.2026C89.4825 11.9605 89.7909 12.5763 90.2299 13.0737C90.6571 13.5711 91.274 13.8197 92.0808 13.8197ZM113.734 0.331585H118.871V17.6684H114.232L107.184 7.33027V17.6684H102.047V0.331585H107.232L113.734 9.99474V0.331585ZM125.657 10.3145C125.646 11.1079 125.764 11.7711 126.025 12.3158C126.286 12.8605 126.642 13.2632 127.117 13.5474C127.591 13.8316 128.137 13.9618 128.766 13.9618C129.478 13.9618 130.119 13.8197 130.676 13.5119C131.234 13.2158 131.637 12.6947 131.898 11.9605H137C136.81 13.2276 136.312 14.3053 135.493 15.2053C134.686 16.1053 133.69 16.7921 132.527 17.2776C131.364 17.7632 130.166 18 128.92 18C127.152 18 125.598 17.6329 124.269 16.9105C122.929 16.1882 121.896 15.1579 121.149 13.8434C120.401 12.529 120.034 10.9776 120.034 9.20132C120.034 7.51975 120.378 5.98027 121.054 4.5829C121.73 3.19738 122.715 2.08422 124.008 1.25527C125.29 0.426327 126.844 0.0118537 128.659 0.0118537C130.498 0.0118537 132.029 0.390795 133.263 1.16053C134.497 1.93027 135.422 2.97237 136.039 4.31053C136.656 5.64869 136.964 7.17633 136.964 8.89343V10.3145H125.657ZM125.646 7.03421H131.649C131.649 6.46579 131.542 5.94475 131.317 5.47106C131.091 4.99738 130.759 4.61843 130.308 4.34606C129.858 4.06185 129.312 3.93159 128.647 3.93159C128.042 3.93159 127.52 4.07369 127.069 4.36974C126.619 4.66579 126.274 5.05659 126.013 5.53027C125.752 5.99211 125.634 6.50132 125.646 7.03421Z" fill="#22366A"/>
</svg>
